<svg width="600" height="432" viewBox="0 0 600 432" fill="none" xmlns="http://www.w3.org/2000/svg">
<g clip-path="url(#clip0_107_1222)">
<path opacity="0.1" d="M348.318 76.1866C309.885 74.8509 273.252 62.4429 238.324 48.8703C203.396 35.2976 168.777 20.2568 131.244 13.0648C107.113 8.43391 79.515 7.7826 60.0751 20.7205C41.3637 33.1671 35.3198 54.6548 32.0688 74.5915C29.6236 89.5936 28.2051 105.38 34.8893 119.427C39.5423 129.174 47.7996 137.371 53.5123 146.71C73.3828 179.204 59.3354 219.276 37.7981 251.03C27.6973 265.933 15.9792 280.113 8.18561 295.959C0.391983 311.806 -3.21781 329.96 3.60437 346.121C10.3658 362.128 26.4719 374.172 43.9248 382.633C79.3715 399.804 121.138 404.717 161.867 407.532C252.024 413.697 342.666 411.026 433.06 408.354C466.514 407.361 500.117 406.362 533.025 401.179C551.3 398.303 570.171 393.744 583.44 382.738C600.281 368.762 604.459 345.105 593.171 327.581C574.239 298.195 521.897 290.892 508.661 259.353C501.381 241.994 508.86 222.654 519.447 206.553C542.149 172.017 580.212 141.715 582.215 102.233C583.595 75.1158 565.298 47.965 537.004 35.1321C507.353 21.6698 466.232 23.3699 444.358 45.6192C421.833 68.542 382.247 77.3623 348.318 76.1866Z" fill="#60A5FA"/>
<path d="M133.712 400.191C133.712 400.191 103.354 377.24 97.6192 348.047C95.2935 335.786 89.0555 324.61 79.8406 316.194C75.4324 312.235 70.6713 308.688 65.6167 305.596" stroke="#535461" stroke-width="2" stroke-miterlimit="10"/>
<path d="M61.9021 287.205C64.5625 290.804 65.7658 306.055 65.7658 306.055C65.7658 306.055 51.5418 300.452 48.8759 296.859C47.5957 295.132 47.0542 292.966 47.3704 290.84C47.6867 288.713 48.8347 286.799 50.5621 285.519C52.2895 284.239 54.4547 283.697 56.5813 284.013C58.708 284.33 60.6219 285.478 61.9021 287.205Z" fill="#60A5FA"/>
<path d="M87.4134 299.172C87.6894 303.637 80.4201 317.094 80.4201 317.094C80.4201 317.094 71.5171 304.653 71.2356 300.187C71.1285 298.058 71.8646 295.973 73.2843 294.383C74.704 292.793 76.6929 291.827 78.8202 291.693C80.9475 291.56 83.0418 292.27 84.6492 293.67C86.2567 295.069 87.2478 297.046 87.4079 299.172H87.4134Z" fill="#60A5FA"/>
<path d="M112.141 333.57C110.132 337.566 97.0561 345.514 97.0561 345.514C97.0561 345.514 95.6597 330.28 97.6688 326.284C98.6578 324.405 100.345 322.989 102.368 322.341C104.39 321.693 106.586 321.865 108.483 322.82C110.379 323.775 111.826 325.436 112.51 327.447C113.194 329.457 113.062 331.656 112.141 333.57Z" fill="#60A5FA"/>
<path d="M124.996 363.795C123.688 368.072 112.146 378.112 112.146 378.112C112.146 378.112 108.189 363.337 109.497 359.053C110.126 356.998 111.545 355.277 113.443 354.268C115.341 353.259 117.562 353.046 119.617 353.675C121.672 354.303 123.394 355.723 124.403 357.621C125.411 359.519 125.625 361.739 124.996 363.795Z" fill="#60A5FA"/>
<path d="M67.2614 327.912C71.6771 328.508 85.636 322.205 85.636 322.205C85.636 322.205 73.8573 312.446 69.4196 311.85C67.2896 311.564 65.1332 312.135 63.4247 313.439C61.7163 314.743 60.5957 316.672 60.3095 318.802C60.0233 320.932 60.595 323.088 61.8987 324.797C63.2024 326.505 65.1315 327.626 67.2614 327.912Z" fill="#60A5FA"/>
<path d="M82.7439 363.077C87.1595 362.321 98.5685 352.137 98.5685 352.137C98.5685 352.137 84.4053 346.353 79.9951 347.109C78.9393 347.282 77.9281 347.663 77.0201 348.229C76.112 348.795 75.3251 349.535 74.7046 350.406C74.0841 351.278 73.6424 352.264 73.4051 353.307C73.1677 354.351 73.1393 355.431 73.3215 356.485C73.5037 357.539 73.893 358.547 74.4667 359.45C75.0405 360.353 75.7875 361.134 76.6646 361.747C77.5416 362.36 78.5314 362.793 79.5767 363.021C80.622 363.249 81.7022 363.269 82.7549 363.077H82.7439Z" fill="#60A5FA"/>
<path d="M102.476 395.196C106.953 395.196 119.924 387.087 119.924 387.087C119.924 387.087 106.947 378.99 102.471 378.99C100.322 378.99 98.261 379.844 96.7414 381.363C95.2218 382.883 94.3682 384.944 94.3682 387.093C94.3682 389.242 95.2218 391.303 96.7414 392.822C98.261 394.342 100.322 395.196 102.471 395.196H102.476Z" fill="#60A5FA"/>
<path d="M428.622 201.691C428.622 201.691 447.333 168.546 475.538 158.997C487.382 155.063 497.631 147.396 504.748 137.145C508.086 132.244 510.966 127.046 513.353 121.618" stroke="#535461" stroke-width="2" stroke-miterlimit="10"/>
<path d="M531.06 115.547C527.847 118.66 512.895 121.883 512.895 121.883C512.895 121.883 516.565 107.035 519.778 103.917C521.328 102.465 523.387 101.68 525.51 101.731C527.634 101.783 529.652 102.665 531.131 104.19C532.61 105.715 533.432 107.759 533.418 109.883C533.405 112.007 532.558 114.041 531.06 115.547Z" fill="#60A5FA"/>
<path d="M522.604 142.388C518.188 143.26 503.909 137.84 503.909 137.84C503.909 137.84 515.058 127.353 519.446 126.498C520.5 126.264 521.59 126.243 522.652 126.436C523.713 126.629 524.726 127.032 525.63 127.622C526.534 128.212 527.311 128.976 527.915 129.87C528.519 130.764 528.939 131.77 529.149 132.829C529.36 133.887 529.356 134.977 529.14 136.035C528.923 137.092 528.497 138.095 527.888 138.986C527.278 139.876 526.496 140.636 525.589 141.22C524.682 141.804 523.667 142.202 522.604 142.388Z" fill="#60A5FA"/>
<path d="M491.827 171.465C487.599 170.003 477.989 158.103 477.989 158.103C477.989 158.103 492.892 154.691 497.131 156.154C498.149 156.492 499.091 157.029 499.9 157.733C500.709 158.438 501.371 159.296 501.846 160.258C502.32 161.221 502.6 162.268 502.667 163.339C502.734 164.41 502.587 165.483 502.236 166.497C501.885 167.511 501.336 168.445 500.62 169.245C499.905 170.045 499.038 170.695 498.07 171.157C497.101 171.619 496.051 171.885 494.979 171.938C493.907 171.99 492.836 171.83 491.827 171.465Z" fill="#60A5FA"/>
<path d="M463.544 188.223C459.129 187.494 447.67 177.366 447.67 177.366C447.67 177.366 461.795 171.482 466.205 172.211C468.327 172.56 470.224 173.738 471.478 175.486C472.732 177.233 473.241 179.408 472.892 181.53C472.542 183.653 471.364 185.55 469.617 186.804C467.869 188.058 465.694 188.566 463.572 188.217L463.544 188.223Z" fill="#60A5FA"/>
<path d="M491.44 126.233C491.435 130.709 499.554 143.696 499.554 143.696C499.554 143.696 507.662 130.725 507.662 126.255C507.69 125.173 507.502 124.097 507.107 123.09C506.713 122.082 506.121 121.164 505.366 120.389C504.611 119.614 503.709 118.998 502.712 118.578C501.715 118.157 500.644 117.94 499.562 117.94C498.48 117.94 497.409 118.157 496.413 118.578C495.416 118.998 494.513 119.614 493.758 120.389C493.004 121.164 492.411 122.082 492.017 123.09C491.623 124.097 491.434 125.173 491.462 126.255L491.44 126.233Z" fill="#60A5FA"/>
<path d="M458.637 146.246C459.973 150.519 471.586 160.481 471.586 160.481C471.586 160.481 475.45 145.678 474.103 141.406C473.405 139.426 471.965 137.795 470.089 136.856C468.212 135.917 466.043 135.742 464.04 136.37C462.037 136.997 460.356 138.377 459.35 140.219C458.344 142.062 458.093 144.222 458.648 146.246H458.637Z" fill="#60A5FA"/>
<path d="M429.456 170.074C430.052 174.49 439.81 186.285 439.81 186.285C439.81 186.285 446.108 172.349 445.512 167.916C445.394 166.842 445.062 165.803 444.536 164.859C444.01 163.916 443.301 163.086 442.45 162.421C441.599 161.755 440.623 161.267 439.581 160.984C438.538 160.701 437.449 160.629 436.379 160.773C435.308 160.917 434.277 161.273 433.346 161.822C432.415 162.37 431.603 163.099 430.958 163.966C430.313 164.832 429.848 165.819 429.59 166.868C429.332 167.917 429.286 169.007 429.456 170.074Z" fill="#60A5FA"/>
<path opacity="0.25" d="M531.06 115.547C527.847 118.66 512.895 121.883 512.895 121.883C512.895 121.883 516.565 107.035 519.778 103.917C521.328 102.465 523.387 101.68 525.51 101.731C527.634 101.783 529.652 102.665 531.131 104.19C532.61 105.715 533.432 107.759 533.418 109.883C533.405 112.007 532.558 114.041 531.06 115.547Z" fill="black"/>
<path opacity="0.25" d="M522.604 142.388C518.188 143.26 503.909 137.84 503.909 137.84C503.909 137.84 515.058 127.353 519.446 126.498C520.5 126.264 521.59 126.243 522.652 126.436C523.713 126.629 524.726 127.032 525.63 127.622C526.534 128.212 527.311 128.976 527.915 129.87C528.519 130.764 528.939 131.77 529.149 132.829C529.36 133.887 529.356 134.977 529.14 136.035C528.923 137.092 528.497 138.095 527.888 138.986C527.278 139.876 526.496 140.636 525.589 141.22C524.682 141.804 523.667 142.202 522.604 142.388Z" fill="black"/>
<path opacity="0.25" d="M491.827 171.465C487.599 170.003 477.989 158.103 477.989 158.103C477.989 158.103 492.892 154.691 497.131 156.154C498.149 156.492 499.091 157.029 499.9 157.733C500.709 158.438 501.371 159.296 501.846 160.258C502.32 161.221 502.6 162.268 502.667 163.339C502.734 164.41 502.587 165.483 502.236 166.497C501.885 167.511 501.336 168.445 500.62 169.245C499.905 170.045 499.038 170.695 498.07 171.157C497.101 171.619 496.051 171.885 494.979 171.938C493.907 171.99 492.836 171.83 491.827 171.465Z" fill="black"/>
<path opacity="0.25" d="M463.544 188.223C459.129 187.494 447.67 177.366 447.67 177.366C447.67 177.366 461.795 171.482 466.205 172.211C468.327 172.56 470.224 173.738 471.478 175.486C472.732 177.233 473.241 179.408 472.892 181.53C472.542 183.653 471.364 185.55 469.617 186.804C467.869 188.058 465.694 188.566 463.572 188.217L463.544 188.223Z" fill="black"/>
<path opacity="0.25" d="M491.44 126.233C491.435 130.709 499.554 143.696 499.554 143.696C499.554 143.696 507.662 130.725 507.662 126.255C507.69 125.173 507.502 124.097 507.107 123.09C506.713 122.082 506.121 121.164 505.366 120.389C504.611 119.614 503.709 118.998 502.712 118.578C501.715 118.157 500.644 117.94 499.562 117.94C498.48 117.94 497.409 118.157 496.413 118.578C495.416 118.998 494.513 119.614 493.758 120.389C493.004 121.164 492.411 122.082 492.017 123.09C491.623 124.097 491.434 125.173 491.462 126.255L491.44 126.233Z" fill="black"/>
<path opacity="0.25" d="M458.637 146.246C459.973 150.519 471.586 160.481 471.586 160.481C471.586 160.481 475.45 145.678 474.103 141.406C473.405 139.426 471.965 137.795 470.089 136.856C468.212 135.917 466.043 135.742 464.04 136.37C462.037 136.997 460.356 138.377 459.35 140.219C458.344 142.062 458.093 144.222 458.648 146.246H458.637Z" fill="black"/>
<path opacity="0.25" d="M429.456 170.074C430.052 174.49 439.81 186.285 439.81 186.285C439.81 186.285 446.108 172.349 445.512 167.916C445.394 166.842 445.062 165.803 444.536 164.859C444.01 163.916 443.301 163.086 442.45 162.421C441.599 161.755 440.623 161.267 439.581 160.984C438.538 160.701 437.449 160.629 436.379 160.773C435.308 160.917 434.277 161.273 433.346 161.822C432.415 162.37 431.603 163.099 430.958 163.966C430.313 164.832 429.848 165.819 429.59 166.868C429.332 167.917 429.286 169.007 429.456 170.074Z" fill="black"/>
<path d="M429.698 201.034C429.698 201.034 433.374 163.147 455.265 143.001C464.498 134.605 470.761 123.442 473.115 111.186C474.186 105.36 474.72 99.4475 474.71 93.5236" stroke="#535461" stroke-width="2" stroke-miterlimit="10"/>
<path d="M488.432 80.7403C486.776 84.891 474.39 93.8989 474.39 93.8989C474.39 93.8989 471.73 78.836 473.402 74.6853C474.207 72.6922 475.771 71.1006 477.75 70.2606C479.729 69.4206 481.96 69.401 483.953 70.2062C485.946 71.0113 487.538 72.5752 488.378 74.5538C489.218 76.5325 489.237 78.7637 488.432 80.7568V80.7403Z" fill="#60A5FA"/>
<path d="M491.584 108.735C487.924 111.308 472.652 112.152 472.652 112.152C472.652 112.152 478.602 98.0551 482.261 95.4829C483.129 94.8334 484.118 94.3646 485.171 94.1043C486.223 93.8441 487.317 93.7976 488.387 93.9676C489.458 94.1377 490.484 94.5209 491.403 95.0944C492.323 95.668 493.119 96.4203 493.743 97.3068C494.366 98.1933 494.806 99.1959 495.036 100.255C495.265 101.315 495.279 102.41 495.078 103.475C494.877 104.54 494.464 105.554 493.864 106.457C493.263 107.359 492.488 108.132 491.584 108.73V108.735Z" fill="#60A5FA"/>
<path d="M475.213 147.803C470.753 148.178 457.142 141.179 457.142 141.179C457.142 141.179 469.395 132.017 473.855 131.642C475.997 131.462 478.122 132.14 479.764 133.527C481.405 134.914 482.429 136.896 482.609 139.038C482.789 141.18 482.111 143.305 480.724 144.947C479.337 146.588 477.354 147.612 475.213 147.792V147.803Z" fill="#60A5FA"/>
<path d="M456.165 174.567C451.832 175.671 437.238 171.107 437.238 171.107C437.238 171.107 447.764 160.007 452.097 158.881C454.177 158.341 456.386 158.65 458.239 159.74C460.091 160.829 461.435 162.61 461.974 164.69C462.513 166.77 462.204 168.98 461.115 170.832C460.026 172.684 458.245 174.028 456.165 174.567Z" fill="#60A5FA"/>
<path d="M456.551 106.594C458.361 110.684 471.023 119.289 471.023 119.289C471.023 119.289 473.176 104.143 471.365 100.053C470.463 98.1396 468.849 96.6548 466.866 95.9159C464.884 95.177 462.691 95.2427 460.757 96.099C458.822 96.9553 457.299 98.5341 456.513 100.498C455.728 102.462 455.741 104.656 456.551 106.61V106.594Z" fill="#60A5FA"/>
<path d="M434.672 138.177C437.625 141.538 452.273 145.943 452.273 145.943C452.273 145.943 449.801 130.847 446.848 127.485C446.151 126.669 445.298 125.999 444.34 125.515C443.382 125.03 442.337 124.741 441.266 124.664C440.196 124.587 439.12 124.724 438.102 125.066C437.085 125.408 436.145 125.949 435.339 126.657C434.532 127.366 433.874 128.227 433.403 129.192C432.932 130.157 432.658 131.206 432.596 132.278C432.534 133.349 432.685 134.423 433.041 135.436C433.398 136.448 433.952 137.38 434.672 138.177Z" fill="#60A5FA"/>
<path d="M417.621 171.802C419.962 175.611 433.656 182.427 433.656 182.427C433.656 182.427 433.772 167.132 431.448 163.318C430.291 161.557 428.494 160.316 426.437 159.858C424.381 159.4 422.227 159.761 420.432 160.864C418.637 161.968 417.342 163.727 416.823 165.769C416.303 167.811 416.6 169.975 417.649 171.802H417.621Z" fill="#60A5FA"/>
<path d="M401.549 52.6622C402.465 49.3008 403.569 45.9228 404.341 42.5172C403.414 45.9228 402.305 49.3118 401.549 52.6622Z" fill="url(#paint0_linear_107_1222)"/>
<path d="M397.442 85.04C397.365 84.9075 397.31 84.775 397.249 84.6536C397.249 84.5984 397.194 84.5542 397.172 84.499C397.051 84.5558 396.928 84.6056 396.802 84.6481C396.559 84.7419 396.31 84.8302 396.057 84.902C395.803 84.9737 395.698 85.0124 395.505 85.0565C395.344 85.1117 395.18 85.1542 395.013 85.1835L395.058 85.2828C395.262 85.2387 395.46 85.2 395.665 85.1448L395.72 85.8293C395.952 85.8293 396.167 85.7961 396.377 85.7961C396.476 85.7907 396.575 85.7907 396.675 85.7961C397.105 85.7961 397.481 85.7961 397.779 85.7961C397.663 85.5478 397.541 85.2883 397.442 85.04ZM509.489 263.394C506.895 259.9 501.718 222.4 501.718 222.4C501.718 222.4 491.534 195.735 494.31 185.093C497.087 174.451 486.727 147.223 486.727 147.223C486.727 147.223 479.882 144.248 479.512 139.833C479.512 139.833 451.567 131.001 450.259 124.378C449.199 118.947 431.868 115.05 425.641 113.819C423.743 106.158 421.833 99.01 420.425 95.1077C420.045 93.8933 419.686 92.8446 419.355 92.0167C416.976 85.9452 409.624 85.3932 404.292 85.8789C404.061 84.8441 403.631 83.8638 403.028 82.9922C402.94 82.6925 402.765 82.4256 402.526 82.225C402.411 82.1275 402.289 82.0389 402.161 81.96C402.065 81.7812 401.938 81.6205 401.786 81.4854C401.634 81.3489 401.468 81.2304 401.289 81.1321C401.161 81.0627 401.028 81.0019 400.892 80.95C400.572 80.8281 400.241 80.7376 399.904 80.6795C399.511 80.5987 399.112 80.547 398.711 80.525C399.686 80.0988 400.554 79.4638 401.256 78.6649C401.733 78.104 402.089 77.4498 402.299 76.744C402.474 76.1571 402.552 75.5457 402.531 74.9336C402.388 75.1859 402.222 75.4242 402.034 75.6457C402.266 73.2005 400.974 70.7167 400.235 68.2825C399.339 65.1136 399.173 61.7828 399.749 58.5405C400.489 53.6502 402.321 48.7046 403.563 43.726C403.566 43.6985 403.566 43.6707 403.563 43.6432C404.214 41.1707 404.618 38.6394 404.766 36.0869C404.982 30.9372 403.663 25.7984 401.543 21.1068C399.661 16.9506 396.884 12.8606 392.634 11.1716C389.477 9.89656 385.939 10.1008 382.539 9.89104C374.911 9.41636 367.636 6.73385 360.384 4.2942C353.131 1.85455 345.668 -0.364315 338.035 0.0606913C330.401 0.485698 322.547 4.16725 319.064 10.9232C317.96 13.0317 317.325 15.3775 316.006 17.359C313.534 21.0958 309.107 22.9669 305.414 25.5445C301.722 28.1222 298.471 31.7816 297.135 36.1476C296.405 38.4998 296.303 41.0017 296.837 43.4059C296.957 43.9488 297.112 44.4834 297.3 45.0065C297.824 46.4649 298.641 47.8006 299.701 48.9309C300.501 49.7664 301.42 50.4788 302.428 51.0449C303.694 51.7468 305.05 52.2741 306.457 52.6125C306.408 52.7781 306.358 52.9547 306.303 53.1258C306.215 53.4073 306.137 53.6778 306.054 53.9813C305.872 54.6603 305.701 55.3502 305.558 56.0457C305.552 56.0952 305.552 56.1452 305.558 56.1947C304.88 59.3342 304.539 62.5372 304.542 65.7491C304.541 67.2681 304.618 68.7862 304.774 70.2972C306.982 92.6956 325.472 110.364 348.318 111.512C349.102 111.55 349.891 111.573 350.691 111.573C351.056 111.573 351.414 111.573 351.795 111.573C352.154 112.047 352.507 112.533 352.844 113.008C353.181 113.482 353.49 113.968 353.782 114.443L352.982 113.615L352.182 112.881C351.965 113.178 351.723 113.457 351.458 113.714C350.937 113.531 350.404 113.379 349.863 113.262C347.573 112.754 344.084 112.566 339.492 113.951C335.27 115.215 330.109 117.815 324.07 122.755L294.646 140.418L278.727 150.099L272.992 164.119C272.992 164.119 268.682 180.777 263.885 199.864C263.697 199.919 263.515 199.974 263.333 200.04C262.945 199.996 262.554 199.974 262.163 199.974C259.38 199.967 256.703 201.04 254.694 202.965C252.685 204.891 251.5 207.52 251.389 210.301C241.851 221.892 241.31 233.483 243.551 238.804C243.754 239.303 244.009 239.778 244.313 240.223C245.781 242.342 248.524 247.806 251.306 253.63C251.234 254.11 251.19 254.513 251.168 254.816C251.163 254.916 251.163 255.015 251.168 255.114C251.168 255.114 252.824 280.124 247.304 287.293C246.095 288.855 246.278 290.909 247.304 293.183C251.002 301.363 265.624 312.286 265.624 312.286C265.624 312.286 283.159 312.192 292.929 311.127C292.901 312.109 292.879 313.086 292.857 314.041C292.636 323.69 292.636 331.776 292.636 331.776L292.272 341.893C292.272 341.893 288.96 363.215 287.305 369.093C286.261 372.781 287.465 406.919 288.513 432.017H461.287C463.318 417.169 460.453 372.057 460.453 372.057C460.453 372.057 457.732 360.395 457.633 350.228C457.627 350.216 457.625 350.204 457.625 350.192C457.625 350.179 457.627 350.167 457.633 350.156C457.633 349.267 457.633 348.401 457.666 347.551L458.919 347.506L461.171 347.429H461.375C461.375 347.429 461.43 347.219 461.557 346.877C461.855 346.025 462.262 345.214 462.766 344.465C463.726 343.047 465.228 341.656 467.485 341.562C468.733 341.512 470.665 340.502 472.845 339.012C472.859 339.015 472.874 339.015 472.889 339.012C478.756 335.043 486.511 327.719 488.393 326.516C490.982 324.86 503.379 313.82 503.379 313.82C503.379 313.82 505.228 311.48 507.199 308.66L507.27 308.56C509.721 305.028 512.326 300.805 511.686 299.475C510.582 297.091 512.426 291.389 512.426 291.389C518.183 280.852 512.083 266.888 509.489 263.394ZM402.757 93.6229C402.81 93.7877 402.844 93.9581 402.857 94.1307C402.719 93.9485 402.581 93.7554 402.443 93.5787L402.31 93.4021L402.216 93.2696L402.426 92.9826C402.426 92.9826 402.426 92.9826 402.426 93.0213C402.572 93.2002 402.684 93.404 402.757 93.6229ZM400.903 88.7326C400.301 88.854 399.826 88.9644 399.517 89.0472C399.125 88.3517 398.75 87.6562 398.413 86.9497C399.298 87.4631 400.132 88.0601 400.903 88.7326ZM399.865 89.6046C399.863 89.5937 399.863 89.5825 399.865 89.5715L399.909 89.6046C400.135 89.7537 400.356 89.8972 400.561 90.0462C400.743 90.1787 400.908 90.3056 401.074 90.4381C400.963 90.6313 400.842 90.83 400.721 90.9901C400.527 90.6865 400.345 90.3939 400.169 90.0904C400.058 89.9689 399.959 89.8033 399.865 89.6046ZM396.553 82.7935C397.62 82.6883 398.694 82.6883 399.76 82.7935C399.909 82.7935 400.042 82.8211 400.174 82.8432C400.473 82.8895 400.767 82.9653 401.052 83.0695C401.704 83.982 402.106 85.0497 402.216 86.166L401.918 86.2101L401.626 86.2653C401.074 86.3591 400.522 86.453 400.091 86.5413L399.539 86.6572C398.805 86.8173 398.38 86.9387 398.364 86.9442C398.292 86.7952 398.22 86.6572 398.143 86.5137C398.022 86.2763 397.895 86.0335 397.784 85.7961C397.674 85.5588 397.53 85.2883 397.414 85.04C397.337 84.9075 397.282 84.775 397.221 84.6536C397.221 84.5984 397.166 84.5542 397.144 84.499C397.112 84.4405 397.084 84.3796 397.061 84.3169C396.724 83.6325 396.415 82.948 396.117 82.2747C396.084 82.2084 396.057 82.1367 396.029 82.0704L396.448 82.0428V82.1863L396.553 82.7935ZM264.862 425.194C264.818 416.976 264.222 408.084 262.566 399.738C261.859 396.189 261.131 392.64 260.391 389.152C260.203 388.28 260.021 387.418 259.839 386.557L258.139 386.784H257.985C253.348 364.921 248.502 345.657 248.502 345.657C248.502 345.657 238.876 308.903 239.991 305.972C240.134 305.591 239.952 304.564 239.544 303.057C237.214 294.701 227.489 271.673 224.089 263.802C224.089 263.769 224.061 263.73 224.05 263.703C223.498 262.384 223.101 261.495 222.979 261.236L223.78 249.49L223.824 248.783L223.929 247.282L223.885 247.243L223.929 246.548C223.929 246.548 215.528 239.66 201.299 234.686C200.747 234.488 200.162 234.295 199.582 234.107C200.294 229.355 201.238 223.99 202.469 218.763C202.585 218.238 202.712 217.73 202.844 217.217C202.96 216.704 203.092 216.207 203.225 215.705C203.435 214.888 203.661 214.082 203.893 213.287C204.66 213.044 205.416 212.774 206.161 212.487L206.448 212.376C215.628 208.804 223.202 202.027 227.769 193.3C232.336 184.573 233.585 174.486 231.286 164.908C229.976 159.476 227.555 154.374 224.177 149.922C223.923 149.58 223.653 149.238 223.382 148.901C223.112 148.565 222.786 148.189 222.483 147.847C224.078 144.221 225.96 140.771 226.115 137.244C226.142 136.797 226.142 136.349 226.115 135.903V135.848C225.91 133.579 224.906 131.283 222.566 128.871C219.149 125.333 214.286 123.539 209.423 122.678C204.561 121.817 199.604 121.795 194.714 121.215C186.606 120.244 178.707 117.743 170.599 116.976C160.612 116.051 150.557 117.764 141.439 121.944C135.406 124.704 129.296 129.528 128.932 136.146C128.633 141.616 132.442 146.859 131.482 152.263C130.527 157.573 125.118 161.751 125.592 167.121C125.774 169.219 126.851 171.096 128.197 172.768C128.661 173.32 129.152 173.872 129.66 174.424C131.625 176.505 133.789 178.503 134.887 181.125C134.931 181.235 134.975 181.345 135.014 181.456C135.947 184.044 135.527 187.318 133.22 188.802C133.233 188.812 133.243 188.826 133.248 188.841C133.281 188.885 133.314 188.918 133.342 188.962C133.345 188.954 133.345 188.944 133.342 188.935C134.16 189.905 135.262 190.592 136.493 190.9L136.963 191.043C136.582 191.457 136.223 191.888 135.859 192.34L135.621 192.655C135.013 193.473 134.46 194.33 133.965 195.222C133.684 195.718 133.413 196.215 133.187 196.712C132.431 198.226 131.883 199.836 131.559 201.497C130.968 205.151 131.802 208.96 130.908 212.536C129.804 216.952 126.31 220.341 124.339 224.442C120.608 232.17 122.722 241.238 123.473 249.771C124.494 261.363 122.838 273.003 121.188 284.517C120.312 290.64 119.436 296.769 118.56 302.903C116.352 318.299 114.145 333.695 111.937 349.091C111.131 354.732 110.176 360.682 106.417 365.037H106.456C106.456 365.037 106.456 365.07 106.417 365.081C107.546 365.574 108.746 365.883 109.972 365.997C114.879 366.488 120.078 364.115 124.494 361.521C127.991 359.5 131.302 357.175 134.39 354.571C133.938 356.227 133.452 358.032 132.933 359.975C132.935 359.994 132.935 360.012 132.933 360.03C126.702 383.764 116.678 427.275 116.678 427.275C116.678 427.275 115.767 429.168 114.586 431.989H270.238C268.417 429.781 266.722 427.667 265.397 425.962L264.862 425.194ZM149.613 205.736C149.652 205.67 149.68 205.609 149.718 205.549C149.718 205.725 149.718 205.896 149.718 206.062C149.718 206.228 149.718 206.377 149.718 206.531C149.718 206.686 149.718 206.669 149.718 206.746C149.718 206.973 149.669 207.199 149.63 207.425C149.63 207.425 149.63 207.453 149.63 207.475L150.182 207.679L150.822 207.944C154.605 209.438 158.435 210.79 162.314 212.001C162.711 212.128 163.114 212.249 163.517 212.365L163.6 213.05C163.699 213.751 163.793 214.463 163.881 215.175C163.881 215.175 163.881 215.208 163.881 215.23C164.13 217.2 164.373 219.165 164.588 221.086C164.588 221.086 154.454 217.223 154.581 223.09C154.575 223.195 154.575 223.3 154.581 223.404C154.57 223.544 154.57 223.684 154.581 223.824C154.675 228.394 156.104 231.104 156.391 232.495C156.374 232.553 156.344 232.606 156.303 232.65C156.058 233.183 155.974 233.775 156.06 234.355C156.051 235.343 156.128 236.329 156.292 237.303C155.994 237.485 155.701 237.667 155.409 237.855C155.188 237.993 154.978 238.147 154.763 238.302C153.409 233.605 151.638 229.039 149.47 224.657C147.952 221.533 146.246 218.277 146.263 214.849C146.263 214.628 146.263 214.402 146.291 214.176C146.352 213.182 146.541 212.201 146.854 211.256C146.981 210.897 147.119 210.544 147.273 210.196C147.634 209.37 148.037 208.563 148.482 207.779C148.769 207.26 149.072 206.746 149.365 206.228C149.459 206.073 149.547 205.913 149.635 205.758L149.613 205.736ZM397.442 85.04C397.365 84.9075 397.31 84.775 397.249 84.6536C397.249 84.5984 397.194 84.5542 397.172 84.499C397.051 84.5558 396.928 84.6056 396.802 84.6481C396.559 84.7419 396.31 84.8302 396.057 84.902C395.803 84.9737 395.698 85.0124 395.505 85.0565L395.013 85.1835L395.058 85.2828C395.262 85.2387 395.46 85.2 395.665 85.1448L395.72 85.8293C395.952 85.8293 396.167 85.7961 396.377 85.7961H396.675C397.105 85.7961 397.481 85.7961 397.779 85.7961C397.663 85.5478 397.541 85.2883 397.442 85.04Z" fill="url(#paint1_linear_107_1222)"/>
<path d="M276.839 166.111L273.528 167.574C273.528 167.574 251.941 251.438 251.941 258.216C251.941 264.994 297.714 302.71 297.714 302.71L304.857 254.502C304.857 254.502 294.601 143.95 276.839 166.111Z" fill="#E8F5FF"/>
<path d="M377.246 139.435L358.121 129.456C357.049 124.889 355.148 120.558 352.513 116.678C349.714 112.638 345.994 108.669 341.358 106.599C329.64 101.345 390.923 73.7635 390.923 73.7635C391.889 77.0768 393.025 80.3377 394.329 83.5331C397.486 91.3268 402.724 101.405 409.475 104.276C420.95 109.16 377.246 139.435 377.246 139.435Z" fill="#FFC1C7"/>
<path opacity="0.1" d="M394.329 83.5331C391.71 92.7425 386.265 100.897 378.762 106.844C371.259 112.791 362.077 116.231 352.513 116.678C349.714 112.638 345.994 108.669 341.358 106.599C329.64 101.345 390.923 73.7635 390.923 73.7635C391.889 77.0768 393.025 80.3377 394.329 83.5331Z" fill="black"/>
<path d="M396.051 69.6073C396.053 78.6394 393.377 87.4692 388.36 94.9801C383.344 102.491 376.213 108.345 367.869 111.803C359.525 115.261 350.342 116.166 341.484 114.405C332.625 112.644 324.488 108.295 318.101 101.909C311.714 95.5229 307.364 87.386 305.602 78.5275C303.839 69.669 304.744 60.4869 308.201 52.1424C311.657 43.798 317.511 36.6661 325.021 31.6487C332.531 26.6313 341.361 23.9539 350.393 23.955C356.396 23.9272 362.345 25.089 367.897 27.3734C373.449 29.6577 378.493 33.0193 382.738 37.264C386.983 41.5086 390.345 46.5523 392.63 52.1037C394.915 57.6551 396.078 63.6041 396.051 69.6073Z" fill="#FFC1C7"/>
<path d="M402.641 133.574L390.189 162.629L379.205 181.914H344.046L333.79 155.547L337.947 128.203H364.799L382.136 127.226L387.992 125.272L391.768 127.414L402.641 133.574Z" fill="#575A89"/>
<path opacity="0.1" d="M398.353 94.8427C398.353 94.8427 406.119 96.4986 399.164 102.2C392.209 107.902 368.216 126.034 368.216 126.034C368.216 126.034 376.644 133.54 374.9 142.333L402.824 126.768L407.791 101.864C407.791 101.864 408.349 94.3791 398.353 94.8427Z" fill="black"/>
<path opacity="0.1" d="M373.708 126.034L355.946 128.965C355.946 128.965 359.611 142.515 357.778 146.362C357.723 146.482 357.677 146.606 357.64 146.732L350.393 166.321L355.824 181.704L374.624 156.066L368.216 146.362C368.216 146.362 374.988 137.388 379.018 134.275C383.047 131.161 373.708 126.034 373.708 126.034Z" fill="black"/>
<path d="M373.708 125.278L355.946 128.203C355.946 128.203 359.611 141.754 357.778 145.601C357.723 145.72 357.677 145.844 357.64 145.97L350.393 165.559L355.824 180.942L374.624 155.287L368.216 145.584C368.216 145.584 374.988 136.609 379.018 133.496C383.047 130.383 373.708 125.278 373.708 125.278Z" fill="#DCE6F2"/>
<path d="M399.098 93.3801C399.098 93.3801 406.864 95.0359 399.904 100.738C392.944 106.439 368.216 126.034 368.216 126.034C368.216 126.034 377.373 132.078 375.634 140.865L403.558 125.305L408.525 100.401C408.525 100.401 409.077 92.9164 399.098 93.3801Z" fill="#575A89"/>
<path opacity="0.1" d="M353.732 118.406C353.732 118.406 355.427 121.574 362.906 127.287C362.906 127.287 350.454 133.91 355.217 143.222L336.169 138.254L333.238 129.097L353.732 118.406Z" fill="black"/>
<path d="M352.998 117.677C352.998 117.677 354.693 120.845 362.172 126.558C362.172 126.558 349.72 133.148 354.483 142.488L335.441 137.52L332.51 128.369L352.998 117.677Z" fill="#575A89"/>
<path opacity="0.1" d="M402.641 133.574L390.189 162.629L379.227 181.914H344.046L333.79 155.547L337.941 128.203H345.409C345.288 134.584 347.617 142.079 347.468 144.867C347.214 149.448 354.301 174.164 354.301 174.164C354.301 174.164 369.132 150.176 374.988 148.04C378.67 146.699 386.469 135.538 391.762 127.414L402.641 133.574Z" fill="black"/>
<path d="M451.694 286.471L450.43 288.061C450.43 288.061 459.587 334.022 457.053 344.46C456.623 346.341 456.377 348.26 456.319 350.189V350.272C455.872 360.891 459.079 374.674 459.079 374.674C459.079 374.674 461.64 415.298 460.183 432.006H288.734C287.73 407.3 286.648 375.292 287.63 371.743C289.286 365.887 292.598 344.642 292.598 344.642L292.962 334.574C292.962 334.574 292.962 324.843 293.26 314.003C293.387 309.129 293.575 304.012 293.845 299.475C294.193 293.768 294.679 288.96 295.347 286.598C295.758 284.807 295.995 282.981 296.053 281.145C296.053 280.974 296.053 280.797 296.086 280.62C296.086 280.068 296.141 279.472 296.164 278.86C296.164 278.689 296.164 278.517 296.164 278.308C296.268 274.753 296.23 270.536 296.114 266.165C296.114 265.927 296.114 265.684 296.114 265.442C296.02 262.163 295.882 258.818 295.727 255.639C295.247 245.704 294.624 237.303 294.624 237.303L273.566 167.535L279.241 153.56L294.988 143.912L324.104 126.332C338.305 114.658 347.656 116.06 351.221 117.341C351.567 117.459 351.907 117.597 352.237 117.754C352.347 117.81 352.435 117.854 352.518 117.904C352.632 117.957 352.741 118.02 352.844 118.091C351.868 118.561 351.019 119.26 350.371 120.128C349.641 121.116 349.121 122.243 348.842 123.44C348.656 124.181 348.525 124.936 348.45 125.697C348.379 126.497 348.351 127.325 348.351 128.159C348.39 129.987 348.547 131.81 348.82 133.618C348.82 133.651 348.82 133.695 348.82 133.739C349.002 135.031 349.229 136.295 349.449 137.481C349.447 137.502 349.447 137.522 349.449 137.542C349.703 138.928 349.957 140.208 350.128 141.312C350.161 141.511 350.189 141.693 350.217 141.864C350.338 142.593 350.396 143.332 350.388 144.072C350.45 145.858 350.69 147.633 351.105 149.371C351.249 150.099 351.414 150.877 351.597 151.689C351.845 152.793 352.115 153.996 352.408 155.221C352.568 155.895 352.739 156.59 352.916 157.28C352.982 157.556 353.054 157.832 353.12 158.114L353.23 158.55C354.406 163.225 355.681 167.878 356.465 170.693C356.928 172.349 357.221 173.37 357.221 173.37C357.221 173.37 365.533 159.93 372.168 152.279C372.267 152.169 372.356 152.064 372.449 151.965C373.106 151.209 373.752 150.519 374.37 149.912C375.723 148.565 376.937 147.604 377.914 147.251C378.122 147.175 378.323 147.08 378.515 146.97C381.231 145.43 385.614 139.838 389.715 133.982C390.118 133.43 390.509 132.828 390.907 132.26C391.818 130.946 392.701 129.627 393.534 128.363C394.174 127.397 394.787 126.459 395.367 125.565C398.126 121.27 400.069 118.069 400.069 118.069L403.9 117.898L404.568 117.865H405.015L422.407 117.059C422.407 117.059 423.158 117.186 424.394 117.434C424.46 117.434 424.527 117.434 424.598 117.479C430.769 118.704 447.913 122.584 448.962 127.966C450.242 134.556 477.895 143.349 477.895 143.349C478.26 147.764 485.032 150.673 485.032 150.673C485.032 150.673 495.287 177.774 492.544 188.394C489.834 198.881 499.598 224.823 499.858 225.552L497.986 227.914L451.694 286.471Z" fill="#E8F5FF"/>
<path opacity="0.1" d="M398.347 92.9164C398.347 92.9164 415.276 88.1144 419.123 98C422.97 107.886 431.575 147.809 431.575 147.809C431.575 147.809 409.232 152.02 403.375 147.809C399.94 145.309 395.689 144.197 391.47 144.696L378.835 153.301L375.104 152.197C375.104 152.197 395.317 122.148 399.71 111.937C404.104 101.726 405.589 97.161 398.347 92.9164Z" fill="black"/>
<path d="M397.613 90.7086C397.613 90.7086 414.553 85.9065 418.416 95.7921C422.28 105.678 430.869 145.601 430.869 145.601C430.869 145.601 408.531 149.812 402.669 145.601C399.236 143.101 394.986 141.989 390.769 142.488L378.124 151.093L374.392 149.989C374.392 149.989 394.605 119.94 398.999 109.729C403.392 99.5178 404.855 94.9641 397.613 90.7086Z" fill="#E8F5FF"/>
<path opacity="0.1" d="M283.982 249.976C283.982 249.976 296.616 253.089 299 260.231C301.385 267.373 289.661 267.556 289.661 267.556C289.661 267.556 282.519 254.921 283.982 249.976Z" fill="black"/>
<path opacity="0.1" d="M331.042 302.71C331.042 302.71 300.099 366.069 307.241 372.113C314.384 378.157 331.042 302.71 331.042 302.71Z" fill="black"/>
<path opacity="0.1" d="M373.708 256.02C373.708 256.02 398.43 317.563 393.484 327.068C388.539 336.572 404.104 327.068 404.104 327.068L373.708 256.02Z" fill="black"/>
<path d="M408.133 316.812C408.133 316.812 324.633 320.841 348.991 346.844C373.349 372.847 423.334 347.948 423.334 347.948L408.133 316.812Z" fill="#FFC1C7"/>
<path opacity="0.1" d="M396.051 69.6073C396.059 75.5961 394.882 81.5274 392.59 87.0602C391.823 87.1485 391.056 87.2037 390.316 87.2368C389.212 84.8137 389.803 82.0153 389.825 79.3493C389.847 76.6834 388.865 73.5483 386.298 72.8307C381.181 71.3901 377.649 80.9555 372.604 79.2279C368.74 77.9142 369.75 72.0525 367.526 68.669C365.765 65.992 362.238 65.2358 359.495 63.5578C353.661 59.9756 353.837 54.2463 351.127 48.8261C348.29 43.1465 342.296 44.8244 337.091 48.1748C333.139 50.7248 329.728 54.1415 325.5 56.1727C321.84 57.9389 317.728 58.5792 313.671 58.673C311.174 58.7698 308.675 58.5058 306.253 57.8892C309.102 47.1779 315.75 37.8685 324.957 31.6971C334.164 25.5256 345.301 22.9135 356.291 24.3478C367.282 25.7821 377.375 31.1649 384.69 39.4924C392.005 47.8199 396.041 58.5235 396.045 69.6073H396.051Z" fill="black"/>
<path d="M337.108 46.7121C333.15 49.2621 329.745 52.6732 325.517 54.7155C321.857 56.4762 317.745 57.1165 313.688 57.2103C308.721 57.3207 303.372 56.4486 299.978 52.8609C296.859 49.5491 296.114 44.4546 297.433 40.1107C298.752 35.7668 301.915 32.1625 305.63 29.5518C309.344 26.941 313.655 25.1361 316.117 21.3994C317.419 19.4233 318.049 17.0941 319.13 14.9911C322.591 8.26278 330.374 4.61987 337.897 4.16726C345.42 3.71466 352.877 5.9556 360.042 8.38421C367.206 10.8128 374.426 13.4843 381.987 13.9866C385.354 14.1963 388.854 13.9866 391.978 15.2616C396.178 16.9671 398.932 21.0461 400.809 25.1968C402.912 29.8774 404.22 34.9885 403.999 40.0996C403.536 51.0118 396.327 61.7198 399.495 72.1739C400.334 74.9612 401.907 77.8204 401.068 80.6078C399.843 84.6757 394.594 85.603 390.349 85.7962C389.246 83.3731 389.836 80.5691 389.858 77.9087C389.88 75.2483 388.898 72.1076 386.337 71.3901C381.215 69.9605 377.682 79.5094 372.648 77.7873C368.812 76.4681 369.806 70.6118 367.576 67.2283C365.815 64.5458 362.282 63.7952 359.545 62.1172C353.711 58.535 353.887 52.8057 351.177 47.3855C348.318 41.6782 342.318 43.3562 337.108 46.7121Z" fill="#99607E"/>
<path d="M256.141 256.748L251.93 258.216C251.93 258.216 253.585 283.121 248.066 290.263C242.546 297.405 266.192 315.162 266.192 315.162C266.192 315.162 298.603 314.98 299.519 312.402C300.436 309.824 297.863 266.258 297.863 266.258C297.863 266.258 280.466 259.48 281.928 248.679C281.928 248.679 276.619 274.129 268.748 273.031C260.877 271.933 251.941 265.359 256.141 256.748Z" fill="#E8F5FF"/>
<path opacity="0.1" d="M270.188 280.736C276.325 280.736 281.299 276.187 281.299 270.575C281.299 264.963 276.325 260.413 270.188 260.413C264.052 260.413 259.077 264.963 259.077 270.575C259.077 276.187 264.052 280.736 270.188 280.736Z" fill="black"/>
<path d="M282.337 257.482C282.337 257.482 280.129 190.099 260.91 205.113C241.691 220.126 241.503 238.081 245.163 243.385C248.822 248.69 260.557 275.244 260.557 275.244C262.392 276.308 264.454 276.922 266.572 277.035C268.691 277.149 270.806 276.759 272.745 275.897C274.683 275.036 276.39 273.727 277.726 272.078C279.061 270.43 279.987 268.488 280.427 266.413L282.337 257.482Z" fill="#FFC1C7"/>
<path opacity="0.1" d="M402.227 86.8007C402.138 86.5047 401.965 86.2404 401.731 86.039C400.781 85.1724 398.739 84.8689 395.659 85.1338L395.786 86.591C399.893 86.2377 400.704 87.0546 400.809 87.1926V87.3306L400.936 87.5127C401.448 88.2009 401.81 88.9884 402.001 89.8248C402.191 90.6612 402.204 91.5281 402.04 92.37C401.14 96.8684 395.615 100.451 395.56 100.489L395.427 100.567L395.344 100.693C392.96 104.232 379.476 114.216 375.949 116.8L375.64 116.446C374.061 117.815 360.185 129.964 359.434 134.617C358.948 137.537 355.659 138.668 354.467 138.983C353.208 138.028 349.124 134.777 346.999 131.134C345.006 127.706 353.026 121.017 353.732 118.406L352.629 117.274C352.513 117.694 342.213 127.32 345.078 132.238C347.374 136.184 351.569 139.562 353.037 140.677C352.568 144.938 349.648 169.959 345.161 175.887C339.586 183.255 334.9 220.391 335.419 233.356C335.877 244.876 332.868 266.634 322.823 275.978C321.084 277.667 318.986 278.941 316.685 279.706C314.385 280.47 311.941 280.706 309.537 280.394H309.416H309.294C309.151 280.394 294.579 281.884 282.337 271.563C272.319 263.134 266.645 249.38 265.464 230.668H265.221L265.121 225.22C267.838 224.797 270.284 223.336 271.946 221.147C273.608 218.957 274.357 216.208 274.035 213.478C273.713 210.748 272.345 208.249 270.219 206.506C268.093 204.763 265.374 203.912 262.634 204.131C259.894 204.351 257.345 205.624 255.524 207.683C253.703 209.743 252.75 212.428 252.867 215.174C252.984 217.921 254.161 220.515 256.151 222.412C258.141 224.309 260.788 225.361 263.537 225.347H263.659L263.758 230.762L263.272 230.795C264.487 250.114 270.448 264.404 280.935 273.23C288.906 279.835 299.088 283.167 309.421 282.552C310.155 282.632 310.892 282.673 311.629 282.674C316.366 282.698 320.923 280.865 324.324 277.568C334.905 267.716 338.123 245.157 337.621 233.246C337.069 219.508 341.987 183.708 346.921 177.189C351.756 170.792 354.687 145.866 355.201 141.036C356.95 140.545 360.908 138.994 361.581 134.964C362.067 132.05 371.334 123.07 377.036 118.097L376.865 117.898C379.934 115.657 389.477 108.592 394.207 104.055C395.676 102.647 397.133 101.24 398.656 99.8987C400.489 98.2759 402.818 95.6983 403.431 92.6515C403.639 91.6457 403.641 90.6079 403.434 89.6018C403.227 88.5956 402.816 87.6424 402.227 86.8007Z" fill="black"/>
<path d="M352.849 140.33C352.618 140.169 347.12 136.234 344.366 131.498C341.507 126.58 351.806 116.96 351.917 116.54L353.02 117.672C352.319 120.277 344.3 126.972 346.292 130.394C348.804 134.716 354.091 138.497 354.146 138.536L352.849 140.33Z" fill="#353146"/>
<path d="M375.231 117.87L374.37 116.684C374.547 116.557 391.884 104.016 394.616 99.9593L394.704 99.8379L394.831 99.7551C394.886 99.7165 400.411 96.1398 401.311 91.6358C401.477 90.7949 401.465 89.9285 401.274 89.0927C401.084 88.257 400.721 87.4705 400.207 86.7841L400.08 86.5965V86.464C399.97 86.3205 399.158 85.5091 395.052 85.8624L394.925 84.3997C398.01 84.1347 400.047 84.4383 400.997 85.3049C401.233 85.5082 401.407 85.7742 401.499 86.0721C402.096 86.9113 402.514 87.8639 402.729 88.8711C402.943 89.8783 402.949 90.9188 402.746 91.9284C402.134 94.9807 399.81 97.5583 397.972 99.1756C396.454 100.517 394.991 101.935 393.529 103.332C387.981 108.647 375.838 117.434 375.231 117.87Z" fill="#E8F5FF"/>
<path d="M264.409 223.299L262.947 223.326L263.11 232.216L264.572 232.189L264.409 223.299Z" fill="#E8F5FF"/>
<path d="M262.825 224.646C268.724 224.646 273.505 219.865 273.505 213.966C273.505 208.067 268.724 203.286 262.825 203.286C256.927 203.286 252.145 208.067 252.145 213.966C252.145 219.865 256.927 224.646 262.825 224.646Z" fill="#60A5FA"/>
<path d="M262.825 222.836C267.724 222.836 271.695 218.865 271.695 213.966C271.695 209.067 267.724 205.096 262.825 205.096C257.927 205.096 253.955 209.067 253.955 213.966C253.955 218.865 257.927 222.836 262.825 222.836Z" fill="#E8F5FF"/>
<path d="M310.934 281.962C310.196 281.963 309.459 281.924 308.726 281.846C298.393 282.454 288.214 279.123 280.24 272.523C269.752 263.692 263.802 249.418 262.577 230.083L264.785 229.945C265.966 248.657 271.64 262.417 281.664 270.84C293.906 281.134 308.472 279.671 308.616 279.671H308.737H308.859C311.263 279.981 313.707 279.745 316.008 278.981C318.309 278.216 320.408 276.943 322.15 275.255C332.19 265.911 335.198 244.153 334.74 232.633C334.188 219.657 338.874 182.521 344.454 175.158C349.339 168.706 352.369 139.623 352.402 139.33L352.485 138.503L353.302 138.359C353.352 138.359 358.121 137.454 358.717 133.888C359.49 129.241 373.344 117.092 374.917 115.718L376.357 117.374C370.633 122.341 361.366 131.327 360.902 134.247C360.229 138.287 356.272 139.833 354.527 140.318C353.975 145.154 351.067 170.074 346.248 176.472C341.314 182.99 336.396 218.79 336.948 232.528C337.422 244.44 334.237 267.004 323.656 276.851C320.249 280.156 315.681 281.991 310.934 281.962Z" fill="#353146"/>
<g opacity="0.1">
<path d="M400.754 56.5591C401.659 53.2142 402.752 49.8473 403.513 46.4583C402.603 49.8638 401.504 53.2142 400.754 56.5591Z" fill="black"/>
<path d="M391.519 82.8432C390.416 80.4201 391.006 77.6162 391.028 74.9558C391.05 72.2953 390.068 69.1823 387.507 68.4371C382.385 67.0076 378.852 76.5619 373.818 74.8343C369.954 73.5151 370.976 67.6589 368.746 64.2754C366.985 61.5929 363.458 60.8422 360.72 59.1643C354.881 55.5821 355.057 49.8528 352.353 44.4325C349.51 38.7474 343.521 40.4253 338.311 43.7812C334.353 46.3313 330.948 49.7479 326.72 51.7846C323.06 53.5453 318.948 54.1856 314.891 54.2794C309.951 54.3954 304.575 53.5177 301.181 49.93C298.564 47.1702 297.621 43.1244 298.161 39.3325C298.068 39.5919 297.985 39.8513 297.902 40.1107C296.577 44.4546 297.35 49.5602 300.447 52.8609C303.841 56.4486 309.217 57.3207 314.157 57.2103C318.22 57.1165 322.326 56.4762 325.991 54.7155C330.23 52.6733 333.636 49.2622 337.582 46.7121C342.793 43.3562 348.787 41.6783 351.624 47.3634C354.329 52.7836 354.157 58.513 359.992 62.0952C362.751 63.751 366.256 64.5238 368.023 67.2063C370.23 70.6008 369.253 76.446 373.095 77.7652C378.123 79.4873 381.656 69.9385 386.778 71.368C389.339 72.0856 390.327 75.2317 390.3 77.8866C390.272 80.5416 389.698 83.351 390.791 85.7741C395.035 85.5809 400.284 84.6702 401.515 80.5857C401.685 79.9995 401.763 79.3908 401.747 78.7808C399.953 81.8773 395.339 82.6721 391.519 82.8432Z" fill="black"/>
</g>
<path opacity="0.1" d="M491.275 218.845L497.683 225.623C497.683 225.623 502.81 262.974 505.371 266.468C507.933 269.962 513.982 283.86 508.302 294.298C508.302 294.298 506.47 299.977 507.568 302.356C508.667 304.735 499.333 316.641 499.333 316.641C499.333 316.641 487.063 327.625 484.496 329.275C481.93 330.926 468.385 344.106 463.809 344.289C459.233 344.471 457.738 350.15 457.738 350.15L431.917 351.067C431.917 351.067 417.655 350.321 414.553 352.336C414.553 352.336 416.208 330.545 400.273 316.26L420.596 308.936C420.596 308.936 428.291 305.624 430.67 302.163C432.166 300.042 434.289 298.442 436.741 297.588C436.741 297.588 442.415 293.558 442.597 291.361C442.78 289.165 449.536 286.471 449.536 286.471L445.711 253.823L447.725 199.621C447.725 199.621 454.133 154.206 467.684 156.772C481.234 159.339 491.275 218.845 491.275 218.845Z" fill="black"/>
<path d="M493.483 218.845L499.891 225.623C499.891 225.623 505.018 262.974 507.58 266.468C510.141 269.962 516.19 283.86 510.51 294.298C510.51 294.298 508.683 299.977 509.782 302.356C510.88 304.735 501.541 316.641 501.541 316.641C501.541 316.641 489.271 327.625 486.704 329.275C484.138 330.926 470.593 344.106 466.017 344.289C461.441 344.471 459.946 350.15 459.946 350.15L434.125 351.067C434.125 351.067 419.852 350.321 416.761 352.336C416.761 352.336 418.416 330.545 402.481 316.26L422.804 308.936C422.804 308.936 430.499 305.624 432.878 302.163C434.374 300.042 436.497 298.442 438.949 297.588C438.949 297.588 444.623 293.558 444.805 291.361C444.988 289.165 451.744 286.471 451.744 286.471L447.919 253.823L449.933 199.621C449.933 199.621 456.341 154.206 469.892 156.772C483.442 159.339 493.483 218.845 493.483 218.845Z" fill="#E8F5FF"/>
<path opacity="0.1" d="M469.66 273.599C469.66 273.599 488.52 268.632 493.466 274.703C498.411 280.775 469.66 273.599 469.66 273.599Z" fill="black"/>
<path opacity="0.1" d="M465.266 281.928C471.675 286.416 491.451 286.598 491.451 286.598L465.266 281.928Z" fill="black"/>
<path opacity="0.1" d="M474.97 304.36C475.522 304.542 488.564 318.463 494.04 314.251C499.515 310.04 474.97 304.36 474.97 304.36Z" fill="black"/>
<path opacity="0.1" d="M299.315 187.533C299.315 187.533 303.146 213.905 301.258 224.646C299.37 235.387 306.259 248.695 306.259 248.695L299.315 187.533Z" fill="black"/>
<path d="M214.512 198.257C210.097 201.718 206.873 209.909 204.539 218.912C200.465 234.615 199.135 252.824 199.135 252.824C199.135 252.824 163.975 244.765 166.536 241.106C168.148 238.804 165.984 221.462 164.18 208.888C163.103 201.459 162.143 195.691 162.143 195.691C162.143 195.691 226.6 188.731 214.512 198.257Z" fill="#FFCCD0"/>
<path opacity="0.1" d="M214.512 197.523C210.097 200.989 206.873 209.175 204.539 218.177C197.533 220.305 190.083 220.496 182.978 218.733C175.873 216.969 169.377 213.315 164.18 208.159C163.103 200.725 162.143 194.957 162.143 194.957C162.143 194.957 226.6 188.002 214.512 197.523Z" fill="black"/>
<path d="M233.412 177.796C233.415 187.397 230.022 196.689 223.834 204.028C217.645 211.367 209.059 216.281 199.596 217.898C190.133 219.516 180.403 217.734 172.128 212.867C163.852 208.001 157.566 200.364 154.38 191.307C151.194 182.251 151.315 172.36 154.721 163.384C158.126 154.408 164.598 146.927 172.99 142.263C181.381 137.6 191.152 136.056 200.573 137.904C209.993 139.753 218.457 144.874 224.464 152.362C230.254 159.575 233.41 168.547 233.412 177.796Z" fill="#FFCCD0"/>
<path opacity="0.1" d="M265.469 432.006H253.878L252.901 411.534L251.88 390.344C251.88 390.344 254.513 389.952 258.708 389.367L260.402 389.141H260.54C261.456 393.44 262.362 397.856 263.234 402.266C264.685 410.095 265.441 418.038 265.491 426C265.491 426.552 265.491 427.104 265.491 427.623C265.524 429.097 265.491 430.571 265.469 432.006Z" fill="black"/>
<path d="M263.245 432.006H117.881C118.511 430.576 118.93 429.709 118.93 429.709C118.93 429.709 130.56 378.83 136.471 357.304C136.473 357.285 136.473 357.267 136.471 357.249C137.21 354.324 138.102 351.441 139.143 348.61C139.21 348.418 139.297 348.233 139.402 348.058C142.328 343.301 145.992 338.173 140.865 330.848C135.737 323.524 137.553 291.295 137.553 291.295C137.553 291.295 143.779 263.824 150.37 249.175C151.37 246.906 152.789 244.846 154.553 243.104C155.127 242.543 155.739 242.023 156.386 241.547C156.877 241.178 157.39 240.837 157.92 240.526L158.025 240.46C160.794 238.89 163.868 237.936 167.039 237.662C169.291 237.426 171.564 237.489 173.8 237.849C184.486 239.417 193.041 242.039 199.841 245.025C218.271 253.122 223.852 263.973 223.962 264.2L224.006 264.293C224.746 266.021 235.564 291.279 239.461 303.063C240.471 306.132 241.023 308.29 240.802 308.881C239.698 311.806 249.225 348.428 249.225 348.428C249.225 348.428 253.641 366.091 258.056 386.795C258.249 387.656 258.432 388.517 258.608 389.389C259.398 393.148 260.181 396.978 260.937 400.803C262.403 408.687 263.158 416.685 263.195 424.703C263.276 427.202 263.292 429.636 263.245 432.006Z" fill="#FF748E"/>
<path opacity="0.1" d="M166.172 225.066C166.172 225.066 156.143 221.202 156.265 227.064C156.386 232.926 158.71 235.73 157.976 236.585C157.241 237.441 158.34 242.568 158.34 242.568C158.34 242.568 171.89 242.568 178.117 245.372C184.343 248.176 207.293 253.795 210.224 255.506C213.155 257.217 224.023 264.89 224.023 264.89L225 250.362C225 250.362 213.767 241.084 195.338 236.326C176.908 231.568 166.172 225.066 166.172 225.066Z" fill="black"/>
<path d="M166.172 224.332C166.172 224.332 156.143 220.468 156.265 226.33C156.386 232.192 158.71 234.996 157.976 235.851C157.241 236.707 158.34 241.834 158.34 241.834C158.34 241.834 171.89 241.834 178.117 244.644C184.343 247.453 207.293 253.067 210.224 254.772C213.155 256.478 224.023 264.155 224.023 264.155L225.011 249.672C225.011 249.672 213.778 240.394 195.349 235.636C176.919 230.878 166.172 224.332 166.172 224.332Z" fill="#FF748E"/>
<path opacity="0.1" d="M196.447 259.293C196.447 259.293 215.611 280.041 214.634 285.787C213.657 291.533 196.447 259.293 196.447 259.293Z" fill="black"/>
<path opacity="0.1" d="M165.316 334.243C165.316 334.243 151.269 347.186 147.129 347.92C142.99 348.655 150.303 351.094 155.061 349.146C159.819 347.197 169.964 342.07 169.964 342.07L165.316 334.243Z" fill="black"/>
<path d="M268.952 432.005H236.193C231.612 428.031 227.279 424.35 224.519 422.136C220.104 418.593 216.919 413.377 214.888 409.182C214.43 408.227 214.032 407.333 213.696 406.522C213.093 405.124 212.562 403.696 212.106 402.244L236.364 387.838C237.705 388.978 238.965 390.21 240.134 391.525L240.427 391.862C241.774 393.451 242.96 395.256 243.065 396.735C243.187 398.458 247.978 405.12 252.873 411.517C257.841 418.024 262.93 424.245 263.267 424.664C263.267 424.664 264.106 425.807 265.475 427.562C266.441 428.832 267.633 430.355 268.952 432.005Z" fill="#FFCCD0"/>
<path opacity="0.1" d="M224.464 152.362C223.3 154.989 222.256 157.716 222.102 160.641C221.666 169.086 222.372 187.969 213.022 192.208C208.391 194.294 203.435 189.713 198.357 189.603C194.703 189.525 191.352 191.844 189.122 194.741C186.892 197.639 185.507 201.078 183.89 204.356C182.418 207.332 180.722 210.192 178.817 212.912C178.248 213.744 177.621 214.535 176.941 215.28C171.239 212.874 166.162 209.198 162.097 204.533C158.031 199.868 155.084 194.337 153.48 188.36C151.875 182.383 151.657 176.119 152.84 170.045C154.024 163.971 156.578 158.248 160.309 153.311C164.039 148.373 168.847 144.353 174.367 141.555C179.887 138.758 185.972 137.257 192.16 137.168C198.347 137.079 204.474 138.403 210.072 141.04C215.67 143.677 220.593 147.557 224.464 152.384V152.362Z" fill="black"/>
<path d="M221.368 159.151C220.926 167.596 221.638 186.479 212.283 190.712C207.652 192.798 202.695 188.223 197.617 188.112C193.963 188.03 190.618 190.353 188.383 193.246C186.147 196.138 184.773 199.582 183.15 202.866C181.678 205.842 179.982 208.702 178.078 211.421C176.941 213.033 175.682 214.65 173.933 215.556C170.886 217.145 167.193 216.251 163.926 215.23C159.687 213.894 155.51 212.389 151.396 210.715C151.491 210.094 151.539 209.467 151.54 208.838C151.418 209.07 151.286 209.285 151.153 209.517L150.894 209.97C150.425 210.798 149.967 211.626 149.547 212.476C149.387 212.801 149.233 213.138 149.095 213.475C148.54 214.728 148.191 216.062 148.062 217.427C147.781 221.108 149.597 224.602 151.209 227.914C157.407 240.725 161.238 255.705 156.574 269.145C154.553 274.99 151.054 280.184 148.499 285.831C144.031 295.832 142.716 306.956 144.729 317.723C146.004 324.413 148.559 331.036 147.93 337.82C146.826 349.493 136.758 358.181 126.674 364.153C121.226 367.366 114.559 370.225 108.774 367.686C112.461 363.381 113.411 357.425 114.205 351.806C116.38 336.48 118.56 321.147 120.746 305.806C121.618 299.701 122.488 293.597 123.357 287.492C124.98 276.023 126.624 264.426 125.609 252.884C124.869 244.379 122.783 235.349 126.47 227.649C128.418 223.57 131.89 220.192 132.972 215.799C133.861 212.227 133.033 208.43 133.618 204.792C133.938 203.138 134.48 201.533 135.229 200.024C136.184 197.975 137.429 196.075 138.928 194.383C137.448 193.952 136.068 193.361 135.229 192.125C137.603 190.58 137.962 187.097 136.885 184.48C135.809 181.864 133.656 179.872 131.719 177.807C129.782 175.743 127.916 173.336 127.673 170.521C127.204 165.162 132.558 161.011 133.502 155.724C134.457 150.342 130.681 145.109 130.985 139.662C131.338 133.077 137.388 128.291 143.36 125.515C152.372 121.343 162.328 119.629 172.216 120.547C180.264 121.309 188.052 123.798 196.077 124.764C200.918 125.316 205.825 125.371 210.632 126.221C215.44 127.071 220.258 128.865 223.642 132.392C232.562 141.693 221.876 149.348 221.368 159.151Z" fill="#FFE0D0"/>
<path opacity="0.1" d="M213.905 409.188C211.09 407.968 205.968 408.696 197.175 406.019C188.383 403.342 186.688 391.243 186.688 391.243V391.205C186.583 390.929 185.767 389.129 180.236 382.826C174.126 375.866 160.917 340.712 160.917 340.712C160.917 340.712 149.205 328.133 149.575 323.496C149.945 318.86 147.494 306.524 147.737 292.725C147.98 278.926 174.104 269.774 174.104 269.774C224.403 260.86 212.558 318.849 211.217 323.242C209.876 327.636 216.836 339.503 216.836 339.503C215.854 344.669 220.865 352.667 220.865 352.667C220.865 352.667 222.08 359.743 222.328 362.431C222.342 362.555 222.37 362.678 222.411 362.796C223.217 365.329 229.785 367.625 232.457 369.022C235.266 370.49 244.302 383.306 244.302 383.306C246.25 392.717 216.709 410.424 213.905 409.188Z" fill="black"/>
<path d="M215.368 406.98C212.559 405.754 207.431 406.489 198.644 403.806C189.857 401.124 188.157 389.036 188.157 389.036V388.997C188.057 388.716 187.235 386.922 181.704 380.618C175.594 373.658 162.386 338.499 162.386 338.499C162.386 338.499 150.673 325.925 151.038 321.289C151.402 316.652 148.962 304.316 149.205 290.528C149.448 276.74 175.555 267.594 175.555 267.594C225.855 258.68 214.01 316.669 212.669 321.062C211.328 325.456 218.288 337.323 218.288 337.323C217.305 342.489 222.317 350.487 222.317 350.487C222.317 350.487 223.532 357.563 223.785 360.251C223.795 360.376 223.821 360.498 223.863 360.615C224.669 363.149 231.237 365.445 233.914 366.842C236.718 368.304 245.759 381.126 245.759 381.126C247.718 390.52 218.178 408.227 215.368 406.98Z" fill="#FF748E"/>
<path opacity="0.1" d="M176.549 297.869C176.549 297.869 198.522 321.051 204.257 321.051C209.992 321.051 176.549 297.869 176.549 297.869Z" fill="black"/>
<path d="M215.368 406.98C212.559 405.754 207.431 406.489 198.644 403.806C189.857 401.124 188.156 389.036 188.156 389.036V388.997C193.98 385.133 208.728 374.221 214.54 370.231C218.63 367.432 221.969 363.32 223.923 360.593C224.729 363.127 231.297 365.423 233.974 366.819C236.778 368.282 245.819 381.104 245.819 381.104C247.718 390.52 218.177 408.227 215.368 406.98Z" fill="#FF748E"/>
<g opacity="0.1">
<path d="M135.263 192.186C135.29 192.23 135.329 192.269 135.362 192.313C135.528 192.103 135.699 191.893 135.876 191.695C135.688 191.877 135.482 192.042 135.263 192.186Z" fill="black"/>
<path d="M148.068 217.487C148.3 214.424 149.939 211.725 151.474 209.031C150.469 208.645 149.464 208.253 148.471 207.845C148.566 207.226 148.613 206.6 148.614 205.974C147.063 208.733 145.374 211.449 145.137 214.557C144.856 218.244 146.672 221.732 148.283 225.044C154.487 237.849 158.312 252.829 153.648 266.275C151.623 272.115 148.129 277.314 145.573 282.961C141.107 292.96 139.794 304.083 141.809 314.847C143.073 321.542 145.634 328.16 145.005 334.944C143.901 346.618 133.839 355.306 123.749 361.272C119.626 363.712 114.807 365.947 110.198 365.787C109.772 366.474 109.296 367.129 108.774 367.747C114.564 370.302 121.226 367.427 126.674 364.203C136.769 358.242 146.854 349.576 147.958 337.88C148.587 331.097 146.026 324.479 144.756 317.784C142.741 307.02 144.05 295.898 148.51 285.897C151.049 280.256 154.581 275.051 156.585 269.211C161.249 255.766 157.418 240.786 151.22 227.98C149.613 224.646 147.786 221.175 148.068 217.487Z" fill="black"/>
<path d="M223.631 132.459C223.088 131.902 222.505 131.385 221.887 130.913C228.576 139.59 218.917 146.964 218.437 156.303C218.006 164.748 218.713 183.636 209.357 187.864C204.732 189.956 199.77 185.375 194.697 185.264C191.038 185.187 187.693 187.511 185.457 190.403C183.222 193.295 181.848 196.739 180.23 200.018C178.755 202.993 177.058 205.853 175.152 208.573C174.049 210.191 172.757 211.802 171.002 212.713C167.966 214.297 164.273 213.409 161 212.382C157.817 211.381 154.664 210.277 151.54 209.07C151.533 209.645 151.485 210.219 151.396 210.787C155.514 212.465 159.692 213.97 163.931 215.302C167.199 216.328 170.891 217.217 173.933 215.633C175.682 214.722 176.952 213.105 178.083 211.488C179.99 208.771 181.686 205.913 183.156 202.938C184.779 199.659 186.147 196.21 188.388 193.317C190.629 190.425 193.969 188.107 197.623 188.184C202.701 188.295 207.663 192.876 212.288 190.784C221.644 186.556 220.932 167.668 221.368 159.223C221.876 149.404 232.561 141.754 223.631 132.459Z" fill="black"/>
</g>
<path opacity="0.1" d="M150.899 209.975C150.43 210.803 149.972 211.631 149.553 212.481C149.393 212.807 149.238 213.144 149.1 213.48C146.208 210.566 139.165 203.639 135.235 201.492C136.19 199.444 137.436 197.544 138.933 195.851C138.933 195.851 148.3 200.802 150.899 209.975Z" fill="black"/>
<path d="M151.159 209.523C148.99 199.704 138.933 194.388 138.933 194.388C137.435 196.08 136.189 197.98 135.235 200.029C139.38 202.298 147.019 209.904 149.553 212.481L151.159 209.523Z" fill="#FF748E"/>
</g>
<defs>
<linearGradient id="paint0_linear_107_1222" x1="402.945" y1="52.6622" x2="402.945" y2="42.5172" gradientUnits="userSpaceOnUse">
<stop stop-color="#808080" stop-opacity="0.25"/>
<stop offset="0.54" stop-color="#808080" stop-opacity="0.12"/>
<stop offset="1" stop-color="#808080" stop-opacity="0.1"/>
</linearGradient>
<linearGradient id="paint1_linear_107_1222" x1="310.658" y1="432.006" x2="310.658" y2="-1.91778e-05" gradientUnits="userSpaceOnUse">
<stop stop-color="#808080" stop-opacity="0.25"/>
<stop offset="0.54" stop-color="#808080" stop-opacity="0.12"/>
<stop offset="1" stop-color="#808080" stop-opacity="0.1"/>
</linearGradient>
<clipPath id="clip0_107_1222">
<rect width="599.497" height="432" fill="white"/>
</clipPath>
</defs>
</svg>
