<svg width="1920" height="419" viewBox="0 0 1920 419" fill="none" xmlns="http://www.w3.org/2000/svg">
<g opacity="0.3">
<path d="M648.673 418.379C639.202 418.379 629.983 418.037 621.124 417.355C602.543 415.924 585.378 412.986 570.102 408.623C553.684 403.934 539.284 397.545 527.299 389.634C503.212 373.733 491.161 354.69 479.506 336.274C477.216 332.658 474.849 328.919 472.445 325.291C456.045 300.563 435.255 278.903 408.892 259.072C356.303 219.514 282.344 185.754 195.009 161.442C94.0064 133.327 -14.5879 119.321 -110.772 122.007C-167.304 123.586 -241.999 138.601 -275.382 164.245C-295.193 179.464 -296.791 196.353 -279.999 213.085L-280.332 213.155C-289.137 204.381 -292.973 195.584 -291.731 187.01C-290.591 179.144 -285.198 171.456 -275.697 164.157C-260.587 152.549 -235.668 142.261 -203.633 134.404C-174.032 127.145 -141.063 122.682 -110.794 121.837C-60.4578 120.433 -6.92279 123.549 48.3233 131.101C98.4032 137.948 147.82 148.107 195.199 161.295C282.586 185.621 356.589 219.399 409.208 258.981C435.585 278.825 456.386 300.497 472.797 325.239C475.204 328.867 477.571 332.607 479.857 336.224C491.502 354.626 503.545 373.656 527.6 389.533C550.862 404.89 582.351 414.194 621.186 417.183C674.966 421.325 740.274 412.663 795.879 394.011C876.011 367.133 931.624 328.011 985.408 290.179C994.836 283.547 1004.58 276.69 1014.23 270.069C1039.29 252.875 1073.22 230.595 1113.55 210.746C1154.77 190.458 1196.65 175.552 1241.6 165.174C1269.12 158.822 1298.28 154.543 1328.27 152.455C1355.97 150.526 1385.3 150.406 1415.43 152.097C1467.11 154.997 1522.78 163.191 1585.64 177.144C1709.42 204.621 1833.05 237.972 1953.12 276.273C2067.25 312.676 2179.18 353.869 2285.8 398.703L2285.55 398.828C2064.53 305.888 1828.99 231.354 1585.48 177.296C1447.91 146.755 1338.69 142.95 1241.77 165.324C1143.17 188.086 1074.29 229.162 1014.54 270.162C1004.89 276.781 995.143 283.638 985.716 290.27C931.917 328.116 876.286 367.25 796.099 394.146C770.187 402.838 741.036 409.618 711.801 413.751C696.357 415.934 681.005 417.362 666.166 417.995C660.252 418.253 654.415 418.379 648.673 418.379Z" fill="#F5F5DC"/>
<path d="M657.934 408.949C633.781 408.949 611.408 406.836 591.414 402.666C569.118 398.016 549.878 390.811 534.226 381.251C532.841 380.405 531.466 379.529 530.14 378.647C506.309 362.815 493.723 344.02 481.555 325.843C479.093 322.169 476.55 318.37 473.971 314.683C458.607 292.729 440.108 273.38 417.409 255.533C414.613 253.336 411.719 251.134 408.799 248.989C355.436 209.771 280.877 176.439 193.182 152.595C91.4503 124.959 -17.4517 111.533 -113.464 114.791C-169.586 116.715 -243.936 131.976 -277.462 157.423C-297.537 172.661 -299.809 189.584 -284.039 206.364L-284.376 206.431C-292.642 197.636 -296.038 188.823 -294.466 180.238C-293.023 172.354 -287.41 164.649 -277.777 157.336C-262.513 145.748 -237.667 135.448 -205.933 127.55C-176.602 120.251 -143.776 115.66 -113.497 114.622C-63.2227 112.917 -9.62903 115.735 45.793 122.998C95.9937 129.577 145.645 139.487 193.365 152.45C281.111 176.307 355.711 209.66 409.107 248.9C412.027 251.046 414.925 253.25 417.721 255.449C440.434 273.308 458.945 292.667 474.315 314.632C476.898 318.319 479.441 322.119 481.903 325.794C494.068 343.959 506.643 362.741 530.441 378.551C531.763 379.43 533.137 380.305 534.519 381.15C566.865 400.91 611.309 408.949 658.047 408.949C658.304 408.949 658.557 408.949 658.813 408.949C658.52 408.947 658.227 408.949 657.934 408.949ZM667.904 408.831C711.355 407.806 756.192 400.134 794.657 388.721C877.629 364.002 937.261 325.823 994.932 288.901C997.307 287.379 999.681 285.86 1002.06 284.342C1007.27 281.008 1013.45 277.062 1019.76 273.084C1048.06 255.244 1082.32 234.486 1121.77 215.802C1163.74 195.921 1205.68 181.168 1249.97 170.698C1277.18 164.272 1305.94 159.745 1335.44 157.243C1362.78 154.925 1391.67 154.27 1421.3 155.295C1472.49 157.068 1527.53 163.789 1589.57 175.843C1650.06 187.577 1699.78 198.623 1746.05 210.604C1811.59 227.595 1874.02 247.171 1926.45 264.079C2048.34 303.501 2167.93 348.264 2281.91 397.127L2281.66 397.25C2167.69 348.394 2048.11 303.634 1926.24 264.217C1873.82 247.311 1811.4 227.738 1745.87 210.753C1699.62 198.774 1649.91 187.732 1589.43 176.001C1454.29 149.741 1346.47 148.103 1250.14 170.849C1150.15 194.483 1078.95 236.065 1020.06 273.185C1013.74 277.163 1007.57 281.108 1002.35 284.443C999.978 285.96 997.604 287.48 995.229 289.002C937.539 325.935 877.885 364.128 794.855 388.866C774.267 394.974 752.359 399.826 729.738 403.286C708.681 406.503 687.924 408.363 667.904 408.831Z" fill="#F5F5DC"/>
<path d="M668.145 399.736C665.24 399.736 662.352 399.707 659.487 399.648C635.356 399.158 613.024 396.614 593.113 392.084C571.338 387.129 552.472 379.791 537.043 370.27C535.672 369.422 534.306 368.545 532.987 367.662C509.423 351.908 496.314 333.364 483.64 315.432C480.998 311.695 478.265 307.829 475.495 304.079C459.373 282.199 440.386 263.005 417.442 245.399C414.602 243.222 411.664 241.038 408.699 238.91C354.563 200.034 279.403 167.129 191.35 143.753C88.8926 116.598 -20.3173 103.749 -116.161 107.579C-170.124 109.769 -244.259 124.16 -279.507 150.578C-299.871 165.841 -302.835 182.81 -288.08 199.649L-288.421 199.711C-296.152 190.889 -299.102 182.056 -297.196 173.456C-295.445 165.547 -289.597 157.821 -279.818 150.491C-264.392 138.93 -239.627 128.627 -208.197 120.692C-179.142 113.357 -146.466 108.641 -116.194 107.412C-65.9783 105.407 -12.326 107.926 43.2682 114.899C93.5935 121.212 143.476 130.871 191.533 143.609C279.638 167 354.838 199.923 409.007 238.821C411.971 240.951 414.914 243.134 417.753 245.315C440.708 262.931 459.706 282.137 475.835 304.028C478.605 307.781 481.339 311.646 483.98 315.384C496.651 333.305 509.75 351.836 533.284 367.572C534.603 368.454 535.962 369.329 537.332 370.174C600.027 408.859 711.135 404.705 793.433 383.431C879.867 360.89 944.101 323.426 1006.22 287.196L1006.86 286.824C1012.87 283.312 1019.1 279.682 1025.29 276.098C1090.63 238.286 1162.45 199.426 1258.33 176.219C1285.25 169.717 1313.62 164.942 1342.63 162.028C1369.61 159.318 1398.07 158.127 1427.19 158.491C1477.97 159.124 1532.37 164.373 1593.51 174.539C1657.76 185.184 1706.12 194.968 1750.29 206.267C1813.23 222.397 1874.19 242.779 1927.98 260.763C2047.74 301.018 2165.51 346.366 2278.03 395.544L2277.77 395.665C2165.27 346.492 2047.51 301.149 1927.76 260.897C1873.98 242.917 1813.03 222.538 1750.11 206.413C1705.95 195.118 1657.62 185.337 1593.39 174.695C1460.86 152.661 1354.45 153.191 1258.5 176.365C1162.68 199.558 1090.89 238.4 1025.57 276.199C1019.38 279.783 1013.16 283.415 1007.14 286.925L1006.51 287.297C975.549 305.351 943.541 324.02 908.974 340.696C870.128 359.435 832.392 373.461 793.609 383.574C753.033 394.062 708.834 399.736 668.145 399.736Z" fill="#F5F5DC"/>
<path d="M2273.89 394.077C2162.85 344.588 2046.91 298.663 1929.29 257.578C1924.31 255.85 1919.32 254.114 1914.31 252.374C1863.37 234.659 1810.69 216.343 1754.36 202.073C1699.71 188.268 1644.32 179.827 1597.35 173.39C1467.69 155.515 1362.69 158.213 1266.88 181.88C1168.54 206.248 1092.33 246.705 1031.1 279.214C1027.43 281.166 1023.76 283.12 1020.09 285.076C1017.37 286.521 1014.66 287.965 1011.94 289.408C977.081 307.937 945.368 324.503 910.329 339.62C870.3 356.888 831.718 369.535 792.37 378.284C755.495 386.485 716.103 390.823 679.463 390.825C672.787 390.825 666.21 390.682 659.747 390.39C636.151 389.328 614.306 386.343 594.82 381.518C573.558 376.254 555.066 368.775 539.849 359.29C538.49 358.44 537.134 357.561 535.822 356.677C512.537 341.005 498.918 322.722 485.75 305.042C482.914 301.233 479.979 297.294 477.011 293.471C460.12 271.66 440.642 252.619 417.471 235.259C414.587 233.099 411.601 230.936 408.596 228.826C353.684 190.291 277.926 157.814 189.517 134.905C86.3347 108.229 -23.1792 95.961 -118.854 100.358C-184.261 103.424 -251.144 121.246 -281.504 143.696C-302.187 158.991 -305.855 176.013 -292.118 192.923L-292.463 192.982C-299.655 184.128 -302.162 175.268 -299.912 166.646C-297.842 158.708 -291.752 150.957 -281.815 143.607C-266.229 132.08 -241.544 121.776 -210.429 113.813C-181.652 106.448 -149.145 101.609 -118.891 100.192C-68.734 97.8853 -15.0268 100.106 40.7396 106.79C91.1859 112.837 141.306 122.246 189.7 134.756C278.165 157.68 353.962 190.175 408.908 228.733C411.916 230.845 414.902 233.01 417.786 235.17C440.972 252.54 460.457 271.591 477.359 293.412C480.327 297.237 483.262 301.174 486.098 304.984C499.259 322.655 512.871 340.926 536.126 356.58C537.438 357.462 538.79 358.339 540.146 359.188C605.596 399.987 716.84 394.891 792.212 378.131C882.138 358.134 950.953 321.564 1011.67 289.297C1014.38 287.853 1017.1 286.408 1019.81 284.965C1023.48 283.009 1027.15 281.055 1030.83 279.103C1065.78 260.547 1100.29 242.515 1138.24 225.898C1181.87 206.788 1223.9 192.342 1266.71 181.732C1293.35 175.151 1321.31 170.129 1349.82 166.808C1376.47 163.702 1404.48 161.978 1433.09 161.681C1483.54 161.159 1537.31 164.937 1597.46 173.229C1644.45 179.668 1699.86 188.113 1754.54 201.926C1810.89 216.201 1863.58 234.523 1914.54 252.241C1919.54 253.981 1924.54 255.717 1929.52 257.445C2047.14 298.533 2163.1 344.463 2274.15 393.958L2273.89 394.077Z" fill="#F5F5DC"/>
<path d="M2270.01 392.491C2158.33 341.739 2044.22 295.229 1930.82 254.257C1924.04 251.806 1917.1 249.279 1910.38 246.836C1862.31 229.341 1812.6 211.249 1758.61 197.732C1704.69 184.282 1648.84 177.218 1601.31 172.083C1474.81 158.283 1371.2 163.149 1275.26 187.395C1183.75 210.606 1112.05 245.509 1042.72 279.263L1035.1 282.968C1029.09 285.896 1022.87 288.921 1016.74 291.889C947.34 325.449 877.863 356.903 791.132 372.99C770.086 376.895 748.475 379.6 726.894 381.036C703.719 382.576 681.208 382.598 659.982 381.1C636.928 379.472 615.578 376.053 596.525 370.936C575.79 365.369 557.668 357.754 542.667 348.306C541.315 347.451 539.971 346.571 538.67 345.688C515.671 330.109 501.561 312.095 487.916 294.674C484.871 290.786 481.72 286.766 478.54 282.862C460.864 261.119 440.903 242.232 417.512 225.12C414.588 222.982 411.558 220.835 408.505 218.743C352.82 180.55 276.465 148.5 187.693 126.057C83.7814 99.8646 -26.0404 88.1741 -121.55 93.1422C-186.36 96.5851 -252.939 114.532 -283.453 136.786C-304.48 152.12 -308.874 169.208 -296.159 186.203L-296.508 186.259C-303.161 177.366 -305.217 168.472 -302.619 159.826C-300.223 151.854 -293.88 144.073 -283.768 136.699C-268.012 125.21 -243.416 114.917 -212.631 106.93C-184.139 99.538 -151.808 94.5833 -121.594 92.9772C-71.4962 90.3711 -17.734 92.292 38.2083 98.6861C88.7791 104.467 139.13 113.626 187.865 125.911C276.689 148.366 353.087 180.435 408.806 218.65C411.858 220.744 414.892 222.893 417.816 225.031C441.221 242.151 461.194 261.048 478.877 282.803C482.057 286.707 485.208 290.729 488.253 294.617C501.89 312.028 515.993 330.033 538.967 345.594C540.264 346.473 541.608 347.352 542.957 348.207C606.832 388.439 712.964 387.309 790.989 372.836C877.651 356.761 947.098 325.319 1016.47 291.775C1022.6 288.807 1028.82 285.781 1034.83 282.854L1042.45 279.148C1076.48 262.58 1111.67 245.447 1149.89 229.509C1193.18 211.458 1234.13 197.635 1275.08 187.247C1301.44 180.584 1329.01 175.314 1357 171.587C1383.32 168.082 1410.9 165.822 1438.97 164.871C1489.21 163.169 1542.33 165.476 1601.39 171.918C1648.94 177.057 1704.82 184.122 1758.77 197.584C1812.8 211.106 1862.52 229.203 1910.61 246.703C1917.32 249.146 1924.26 251.671 1931.05 254.124C2044.45 295.1 2158.58 341.613 2270.26 392.37L2270.01 392.491Z" fill="#F5F5DC"/>
<path d="M2266.12 390.905C2155.41 339.589 2043.11 292.497 1932.35 250.939C1924.03 247.816 1915.49 244.568 1907.24 241.429C1861.76 224.122 1814.73 206.226 1762.85 193.395C1709.19 180.176 1653.08 174.545 1605.27 170.78C1482.28 160.947 1380.07 167.981 1283.63 192.914C1199.47 214.765 1130.37 245.732 1063.54 275.678C1056.51 278.83 1049.24 282.088 1042.15 285.244C1033.83 288.951 1027.47 291.768 1021.54 294.374C989.769 308.324 951.942 324.387 912.246 337.747C870.179 351.904 830.157 361.702 789.89 367.702C768.715 370.857 747.196 372.847 725.927 373.615C703.089 374.44 680.977 373.834 660.209 371.812C637.708 369.622 616.856 365.768 598.225 360.359C578.021 354.493 560.276 346.742 545.481 337.325C544.147 336.471 542.81 335.589 541.513 334.703C518.818 319.228 504.235 301.492 490.129 284.34C486.857 280.362 483.475 276.249 480.063 272.254C461.593 250.572 441.144 231.839 417.544 214.982C414.576 212.862 411.502 210.736 408.406 208.66C351.947 170.809 274.992 139.187 185.861 117.21C81.2272 91.4992 -28.9023 80.3895 -124.244 85.925C-178.493 89.1439 -249.348 103.973 -285.351 129.842C-306.756 145.223 -311.893 162.388 -300.201 179.481L-300.549 179.531C-306.665 170.594 -308.262 161.661 -305.302 152.98C-302.568 144.968 -295.962 137.153 -285.659 129.751C-269.735 118.31 -245.23 108.033 -214.786 100.03C-186.58 92.6154 -154.443 87.5479 -124.288 85.7583C-74.2482 82.8525 -20.4274 84.4738 35.6834 90.5783C86.3752 96.0936 136.961 105.003 186.033 117.062C275.215 139.051 352.215 170.691 408.707 208.564C411.803 210.64 414.88 212.77 417.848 214.891C441.459 231.757 461.919 250.499 480.401 272.192C483.815 276.189 487.197 280.301 490.469 284.28C504.565 301.423 519.144 319.149 541.813 334.607C543.11 335.491 544.444 336.372 545.778 337.224C598.917 371.053 690.133 382.386 789.776 367.539C880.014 354.094 953.624 323.961 1021.29 294.25C1027.22 291.643 1033.57 288.827 1041.89 285.12C1048.98 281.963 1056.25 278.705 1063.28 275.554C1096.18 260.811 1130.2 245.567 1166.49 231.292C1207.52 215.148 1245.78 202.545 1283.46 192.764C1309.57 186.013 1336.73 180.496 1364.19 176.368C1390.2 172.457 1417.35 169.664 1444.87 168.063C1494.98 165.151 1547.47 165.984 1605.34 170.61C1653.17 174.378 1709.31 180.011 1763.02 193.242C1814.93 206.081 1861.98 223.982 1907.47 241.294C1915.72 244.434 1924.26 247.681 1932.58 250.804C2043.35 292.367 2155.66 339.463 2266.38 390.782L2266.12 390.905Z" fill="#F5F5DC"/>
<path d="M2262.24 389.319C2152.48 337.436 2042.01 289.76 1933.87 247.619C1924.67 244.035 1915.23 240.272 1906.09 236.634C1862.56 219.304 1817.56 201.384 1767.09 189.056C1713.39 175.995 1657.16 171.828 1609.23 169.474C1491.81 163.553 1388.04 173.025 1292 198.43C1215.53 218.75 1149.98 245.934 1086.58 272.224C1073.78 277.534 1060.54 283.026 1047.67 288.26C1039.79 291.464 1032.82 294.277 1026.33 296.859C996.173 308.856 956.055 324.239 913.186 336.81C870.112 349.44 829.372 357.815 788.639 362.413C744.213 367.428 699.874 367.465 660.42 362.523C638.484 359.773 618.126 355.487 599.912 349.782C580.248 343.621 562.88 335.736 548.286 326.347C546.964 325.491 545.637 324.608 544.348 323.722C521.975 308.365 506.938 290.92 492.399 274.051C488.882 269.97 485.247 265.751 481.579 261.652C462.299 240.027 441.363 221.445 417.572 204.849C414.561 202.748 411.442 200.64 408.302 198.583C351.07 161.074 273.518 129.878 184.028 108.37C78.6723 83.1426 -31.765 72.612 -126.942 78.7148C-191.443 82.9405 -255.846 100.685 -287.195 122.867C-309.011 138.304 -314.906 155.558 -304.244 172.766L-304.595 172.811C-310.168 163.819 -311.304 154.839 -307.974 146.122C-304.896 138.065 -298.007 130.209 -287.503 122.775C-271.41 111.387 -247.001 101.135 -216.912 93.1243C-189.003 85.6948 -157.067 80.5162 -126.993 78.5465C-77.012 75.341 -23.1325 76.6643 33.1505 82.4776C83.9668 87.7268 134.787 96.387 184.196 108.219C273.737 129.74 351.334 160.952 408.603 198.485C411.743 200.543 414.861 202.652 417.876 204.755C441.678 221.361 462.625 239.951 481.916 261.586C485.584 265.685 489.219 269.906 492.736 273.987C507.268 290.848 522.297 308.284 544.648 323.626C545.938 324.512 547.26 325.392 548.583 326.247C600.81 359.858 690.516 373.316 788.551 362.25C877.924 352.16 955.535 324.798 1026.09 296.733C1032.57 294.151 1039.55 291.339 1047.42 288.135C1060.29 282.901 1073.53 277.411 1086.33 272.101C1149.74 245.806 1215.31 218.615 1291.82 198.287C1317.7 191.44 1344.46 185.677 1371.37 181.155C1397.1 176.832 1423.81 173.503 1450.75 171.262C1500.84 167.096 1552.7 166.458 1609.27 169.309C1657.22 171.665 1713.5 175.833 1767.26 188.909C1817.76 201.246 1862.78 219.173 1906.33 236.51C1915.47 240.148 1924.91 243.909 1934.11 247.493C2042.25 289.637 2152.74 337.317 2262.5 389.203L2262.24 389.319Z" fill="#F5F5DC"/>
<path d="M2258.35 387.733C2149.58 335.278 2040.92 287.021 1935.4 244.301C1925.71 240.375 1915.73 236.218 1906.09 232.198C1864.15 214.721 1820.78 196.648 1771.33 184.717C1717.41 171.767 1661.13 169.085 1613.19 168.17C1500.21 165.853 1397.88 177.555 1300.38 203.946C1231.99 222.543 1171.04 246.079 1112.08 268.839C1091.81 276.665 1072.66 284.058 1053.19 291.275C1045.27 294.213 1038.05 296.853 1031.13 299.343C986.446 315.395 949.271 327.001 914.133 335.867C870.051 346.99 828.596 353.943 787.398 357.122C771.415 358.354 755.491 358.969 739.857 358.969C712.142 358.969 685.325 357.043 660.637 353.228C615.958 346.323 579.105 333.584 551.101 315.363C549.782 314.499 548.467 313.616 547.192 312.733C525.16 297.509 509.701 280.374 494.752 263.801C490.964 259.603 487.05 255.262 483.104 251.042C463 229.467 441.572 211.041 417.61 194.709C414.554 192.626 411.392 190.537 408.208 188.498C350.203 151.331 272.049 120.562 182.2 99.5215C76.1227 74.7786 -34.6187 64.8255 -129.63 71.4957C-194.399 76.1372 -256.944 93.545 -288.964 115.845C-311.223 131.345 -317.899 148.703 -308.277 166.042L-308.633 166.084C-313.656 157.03 -314.323 147.996 -310.611 139.233C-307.174 131.122 -299.997 123.222 -289.268 115.753C-273.007 104.427 -248.704 94.2083 -218.981 86.198C-191.373 78.7568 -159.661 73.4772 -129.685 71.329C-79.7631 67.8239 -25.825 68.8475 30.6266 74.3712C81.5675 79.3561 132.618 87.7671 182.368 99.37C272.269 120.424 350.466 151.21 408.508 188.399C411.692 190.439 414.854 192.529 417.914 194.613C441.891 210.953 463.329 229.39 483.441 250.973C487.387 255.193 491.304 259.535 495.089 263.734C510.031 280.298 525.482 297.427 547.496 312.637C548.771 313.518 550.082 314.402 551.401 315.264C603.694 349.292 689.689 364.487 787.335 356.953C880.288 349.781 962.619 323.739 1030.9 299.208C1037.82 296.718 1045.04 294.08 1052.96 291.142C1072.43 283.925 1091.58 276.534 1111.85 268.707C1170.81 245.942 1231.78 222.403 1300.19 203.8C1325.88 196.847 1352.24 190.837 1378.56 185.934C1404.05 181.187 1430.32 177.323 1456.64 174.453C1506.84 168.979 1558.06 166.868 1613.21 168C1661.19 168.915 1717.51 171.601 1771.5 184.566C1820.99 196.505 1864.37 214.586 1906.33 232.07C1915.98 236.09 1925.95 240.247 1935.64 244.171C2041.16 286.894 2149.83 335.156 2258.61 387.616L2258.35 387.733Z" fill="#F5F5DC"/>
<path d="M2254.47 386.148C2145.15 332.369 2041.28 284.885 1936.93 240.981C1926.97 236.793 1917.17 232.515 1906.79 227.986C1866.22 210.282 1824.26 191.977 1775.58 180.379C1720.98 167.434 1662.23 166.357 1617.15 166.865C1509.31 167.922 1408.43 181.857 1308.75 209.465C1248.94 226.11 1193.72 246.099 1140.32 265.431C1112.25 275.591 1085.74 285.186 1058.71 294.292C1050.68 296.998 1043.23 299.462 1035.92 301.828C990.63 316.468 952.231 326.983 915.071 334.923C869.967 344.559 827.797 350.09 786.152 351.83C764.754 352.724 743.503 352.556 722.988 351.33C701.268 350.032 680.361 347.543 660.85 343.931C617.603 335.926 581.626 322.621 553.915 304.383C552.607 303.518 551.303 302.632 550.035 301.75C528.373 286.683 512.526 269.874 497.2 253.62C493.111 249.283 488.883 244.798 484.629 240.437C463.681 218.91 441.771 200.637 417.643 184.574C414.539 182.51 411.333 180.439 408.113 178.419C349.335 141.593 270.584 111.253 180.375 90.6781C97.1143 71.7669 11.2515 61.8997 -67.4847 61.8997C-89.7436 61.8997 -111.416 62.6876 -132.32 64.2819C-196.308 69.2584 -258.461 86.7285 -290.668 108.79C-313.399 124.362 -320.885 141.838 -312.315 159.324L-312.674 159.361C-317.148 150.237 -317.334 141.141 -313.231 132.327C-309.427 124.157 -301.938 116.206 -290.975 108.695C-274.546 97.4409 -250.356 87.2639 -221.015 79.262C-193.318 71.708 -162.669 66.4705 -132.385 64.1169C-82.5218 60.3121 -28.5251 61.0377 28.0987 66.2702C79.1605 70.9874 130.449 79.1476 180.537 90.5249C270.796 111.111 349.595 141.469 408.41 178.316C411.634 180.337 414.844 182.409 417.947 184.475C442.086 200.546 464.008 218.827 484.966 240.365C489.22 244.725 493.452 249.21 497.541 253.549C512.86 269.797 528.699 286.598 550.343 301.654C551.611 302.535 552.915 303.42 554.219 304.284C606.04 338.387 690.561 355.654 786.123 351.66C882.82 347.618 970.302 322.83 1035.72 301.686C1043.02 299.321 1050.47 296.856 1058.5 294.152C1085.53 285.05 1112.03 275.453 1140.1 265.295C1193.51 245.961 1248.73 225.967 1308.56 209.317C1359.89 195.103 1410.25 184.744 1462.53 177.646C1512.96 170.801 1563.54 167.219 1617.15 166.693C1647.74 166.348 1672.7 166.948 1695.69 168.577C1725.38 170.682 1751.57 174.491 1775.75 180.226C1824.48 191.834 1866.46 210.149 1907.05 227.861C1917.43 232.39 1927.23 236.666 1937.18 240.855C2041.54 284.76 2145.42 332.248 2254.74 386.03L2254.47 386.148Z" fill="#F5F5DC"/>
<path d="M2250.58 384.562C2142.27 330.194 2040.17 282.144 1938.45 237.661C1928.39 233.261 1918.47 228.727 1907.97 223.927C1868.61 205.943 1827.91 187.345 1779.82 176.039C1724.77 163.155 1666.09 163.67 1621.11 165.557C1519.35 169.68 1419.91 185.847 1317.12 214.979C1266.48 229.402 1218.26 245.907 1171.63 261.871C1134.76 274.489 1099.95 286.408 1064.23 297.302C1056.16 299.767 1048.24 302.124 1040.71 304.306C995.335 317.444 954.544 327.147 916.009 333.968C869.868 342.137 826.984 346.248 784.907 346.534C763.498 346.679 742.331 345.79 722.006 343.889C700.7 341.896 680.196 338.78 661.063 334.625C619.3 325.556 584.195 311.685 556.726 293.397C555.436 292.533 554.139 291.646 552.875 290.759C531.62 275.874 515.429 259.421 499.769 243.51C495.339 239.008 490.755 234.351 486.15 229.824C464.345 208.337 441.947 190.219 417.676 174.431C414.529 172.385 411.279 170.333 408.014 168.331C348.463 131.847 269.111 101.934 178.544 81.8261C71.0268 58.0545 -40.3338 49.2597 -135.016 57.0612C-198.176 62.3559 -259.915 79.8715 -292.301 101.682C-315.546 117.337 -323.863 134.943 -316.359 152.6L-316.718 152.632C-320.632 143.429 -320.331 134.262 -315.821 125.388C-311.633 117.15 -303.825 109.142 -292.605 101.586C-276.015 90.4121 -251.946 80.2857 -223 72.3006C-195.622 64.7483 -165.222 59.4215 -135.082 56.8945C-85.2731 52.7918 -31.2214 53.216 25.571 58.1589C76.7574 62.6135 128.277 70.5245 178.701 81.6729C269.324 101.791 348.719 131.723 408.304 168.229C411.572 170.23 414.826 172.284 417.973 174.332C442.258 190.128 464.664 208.255 486.479 229.75C491.089 234.277 495.669 238.934 500.102 243.438C515.755 259.342 531.939 275.788 553.179 290.663C554.443 291.548 555.74 292.435 557.026 293.297C609.393 328.16 690.32 347.009 784.899 346.362C861.642 345.841 942.866 332.43 1040.52 304.159C1048.04 301.978 1055.95 299.622 1064.02 297.158C1099.73 286.265 1134.55 274.349 1171.4 261.731C1218.04 245.766 1266.27 229.257 1316.93 214.831C1368.75 200.142 1418.3 189.024 1468.42 180.837C1519.18 172.544 1569.12 167.488 1621.08 165.384C1666.1 163.493 1724.85 162.979 1779.99 175.884C1828.13 187.204 1868.85 205.81 1908.23 223.802C1918.73 228.602 1928.65 233.134 1938.71 237.533C2040.43 282.018 2142.53 330.071 2250.85 384.443L2250.58 384.562Z" fill="#F5F5DC"/>
<path d="M2246.7 382.976C2139.39 328.017 2039.07 279.398 1939.98 234.343C1929.93 229.769 1919.99 225.016 1909.48 219.984C1871.24 201.679 1831.69 182.751 1784.07 171.7C1728.5 158.863 1669.91 160.976 1625.08 164.25C1529.32 171.111 1434.13 188.983 1325.5 220.496C1284.75 232.368 1244.93 245.392 1206.43 257.987C1159.66 273.283 1115.49 287.733 1069.75 300.317C1061.51 302.587 1053.35 304.765 1045.51 306.789C999.317 318.698 957.265 327.278 916.949 333.015C894.368 336.229 872.076 338.557 850.693 339.936C827.884 341.406 805.332 341.845 783.663 341.243C739.698 340.019 698.522 334.662 661.281 325.321C621.061 315.234 586.832 300.799 559.546 282.415C558.263 281.544 556.977 280.655 555.721 279.773C534.92 265.108 518.439 249.045 502.504 233.513C497.679 228.811 492.692 223.949 487.676 219.218C464.992 197.766 442.107 179.801 417.712 164.294C414.52 162.265 411.223 160.232 407.918 158.25C347.593 122.106 267.644 92.6207 176.718 72.9822C68.4825 49.6972 -43.1822 41.4815 -137.707 49.847C-238.918 58.9432 -337.542 98.2454 -320.395 145.881L-320.758 145.908C-325.048 133.992 -322.535 122.253 -313.29 111.013C-304.848 100.749 -290.995 91.0887 -272.114 82.304C-254.56 74.1354 -233.499 67.0831 -209.522 61.3422C-186.717 55.8825 -161.908 51.8487 -137.78 49.6803C-88.0299 45.2779 -33.9196 45.4041 23.045 50.0574C74.356 54.2478 126.11 61.9096 176.872 72.8307C267.849 92.4827 347.846 121.985 408.207 158.149C411.516 160.132 414.813 162.166 418.008 164.196C442.414 179.71 465.311 197.685 488.006 219.146C493.022 223.876 498.009 228.738 502.834 233.442C518.765 248.969 535.239 265.025 556.028 279.682C557.281 280.564 558.564 281.453 559.846 282.322C612.289 317.653 691.784 338.517 783.685 341.076C861.487 343.239 947.071 331.978 1045.33 306.644C1053.17 304.621 1061.32 302.444 1069.56 300.174C1115.29 287.593 1159.46 273.145 1206.22 257.85C1244.73 245.254 1284.55 232.228 1325.3 220.354C1433.98 188.828 1529.21 170.949 1625.02 164.084C1655.14 161.883 1680.08 161.18 1703.52 161.871C1733.47 162.755 1759.87 165.92 1784.23 171.548C1831.9 182.611 1871.47 201.551 1909.74 219.866C1920.25 224.897 1930.18 229.649 1940.24 234.222C2039.33 279.28 2139.66 327.901 2246.96 382.863L2246.7 382.976Z" fill="#F5F5DC"/>
<path d="M2242.81 381.39C2136.53 325.831 2037.97 276.647 1941.51 231.023C1931.53 226.302 1921.67 221.358 1911.23 216.12C1874.02 197.465 1835.54 178.173 1788.31 167.36C1731.53 154.415 1670.22 158.639 1629.04 162.942C1517.27 174.478 1417.11 201.297 1333.87 226.013C1303.96 234.932 1274.12 244.38 1245.25 253.517C1187.36 271.845 1132.68 289.157 1075.28 303.333C1066.83 305.418 1058.44 307.417 1050.31 309.274C1003.22 320.013 959.904 327.468 917.899 332.06C870.282 337.268 824.705 338.577 782.426 335.951C738.992 333.252 698.307 326.545 661.506 316.015C622.905 304.971 589.552 289.972 562.365 271.434C561.097 270.564 559.818 269.674 558.569 268.788C538.285 254.392 521.599 238.77 505.459 223.662C500.171 218.711 494.701 213.593 489.205 208.612C465.297 186.891 442.591 169.589 417.753 154.157C414.518 152.147 411.18 150.134 407.827 148.169C346.722 112.369 266.172 83.3107 174.887 64.1369C65.9335 41.3401 -46.0391 33.7019 -140.402 42.6314C-241.976 52.3706 -338.586 91.1392 -324.435 139.162L-324.798 139.184C-328.308 127.27 -325.271 115.542 -315.773 104.328C-307.068 94.0534 -293.133 84.3831 -274.352 75.5883C-256.838 67.3861 -235.887 60.2816 -212.078 54.4683C-189.409 48.9329 -164.647 44.7829 -140.476 42.4647C-90.7805 37.7626 -36.6152 37.5909 20.5179 41.9529C71.9535 45.8789 123.942 53.2915 175.041 63.9837C266.381 83.1676 346.975 112.242 408.109 148.065C411.462 150.031 414.803 152.046 418.042 154.056C442.895 169.495 465.609 186.806 489.527 208.536C495.023 213.517 500.494 218.637 505.781 223.588C521.917 238.691 538.6 254.308 558.869 268.697C560.119 269.583 561.394 270.472 562.661 271.342C615.511 307.376 693.573 330.262 782.47 335.784C862.199 340.737 949.754 332.015 1050.14 309.122C1058.27 307.267 1066.67 305.27 1075.1 303.184C1132.49 289.012 1187.16 271.704 1245.05 253.377C1273.91 244.24 1303.75 234.791 1333.67 225.869C1389.64 209.251 1436.2 196.973 1480.19 187.231C1531.98 175.762 1580.64 167.764 1628.95 162.777C1658.41 159.7 1684.08 158.306 1707.43 158.518C1737.51 158.791 1764.02 161.632 1788.47 167.208C1835.77 178.035 1874.26 197.339 1911.49 216.006C1921.94 221.241 1931.8 226.186 1941.77 230.903C2038.24 276.529 2136.8 325.717 2243.09 381.277L2242.81 381.39Z" fill="#F5F5DC"/>
<path d="M2238.93 379.802C2133.67 323.643 2036.88 273.891 1943.04 227.701C1933.2 222.858 1923.46 217.741 1913.15 212.324C1876.92 193.293 1839.47 173.614 1792.56 163.02C1735.16 150.105 1674.01 156.043 1633 161.634C1531.74 175.323 1441.41 201.387 1342.25 231.528C1324.36 236.984 1306.27 242.616 1288.78 248.064C1221.49 269.014 1151.92 290.676 1080.8 306.346C1072.16 308.252 1063.51 310.072 1055.1 311.755C1007.69 321.237 961.846 327.746 918.841 331.101C870.124 334.902 823.811 334.752 781.176 330.658C738.351 326.545 698.161 318.486 661.718 306.705C624.84 294.782 592.354 279.221 565.167 260.454C563.911 259.582 562.643 258.69 561.401 257.805C541.729 243.745 524.937 228.632 508.698 214.017C502.846 208.751 496.797 203.307 490.718 198.009C465.876 176.309 442.698 159.156 417.775 144.024C414.503 142.038 411.117 140.041 407.717 138.091C345.85 102.628 264.707 73.9974 173.055 55.2916C63.3869 32.983 -48.8897 25.9239 -143.099 35.4157C-241.449 45.4328 -339.842 82.841 -328.48 132.441L-328.843 132.458C-331.573 120.544 -328.011 108.83 -318.261 97.641C-309.296 87.3546 -295.277 77.6759 -276.598 68.871C-242.134 52.6282 -193.505 40.3737 -143.18 35.249C-93.5432 30.2489 -39.3193 29.7775 17.986 33.8483C69.5461 37.5117 121.766 44.6735 173.201 55.1367C264.904 73.8526 346.096 102.501 408.003 137.982C411.407 139.933 414.792 141.93 418.068 143.918C443.002 159.058 466.191 176.219 491.041 197.926C497.119 203.226 503.172 208.67 509.024 213.937C525.259 228.548 542.047 243.658 561.709 257.71C562.947 258.596 564.215 259.486 565.472 260.358C619.864 297.905 694.478 322.156 781.246 330.491C861.591 338.209 953.675 331.853 1054.95 311.6C1063.35 309.917 1071.99 308.099 1080.63 306.195C1151.73 290.529 1221.29 268.87 1288.56 247.924C1306.06 242.476 1324.15 236.844 1342.04 231.388C1385.44 218.194 1435.95 203.061 1486.08 190.426C1538.52 177.21 1586.54 167.74 1632.89 161.474C1662.07 157.496 1687.74 155.432 1711.35 155.166C1741.12 154.829 1768.49 157.422 1792.71 162.87C1813.72 167.616 1834.87 174.698 1857.37 184.523C1877.23 193.199 1895.63 202.866 1913.42 212.213C1923.72 217.629 1933.46 222.745 1943.3 227.587C2037.15 273.778 2133.94 323.532 2239.2 379.693L2238.93 379.802Z" fill="#F5F5DC"/>
<path d="M2235.04 378.216C2130.82 321.451 2035.8 271.131 1944.57 224.383C1934.9 219.433 1925.33 214.162 1915.2 208.583C1879.92 189.156 1843.44 169.068 1796.8 158.683C1753.22 149.007 1700.93 149.546 1636.96 160.329C1547.51 175.321 1467.56 200.397 1382.9 226.949C1372.36 230.255 1361.47 233.673 1350.62 237.048C1346.37 238.373 1342.12 239.701 1337.88 241.028C1257.22 266.229 1173.81 292.288 1086.32 309.363C1077.47 311.09 1068.59 312.732 1059.9 314.24C1011.45 322.646 964.307 327.996 919.797 330.141C869.955 332.542 822.898 330.936 779.941 325.367C737.783 319.9 698.087 310.489 661.956 297.395C626.935 284.702 595.322 268.581 567.992 249.474C566.746 248.601 565.49 247.707 564.255 246.819C545.33 233.201 528.593 218.698 512.401 204.672C505.847 198.992 499.064 193.118 492.253 187.4C466.451 165.716 442.803 148.711 417.822 133.886C414.502 131.916 411.077 129.94 407.632 128.009C344.981 92.8882 263.237 64.6839 171.226 46.4461C60.8473 24.6274 -51.7408 18.1457 -145.793 28.1998C-242.336 38.6058 -340.59 76.3205 -332.519 125.722L-332.885 125.736C-334.831 113.82 -330.749 102.119 -320.746 90.9589C-311.516 80.6607 -297.417 70.9702 -278.837 62.1585C-244.52 45.8821 -196.059 33.4458 -145.877 28.0365C-96.2953 22.7368 -42.0165 21.9657 15.4574 25.7469C67.1421 29.1443 119.6 36.0569 171.373 46.2912C263.435 64.5408 345.23 92.7603 407.907 127.899C411.351 129.83 414.785 131.81 418.104 133.78C443.096 148.613 466.759 165.624 492.568 187.316C499.383 193.034 506.162 198.909 512.72 204.589C528.904 218.612 545.642 233.112 564.559 246.725C565.794 247.612 567.047 248.505 568.293 249.378C623.865 288.228 697.083 314.446 780.036 325.2C861.924 335.816 956.038 332.074 1059.77 314.078C1068.45 312.57 1077.33 310.93 1086.17 309.205C1173.64 292.137 1257.03 266.082 1337.67 240.885C1341.92 239.557 1346.16 238.23 1350.41 236.905C1361.26 233.529 1372.15 230.112 1382.69 226.807C1467.37 200.251 1547.35 175.168 1636.83 160.169C1665.73 155.297 1691.39 152.565 1715.27 151.812C1745.16 150.871 1772.64 153.132 1796.96 158.529C1817.85 163.181 1838.73 170.296 1860.81 180.281C1880.28 189.091 1898.18 198.945 1915.48 208.473C1925.62 214.051 1935.18 219.32 1944.84 224.268C2036.08 271.019 2131.1 321.34 2235.32 378.107L2235.04 378.216Z" fill="#F5F5DC"/>
<path d="M2231.16 376.631C2136.03 323.734 2040.12 271.393 1946.09 221.063C1936.52 215.969 1927.03 210.496 1916.99 204.702C1884.33 185.857 1847.3 164.498 1801.05 154.344C1756.95 144.686 1704.58 146.216 1640.92 159.021C1565.23 174.197 1498.24 196.51 1427.33 220.134C1405.12 227.531 1382.15 235.183 1358.99 242.564C1318.56 255.475 1274.82 269.137 1228.97 281.58C1179.87 294.907 1135.01 304.979 1091.83 312.377C1082.76 313.931 1073.63 315.394 1064.68 316.722C1015.2 324.067 966.785 328.247 920.768 329.146C869.827 330.14 822.026 327.089 778.688 320.072C698.659 306.954 628.713 279.507 570.795 238.493C569.561 237.617 568.315 236.722 567.087 235.835C549.123 222.817 532.678 209.085 516.777 195.803C509.291 189.552 501.553 183.087 493.767 176.796C466.983 155.117 442.859 138.262 417.848 123.751C414.481 121.798 411.011 119.84 407.526 117.929C344.113 83.1474 261.768 55.3724 169.398 37.6009C58.3047 16.2705 -54.5875 10.3697 -148.485 20.9844C-245.615 32.0267 -341.407 69.2414 -336.56 119.004L-336.926 119.01C-338.088 107.091 -333.478 95.4036 -323.23 84.2721C-313.733 73.9604 -299.553 64.2598 -281.079 55.4414C-263.675 47.1331 -243.047 39.8687 -219.769 33.8483C-197.169 28.0048 -173.218 23.6208 -148.577 20.8194C-99.0504 15.2216 -44.713 14.1509 12.9295 17.6409C64.7387 20.7773 117.427 27.4391 169.537 37.4444C261.962 55.2259 344.355 83.0178 407.805 117.817C411.289 119.729 414.766 121.689 418.134 123.642C443.155 138.161 467.29 155.023 494.085 176.709C501.871 183.002 509.61 189.466 517.095 195.719C532.997 208.999 549.438 222.73 567.395 235.742C568.619 236.631 569.868 237.525 571.099 238.4C628.973 279.383 698.857 306.808 778.809 319.912C861.165 333.246 959.98 332.088 1064.57 316.56C1073.51 315.232 1082.64 313.771 1091.7 312.218C1188.25 295.681 1276.58 268.672 1358.78 242.424C1381.94 235.043 1404.9 227.393 1427.11 219.996C1498.04 196.367 1565.04 174.049 1640.77 158.866C1704.52 146.041 1757 144.511 1801.2 154.191C1821.92 158.738 1842.49 165.867 1864.09 175.98C1883.13 184.897 1900.49 194.913 1917.28 204.596C1927.32 210.389 1936.8 215.861 1946.37 220.952C2040.4 271.283 2136.31 323.624 2231.44 376.523L2231.16 376.631Z" fill="#F5F5DC"/>
<path d="M2227.27 375.045C2133.6 321.855 2039.51 268.932 1947.62 217.744C1938.35 212.594 1929.15 207.024 1919.4 201.129C1887.54 181.844 1851.43 159.985 1805.29 150.003C1760.67 140.361 1708.2 142.883 1644.87 157.71C1578.53 173.222 1517.57 195.125 1458.63 216.309C1429.07 226.931 1398.5 237.914 1367.36 248.078C1318.2 264.135 1276.84 276.385 1237.2 286.629C1188.31 299.261 1142.56 308.668 1097.35 315.389C1088.07 316.769 1078.69 318.052 1069.48 319.202C1021.46 325.191 974.314 328.221 929.209 328.223C926.703 328.223 924.212 328.212 921.72 328.194C869.574 327.803 821.033 323.288 777.446 314.776C756.407 310.645 735.804 305.4 716.213 299.188C697.797 293.35 679.701 286.472 662.425 278.748C631.343 264.852 602.287 248.091 573.605 227.51C572.374 226.624 571.146 225.737 569.926 224.846C553.284 212.703 537.54 200.009 522.316 187.733C513.526 180.647 504.439 173.318 495.287 166.185C467.107 144.208 443.235 127.992 417.877 113.61C414.466 111.675 410.952 109.736 407.423 107.844C343.241 73.4068 260.298 46.0593 167.569 28.7542C55.7651 7.91363 -57.4349 2.59196 -151.179 13.7673C-246.487 25.1615 -342.155 62.659 -340.598 112.281L-340.964 112.283C-341.69 89.1698 -321.754 67.1911 -283.315 48.7244C-265.94 40.3774 -245.421 33.0607 -222.323 26.973C-199.848 21.0503 -175.944 16.5519 -151.271 13.6023C-101.803 7.70487 -47.4065 6.33615 10.4045 9.53488C62.3383 12.4087 115.262 18.8213 167.705 28.5959C260.492 45.9128 343.482 73.2771 407.705 107.734C411.234 109.628 414.755 111.569 418.166 113.504C443.536 127.895 467.418 144.115 495.605 166.101C504.758 173.236 513.849 180.564 522.635 187.65C537.859 199.925 553.599 212.617 570.238 224.757C571.458 225.648 572.682 226.535 573.913 227.419C634.86 271.154 701.483 299.678 777.589 314.621C882.999 335.208 994.447 328.388 1069.38 319.041C1078.59 317.891 1087.96 316.609 1097.24 315.229C1201.22 299.771 1296.1 271.149 1367.15 247.941C1398.29 237.781 1428.85 226.798 1458.4 216.178C1517.37 194.99 1578.33 173.081 1644.71 157.562C1673.04 150.927 1698.69 146.853 1723.1 145.109C1753.22 142.957 1780.92 144.553 1805.44 149.853C1826.1 154.323 1846.48 161.508 1867.72 171.818C1886.44 180.903 1903.35 191.133 1919.7 201.029C1929.44 206.923 1938.63 212.491 1947.9 217.637C2039.79 268.826 2133.88 321.749 2227.56 374.939L2227.27 375.045Z" fill="#F5F5DC"/>
<path d="M2223.39 373.459L1949.15 214.425C1940.19 209.231 1931.3 203.579 1921.88 197.598C1890.81 177.857 1855.58 155.482 1809.53 145.666C1765 136.174 1710.94 139.787 1648.83 156.405C1589.13 172.38 1534.68 193.625 1482.02 214.17C1447.7 227.563 1412.2 241.41 1375.74 253.597C1266.13 290.228 1170.33 311.863 1074.28 321.686C1034.43 325.761 995.114 327.811 956.99 327.811C945.434 327.811 933.995 327.623 922.676 327.245C869.299 325.468 820.018 319.491 776.207 309.484C735.602 300.208 698.457 287.113 662.659 269.449C634.072 255.345 606.669 238.53 576.423 216.531C560.458 204.921 545 192.859 530.051 181.193C496.217 154.795 461.233 127.498 417.921 103.474C351.485 66.6268 264.281 37.7305 165.737 19.9085C53.2257 -0.440399 -60.282 -5.18461 -153.872 6.55134C-244.483 17.9135 -342.829 53.7426 -344.639 105.562L-345.006 105.559C-344.196 82.3965 -323.637 60.4212 -285.553 42.0084C-251.119 25.3598 -204.388 12.7097 -153.967 6.38804C-104.554 0.192613 -50.0997 -1.47577 7.87616 1.4317C59.9346 4.04118 113.092 10.2063 165.872 19.752C214.633 28.5704 260.943 40.1784 303.519 54.2544C346.45 68.4484 385.036 84.9706 418.199 103.363C461.53 127.396 496.525 154.699 530.366 181.104C545.315 192.768 560.773 204.829 576.734 216.437C620.863 248.535 683.438 288.1 776.372 309.329C882.951 333.675 997.155 329.395 1074.19 321.518C1170.21 311.701 1265.95 290.075 1375.52 253.458C1411.97 241.275 1447.46 227.428 1481.78 214.039C1534.45 193.49 1588.92 172.24 1648.65 156.257C1710.86 139.61 1765.04 135.994 1809.69 145.511C1830.31 149.906 1850.49 157.154 1871.4 167.671C1889.8 176.929 1906.26 187.385 1922.18 197.497C1931.59 203.478 1940.49 209.127 1949.44 214.319L2223.68 373.352L2223.39 373.459Z" fill="#F5F5DC"/>
<path d="M2221.18 361.233C2151.35 316.952 2091.43 281.02 2032.62 248.156C2004.08 232.191 1974.92 216.477 1945.97 201.45C1937.21 196.904 1928.54 192.069 1919.35 186.949C1896.27 174.082 1872.4 160.777 1844.93 150.903C1830.18 145.591 1815.98 141.788 1801.52 139.276C1757.14 131.49 1705.07 136.638 1646.75 154.58C1616.57 163.851 1589.09 174.402 1566.19 183.5C1541.95 193.131 1518.03 203.753 1494.9 214.024C1461.66 228.789 1427.28 244.055 1390.33 257.166C1367.84 265.168 1345.05 272.318 1322.58 278.419C1277.62 290.625 1229.36 300.682 1179.15 308.312C1148.13 312.974 1116.95 316.498 1086.5 318.784C1060.26 320.747 1033.96 321.88 1008.35 322.151C970.012 322.558 932.661 321.004 897.333 317.528C859.769 313.831 824.221 307.93 791.677 299.987C762.658 292.904 735.247 283.987 707.881 272.722C656.885 251.749 616.21 227.497 586.473 208.712C571.865 199.441 557.601 189.986 543.806 180.843C504.084 154.511 466.564 129.64 419.614 107.486C381.321 89.5362 337.631 74.046 289.746 61.443C252.948 51.7576 212.926 43.8365 170.794 37.8987C160.758 36.4862 150.531 35.1697 140.408 33.9895C96.8206 28.917 47.752 25.6139 -5.43134 24.1711C-59.0506 22.6828 -105.441 23.9707 -147.244 28.1123C-170.877 30.4355 -193.773 34.0804 -215.307 38.9442C-291.328 56.1163 -340.143 84.9435 -345.889 116.059L-346.347 116.04C-344.815 107.745 -340.319 99.5752 -332.988 91.7534C-326.022 84.324 -316.456 77.1588 -304.555 70.4567C-282.069 57.7964 -251.276 46.8332 -215.508 38.7539C-193.942 33.8818 -171.009 30.2318 -147.339 27.9052C-105.492 23.7603 -59.0653 22.4707 -5.40204 23.9606C47.8106 25.4034 96.9048 28.7099 140.521 33.7858C150.656 34.9676 160.886 36.2842 170.929 37.6983C213.095 43.6395 253.15 51.5673 289.977 61.2612C337.895 73.8726 381.621 89.3763 419.932 107.338C466.913 129.505 504.439 154.383 544.176 180.722C557.967 189.865 572.231 199.318 586.836 208.588C616.558 227.364 657.214 251.604 708.181 272.564C735.518 283.817 762.9 292.726 791.886 299.8C855.577 315.344 928.4 322.794 1008.33 321.941C1033.93 321.669 1060.2 320.536 1086.43 318.575C1116.86 316.289 1148.01 312.769 1179 308.11C1229.19 300.485 1277.41 290.435 1322.34 278.236C1344.8 272.14 1367.58 264.993 1390.04 256.998C1426.98 243.893 1461.35 228.63 1494.58 213.871C1517.71 203.598 1541.63 192.973 1565.89 183.338C1588.8 174.235 1616.29 163.681 1646.5 154.403C1672.46 146.415 1697.6 140.896 1721.22 137.999C1750.24 134.44 1777.31 134.803 1801.68 139.079C1816.19 141.6 1830.42 145.413 1845.21 150.736C1872.72 160.625 1896.6 173.939 1919.7 186.815C1928.89 191.932 1937.56 196.768 1946.31 201.31C1975.27 216.339 2004.43 232.055 2032.98 248.023C2091.79 280.891 2151.71 316.826 2221.55 361.11L2221.18 361.233Z" fill="#F5F5DC"/>
<path d="M2218.97 349.004C2154.22 303.974 2093.46 266.293 2033.19 233.809C2003.81 217.942 1973.39 202.689 1942.79 188.475C1934.67 184.703 1926.66 180.784 1918.17 176.636C1892.76 164.213 1866.48 151.368 1837.05 142.48C1822.19 137.973 1807.95 134.835 1793.51 132.886C1738.22 125.418 1682.06 139.566 1644.67 152.75C1618.19 162.063 1594 172.594 1569.49 183.464C1548.05 192.98 1527.87 203.216 1506.51 214.051C1474.8 230.135 1442.02 246.767 1404.92 260.732C1382.9 269.064 1359.92 276.268 1336.62 282.143C1293.22 293.09 1245.7 301.59 1191.33 308.132C1160.9 311.792 1129.75 314.4 1098.72 315.88C1072.54 317.114 1046.41 317.555 1021.04 317.186C983.313 316.644 946.431 314.206 911.417 309.942C874.645 305.462 839.559 298.917 807.136 290.487C778.728 283.103 751.3 273.941 723.281 262.48C672.395 241.693 628.804 218.649 596.517 200.894C584.565 194.322 572.803 187.709 561.426 181.311C516.121 155.836 473.328 131.771 421.307 111.498C382.428 96.3462 338.778 83.5345 291.578 73.4197C255.865 65.7664 218.012 60.0322 175.861 55.889C166.133 54.9345 156.237 54.0742 146.45 53.3317C103.464 50.0875 57.5864 48.8603 2.08014 47.5909C-37.931 46.6296 -90.3082 45.9965 -140.626 49.67C-164.457 51.3771 -187.493 54.3419 -209.1 58.4783C-285.172 73.046 -336.776 98.4944 -347.145 126.556L-347.688 126.514C-344.939 119.072 -339.37 111.774 -331.144 104.819C-323.303 98.193 -313 91.8394 -300.524 85.9301C-276.814 74.7043 -245.274 65.13 -209.312 58.2443C-187.665 54.0994 -164.585 51.1297 -140.714 49.4192C-90.3485 45.7406 -37.931 46.3753 2.10574 47.3366C57.6303 48.606 103.522 49.8333 146.538 53.0792C156.332 53.8233 166.236 54.6836 175.975 55.6382C218.166 59.7864 256.056 65.5256 291.809 73.1874C339.057 83.3122 382.743 96.1341 421.662 111.301C473.721 131.589 516.531 155.661 561.851 181.146C573.224 187.542 584.986 194.155 596.938 200.726C629.218 218.474 672.791 241.509 723.647 262.286C751.633 273.736 779.032 282.888 807.407 290.263C871.161 306.838 943.049 315.809 1021.06 316.93C1046.4 317.297 1072.51 316.858 1098.66 315.624C1129.66 314.146 1160.79 311.541 1191.19 307.883C1245.51 301.348 1293 292.854 1336.36 281.918C1359.63 276.049 1382.58 268.855 1404.57 260.532C1441.64 246.579 1474.41 229.954 1506.11 213.878C1527.48 203.037 1547.66 192.8 1569.12 183.279C1593.63 172.402 1617.83 161.868 1644.34 152.544C1668.58 143.997 1692.48 137.849 1715.39 134.266C1743.17 129.923 1769.51 129.376 1793.67 132.638C1808.16 134.596 1822.45 137.744 1837.36 142.265C1866.84 151.169 1893.14 164.026 1918.58 176.459C1927.06 180.606 1935.08 184.523 1943.19 188.293C1973.8 202.512 2004.22 217.77 2033.62 233.642C2093.89 266.135 2154.68 303.822 2219.43 348.862L2218.97 349.004Z" fill="#F5F5DC"/>
<path d="M2216.76 336.775C2156.16 290.385 2096.31 252.012 2033.77 219.464C2003.53 203.694 1971.85 188.904 1939.62 175.502C1932.73 172.636 1925.63 169.596 1918.77 166.656C1890.45 154.511 1861.16 141.954 1829.18 134.06C1814.17 130.329 1799.88 127.854 1785.51 126.496C1730.33 121.278 1677.34 136.898 1642.59 150.919C1619.05 160.384 1597.52 171.111 1576.7 181.487L1572.8 183.43C1553.9 192.842 1536.17 203.166 1517.4 214.097C1487.5 231.503 1456.59 249.5 1419.51 264.298C1397.93 272.972 1374.77 280.23 1350.67 285.87C1308.65 295.703 1261.88 302.72 1203.5 307.953C1173.31 310.658 1142.17 312.348 1110.93 312.975C1084.81 313.478 1058.84 313.226 1033.73 312.22C957.701 309.192 886.663 298.683 822.587 280.987C794.887 273.337 767.44 263.935 738.681 252.238C690.011 232.485 646.725 212.181 606.563 193.078C601.177 190.517 595.85 187.973 590.563 185.45C535.709 159.272 483.899 134.546 423.011 115.516C383.26 103.091 339.654 92.9595 293.41 85.4004C259.46 79.8515 222.665 76.0837 180.932 73.8816C171.527 73.3883 161.96 72.9826 152.496 72.6762C128.687 71.9186 103.434 71.7957 76.6981 71.6661C55.2233 71.5617 33.0193 71.454 9.58786 71.0146C-35.6665 70.0937 -86.9554 69.0515 -134.016 71.2334C-158.298 72.3597 -181.473 74.6426 -202.9 78.0198C-278.943 90.0066 -333.339 112.079 -348.409 137.065L-349.028 136.986C-345.057 130.398 -338.417 123.972 -329.298 117.886C-320.577 112.066 -309.541 106.52 -296.497 101.404C-271.549 91.6194 -239.254 83.4374 -203.112 77.7403C-181.637 74.3547 -158.415 72.0668 -134.086 70.9388C-86.9774 68.7552 -35.6628 69.799 9.60986 70.7199C33.0266 71.1577 55.2306 71.2671 76.6981 71.3715C103.445 71.5011 128.705 71.624 152.536 72.3833C162.008 72.6914 171.585 73.0971 180.998 73.5904C222.783 75.7941 259.621 79.5669 293.619 85.1243C339.918 92.6918 383.571 102.835 423.366 115.273C484.31 134.321 536.145 159.059 591.021 185.248C596.308 187.771 601.639 190.314 607.021 192.876C647.175 211.976 690.448 232.274 739.102 252.02C767.832 263.704 795.25 273.098 822.917 280.738C886.909 298.412 957.855 308.906 1033.78 311.931C1058.87 312.934 1084.81 313.187 1110.9 312.683C1142.1 312.057 1173.22 310.369 1203.37 307.666C1261.69 302.439 1308.41 295.43 1350.37 285.61C1374.43 279.982 1397.54 272.738 1419.08 264.08C1456.12 249.3 1487.01 231.313 1516.89 213.917C1535.67 202.981 1553.41 192.652 1572.33 183.233L1576.22 181.29C1597.05 170.909 1618.59 160.175 1642.17 150.7C1677.02 136.634 1730.2 120.969 1785.63 126.209C1800.07 127.575 1814.41 130.058 1829.48 133.804C1861.53 141.715 1890.85 154.286 1919.21 166.444C1926.06 169.384 1933.16 172.424 1940.04 175.288C1972.29 188.697 2003.98 203.496 2034.24 219.274C2096.81 251.835 2156.68 290.222 2217.3 336.627L2216.76 336.775Z" fill="#F5F5DC"/>
<path d="M2214.55 324.544C2158.91 277.453 2098.28 237.272 2034.34 205.12C2003.26 189.45 1970.32 175.121 1936.45 162.531C1931.56 160.713 1926.55 158.826 1921.7 157.001C1889.69 144.945 1856.59 132.477 1821.33 125.642C1806.19 122.677 1791.86 120.867 1777.52 120.106C1722.5 117.19 1672.65 134.256 1640.53 149.087C1620.57 158.249 1602.57 168.437 1585.15 178.291C1582.14 179.996 1579.13 181.699 1576.11 183.394C1559.55 192.707 1544.06 203.111 1527.66 214.125C1499.79 232.85 1470.96 252.21 1434.1 267.867C1412.45 277.061 1389.76 284.169 1364.71 289.6C1312.32 300.959 1259.97 305.163 1215.67 307.779C1185.7 309.547 1154.57 310.321 1123.14 310.075C1097.1 309.848 1071.29 308.9 1046.42 307.26C972.673 302.41 902.565 290.376 838.045 271.492C811.199 263.636 783.737 253.99 754.084 242.001C724.131 229.92 696.219 218.295 669.222 207.053C650.876 199.411 633.545 192.194 616.621 185.269C552.647 159.094 494.049 136.08 424.729 119.537C384.124 109.848 340.563 102.394 295.253 97.3818C262.779 93.7891 228.066 92.0399 186.014 91.8732C176.942 91.8429 167.701 91.8918 158.552 92.0197C144.655 92.2268 130.277 92.6595 115.06 93.1191C85.8582 93.9996 52.7538 94.9979 17.0955 94.439C3.5166 94.2252 -10.3371 93.9238 -23.7364 93.6309C-58.2002 92.8783 -93.8365 92.1005 -127.41 92.7958C-152.065 93.3076 -175.383 94.9104 -196.708 97.5602C-272.622 106.996 -329.807 125.696 -349.681 147.58L-350.358 147.45C-345.155 141.72 -337.446 136.167 -327.447 130.947C-317.844 125.933 -306.075 121.197 -292.474 116.872C-266.265 108.539 -233.22 101.749 -196.905 97.2353C-175.53 94.5787 -152.16 92.9709 -127.45 92.4591C-93.8401 91.7621 -58.1892 92.5416 -23.7071 93.2941C-10.3114 93.5871 3.54224 93.8884 17.1175 94.1023C52.7428 94.6612 85.8215 93.6645 115.009 92.784C130.233 92.3244 144.614 91.8918 158.527 91.6847C167.687 91.5567 176.935 91.5079 186.018 91.5382C228.129 91.7032 262.893 93.4575 295.422 97.0552C340.786 102.074 384.406 109.537 425.062 119.239C456.375 126.711 488.106 136.177 522.068 148.178C552.472 158.92 582.047 170.675 617.105 185.019C634.029 191.945 651.36 199.162 669.709 206.804C696.702 218.045 724.615 229.669 754.561 241.749C784.184 253.725 811.617 263.362 838.43 271.209C902.862 290.068 972.87 302.085 1046.51 306.929C1071.36 308.567 1097.14 309.513 1123.14 309.74C1154.54 309.986 1185.64 309.213 1215.56 307.446C1259.81 304.834 1312.1 300.636 1364.39 289.297C1389.37 283.881 1412.01 276.792 1433.6 267.621C1470.39 251.991 1499.2 232.646 1527.05 213.937C1543.46 202.916 1558.95 192.507 1575.54 183.183C1578.55 181.488 1581.56 179.786 1584.57 178.082C1602 168.222 1620.02 158.026 1639.99 148.853C1660.9 139.204 1682.34 131.782 1703.73 126.792C1729.07 120.881 1753.92 118.52 1777.59 119.776C1792 120.541 1806.4 122.359 1821.6 125.335C1856.95 132.189 1890.1 144.672 1922.15 156.743C1927 158.568 1932.01 160.456 1936.89 162.272C1970.79 174.872 2003.75 189.214 2034.86 204.896C2068.81 221.969 2102.06 241.42 2133.68 262.711C2161.63 281.527 2189.05 302.279 2215.17 324.385L2214.55 324.544Z" fill="#F5F5DC"/>
<path d="M2212.33 312.309C2160.84 263.869 2101.15 222.979 2034.92 190.774C2002.98 175.203 1968.79 161.338 1933.29 149.56C1931.6 148.999 1929.91 148.438 1928.22 147.876C1891.3 135.613 1853.13 122.933 1813.49 117.224C1798.13 115.012 1783.75 113.865 1769.55 113.717C1714.75 113.148 1668.02 131.64 1638.47 147.251C1621.08 156.385 1605.64 166.395 1590.71 176.075C1587.02 178.469 1583.2 180.944 1579.44 183.355C1565.09 192.537 1551.75 202.977 1537.62 214.031C1511.94 234.137 1485.38 254.927 1448.71 271.433C1427.49 280.982 1404.61 288.144 1378.76 293.329C1327.84 303.543 1276.13 306.225 1227.84 307.602C1198.06 308.45 1166.94 308.306 1135.34 307.173C1109.4 306.213 1083.75 304.572 1059.11 302.295C987.871 295.73 918.694 282.17 853.507 261.993C827.401 253.914 800.705 244.307 769.499 231.762C710.189 207.983 666.148 191.236 626.701 177.459C548.243 150.06 488.362 133.94 426.48 123.559C385.051 116.609 341.534 111.833 297.129 109.362C266.322 107.648 233.628 107.801 191.125 109.863C182.416 110.291 173.505 110.794 164.638 111.362C156.262 111.905 147.754 112.528 138.745 113.187C105.479 115.619 67.7725 118.377 24.6176 117.862C1.8714 117.591 -21.3622 116.848 -43.83 116.131C-69.3645 115.316 -95.7675 114.473 -120.8 114.358C-145.899 114.244 -169.359 115.166 -190.512 117.103C-266.174 124.024 -326.154 139.352 -350.956 158.105L-351.659 157.908C-345.218 153.036 -336.439 148.357 -325.568 144.002C-315.074 139.797 -302.58 135.872 -288.429 132.335C-260.942 125.463 -227.137 120.066 -190.673 116.73C-169.462 114.791 -145.95 113.865 -120.793 113.98C-95.7382 114.094 -69.3206 114.938 -43.775 115.754C-21.3145 116.471 1.90802 117.214 24.636 117.485C67.7139 117.998 105.38 115.244 138.609 112.815C147.623 112.155 156.138 111.533 164.517 110.988C173.395 110.421 182.313 109.917 191.03 109.488C233.599 107.424 266.348 107.269 297.221 108.988C341.688 111.463 385.267 116.246 426.755 123.205C488.721 133.6 548.664 149.736 627.192 177.159C666.653 190.941 710.71 207.694 770.034 231.479C801.218 244.015 827.885 253.611 853.962 261.682C919.061 281.83 988.135 295.371 1059.26 301.927C1083.87 304.199 1109.49 305.838 1135.4 306.797C1166.96 307.928 1198.04 308.073 1227.78 307.226C1276 305.851 1327.62 303.176 1378.43 292.985C1404.18 287.82 1426.98 280.682 1448.12 271.167C1484.71 254.697 1511.25 233.928 1536.91 213.844C1551.04 202.783 1564.39 192.335 1578.76 183.139C1582.53 180.73 1586.35 178.255 1590.03 175.861C1604.97 166.173 1620.42 156.156 1637.84 147.007C1657.12 136.818 1677.34 128.759 1697.93 123.052C1722.05 116.367 1746.15 113.102 1769.56 113.343C1783.85 113.491 1798.29 114.645 1813.73 116.867C1853.5 122.596 1891.73 135.293 1928.7 147.575C1930.39 148.137 1932.08 148.699 1933.77 149.258C1969.31 161.05 2003.54 174.932 2035.51 190.52C2101.8 222.753 2161.54 263.675 2213.07 312.149L2212.33 312.309Z" fill="#F5F5DC"/>
<path d="M1246.07 307.427C1244.01 307.427 1241.99 307.426 1239.99 307.42C1210.37 307.363 1179.26 306.303 1147.54 304.266C1121.69 302.574 1096.2 300.238 1071.79 297.328C1036.91 293.176 1001.9 287.21 967.733 279.595C934.739 272.241 901.51 263.123 868.966 252.492C837.078 242.076 807.293 230.469 784.906 221.521C732.525 200.642 682.687 183.19 636.777 169.65C562.419 147.72 496.155 134.351 428.235 127.578C387.261 123.492 343.3 121.337 300.973 121.337C300.317 121.337 299.665 121.337 299.009 121.339C262.647 121.396 228.125 124.5 196.24 127.847C187.941 128.724 179.357 129.682 170.724 130.698C165.994 131.26 161.256 131.839 156.244 132.452C120.89 136.78 80.8164 141.684 32.1325 141.282C2.48325 141.036 -27.7999 139.625 -57.0865 138.26C-75.9965 137.378 -95.5477 136.467 -114.198 135.917C-139.835 135.161 -163.427 135.403 -184.327 136.64C-259.586 141.092 -322.362 153.052 -352.256 168.634L-352.945 168.357C-337.611 160.365 -314.546 153.446 -284.391 147.789C-255.592 142.388 -221.029 138.388 -184.444 136.225C-163.49 134.986 -139.835 134.74 -114.139 135.499C-95.4707 136.05 -75.9085 136.962 -56.9912 137.844C-27.723 139.21 2.54184 140.62 32.1508 140.864C80.7101 141.267 120.714 136.369 156.009 132.049C161.026 131.435 165.763 130.856 170.497 130.294C179.137 129.278 187.729 128.319 196.035 127.442C227.974 124.09 262.556 120.98 299.005 120.921C342.006 120.852 386.755 123.014 428.43 127.171C463.483 130.667 497.467 135.814 532.316 142.905C565.878 149.735 600.21 158.368 637.268 169.299C683.215 182.85 733.089 200.315 785.503 221.208C807.872 230.151 837.635 241.749 869.49 252.153C935.527 273.726 1003.67 288.789 1072.02 296.925C1096.4 299.833 1121.85 302.164 1147.67 303.855C1179.35 305.888 1210.41 306.949 1239.99 307.005C1286.28 307.092 1340.03 306.375 1392.46 296.669C1418.99 291.757 1441.95 284.573 1462.64 274.709C1498.98 257.386 1523.06 235.151 1546.36 213.647C1558.35 202.586 1569.67 192.138 1581.97 183.094C1585.92 180.197 1589.9 177.212 1593.74 174.325C1606.74 164.57 1620.18 154.486 1635.67 145.164C1653.36 134.44 1672.35 125.741 1692.11 119.31C1715.01 111.854 1738.36 107.682 1761.5 106.911C1775.79 106.434 1790.29 106.921 1805.83 108.399C1847.38 112.349 1888.57 123.824 1930.62 136.243C1967.28 147.072 2003.77 160.868 2036.14 176.143C2072.1 193.061 2105.89 212.908 2136.56 235.133C2163.88 254.933 2188.91 276.728 2210.95 299.914L2210.11 300.082C2162.78 250.29 2104.03 208.689 2035.49 176.438C2003.16 161.185 1966.73 147.408 1930.13 136.598C1888.15 124.201 1847.04 112.748 1805.64 108.812C1790.19 107.342 1775.77 106.859 1761.57 107.332C1719.04 108.751 1674.59 122.276 1636.4 145.42C1620.94 154.725 1607.51 164.801 1594.52 174.545C1590.68 177.434 1586.69 180.421 1582.75 183.318C1570.47 192.345 1559.15 202.785 1547.18 213.836C1535.75 224.387 1523.93 235.298 1510.37 245.786C1494.99 257.677 1479.6 267.233 1463.3 275.002C1442.52 284.91 1419.46 292.126 1392.8 297.062C1369.29 301.415 1344.02 304.292 1315.55 305.862C1291.43 307.183 1267.22 307.427 1246.07 307.427Z" fill="#F5F5DC"/>
<path d="M1304.82 308.271C1286.14 308.271 1268.19 307.759 1252.14 307.24C1222.62 306.287 1191.52 304.309 1159.73 301.36C1133.98 298.937 1108.66 295.91 1084.45 292.36C1018.18 282.657 952.74 266.507 884.41 242.99C854.61 232.735 826.518 221.701 800.306 211.28C748.555 190.766 696.929 174.133 646.853 161.84C573.206 143.76 504.301 134.149 430.002 131.593C387.667 130.137 343.025 130.731 300.896 133.31C265.633 135.469 232.39 140.678 201.356 145.826C193.591 147.12 185.333 148.535 176.814 150.028C174.685 150.403 172.538 150.786 170.362 151.171C134.619 157.521 94.1755 164.707 42.271 164.707C41.3953 164.707 40.5233 164.705 39.6403 164.7C4.52426 164.537 -31.3282 162.234 -66.0045 160.005C-79.7519 159.121 -93.9683 158.208 -107.609 157.469C-134.254 156.028 -157.33 155.602 -178.16 156.171C-253.921 158.242 -317.869 166.619 -353.601 179.16L-354.213 178.791C-336.549 172.592 -311.007 167.21 -280.357 163.227C-250.21 159.309 -214.892 156.71 -178.223 155.708C-157.334 155.137 -134.199 155.563 -107.496 157.008C-93.8401 157.747 -79.62 158.661 -65.869 159.543C-31.2256 161.769 4.59387 164.07 39.6439 164.234C92.6294 164.483 133.732 157.178 169.992 150.735C172.164 150.349 174.315 149.967 176.444 149.59C184.97 148.095 193.232 146.681 201.004 145.386C232.089 140.228 265.395 135.012 300.753 132.847C342.948 130.265 387.664 129.669 430.068 131.127C466.887 132.393 501.992 135.383 537.387 140.265C573.84 145.294 609.799 152.215 647.318 161.427C697.457 173.737 749.149 190.391 800.954 210.925C827.156 221.343 855.23 232.37 885.004 242.614C953.242 266.1 1018.58 282.226 1084.75 291.913C1108.92 295.457 1134.21 298.481 1159.92 300.9C1191.67 303.846 1222.72 305.823 1252.2 306.772C1301.8 308.372 1354.57 309.193 1406.48 300.343C1433.8 295.685 1456.91 288.455 1477.15 278.241C1513.19 260.047 1535.63 235.23 1555.42 213.334C1565.38 202.317 1574.79 191.911 1585.17 183.04C1588.92 179.84 1592.69 176.532 1596.33 173.333C1607.74 163.325 1619.53 152.976 1633.48 143.311C1649.63 132.051 1667.39 122.712 1686.28 115.554C1707.97 107.333 1730.56 102.256 1753.43 100.466C1767.73 99.3466 1782.28 99.1681 1797.92 99.9156C1841.61 102.008 1886 112.349 1927.46 123.212C1965.75 133.243 2003.54 146.57 2036.77 161.752C2073.73 178.591 2107.78 198.637 2137.98 221.329C2164.98 241.623 2188.82 263.94 2208.83 287.664L2207.89 287.831C2165.36 237.402 2105.94 193.918 2036.06 162.079C2002.9 146.925 1965.18 133.623 1926.97 123.613C1885.6 112.775 1841.33 102.459 1797.82 100.375C1782.27 99.6311 1767.81 99.8096 1753.61 100.921C1711.38 104.226 1669.02 119.369 1634.33 143.563C1620.4 153.208 1608.62 163.547 1597.23 173.545C1593.59 176.746 1589.82 180.054 1586.07 183.258C1575.71 192.108 1566.31 202.504 1556.36 213.509C1536.53 235.439 1514.06 260.296 1477.89 278.551C1457.55 288.821 1434.3 296.09 1406.83 300.776C1383 304.84 1357.28 307.193 1328.21 307.966C1320.36 308.185 1312.53 308.271 1304.82 308.271Z" fill="#F5F5DC"/>
<path d="M1341.7 310.094C1341.43 310.094 1341.17 310.094 1340.9 310.094C1314.5 310.063 1288.58 308.579 1264.28 307.06C1234.81 305.218 1203.73 302.321 1171.92 298.452C1146.29 295.302 1121.13 291.58 1097.13 287.391C1033.5 276.302 970.818 259.175 899.865 233.489C874.312 224.242 849.166 214.284 824.844 204.655C821.803 203.45 818.758 202.246 815.713 201.043C763.695 180.534 710.277 164.717 656.947 154.033C583.92 139.405 510.269 133.378 431.786 135.608C388.752 136.832 344.15 140.178 302.801 145.282C270.177 149.311 241.106 155.774 206.489 163.804C199.472 165.439 191.979 167.203 182.914 169.358L182.409 169.48C164.92 173.665 145.098 178.407 122.865 182.013C97.33 186.155 72.5575 188.148 47.1548 188.125C7.54312 188.079 -32.8821 184.692 -71.9735 181.414C-81.5513 180.611 -91.4588 179.781 -101.022 179.03C-128.447 176.88 -151.662 175.794 -171.994 175.712C-246.857 175.409 -313.55 180.507 -354.968 189.695L-355.444 189.241C-335.157 184.739 -307.79 181.086 -276.305 178.675C-244.762 176.259 -208.686 175.06 -171.983 175.209C-151.593 175.291 -128.319 176.379 -100.835 178.534C-91.2646 179.284 -81.3571 180.114 -71.7757 180.917C-32.7318 184.19 7.64203 187.574 47.1585 187.62C47.3344 187.62 47.5139 187.62 47.6898 187.62C104.215 187.62 147.278 177.316 181.903 169.032L182.412 168.91C191.481 166.754 198.974 164.99 205.994 163.355C240.67 155.311 269.792 148.836 302.519 144.795C343.937 139.681 388.612 136.331 431.72 135.105C470.126 134.014 506.352 134.846 542.476 137.651C581.402 140.672 618.992 145.88 657.387 153.572C710.819 164.276 764.329 180.118 816.431 200.66C819.476 201.864 822.521 203.069 825.562 204.275C849.873 213.9 875.012 223.854 900.542 233.095C971.405 258.749 1033.99 275.852 1097.52 286.923C1121.48 291.107 1146.61 294.822 1172.2 297.969C1203.97 301.833 1235 304.725 1264.43 306.563C1317.15 309.86 1368.75 312.146 1420.53 304.038C1448.62 299.637 1471.9 292.363 1491.67 281.797C1527.39 262.711 1546.91 236.264 1564.13 212.928C1572.19 202.004 1579.8 191.684 1588.39 183.012C1591.7 179.675 1595.01 176.224 1598.22 172.885C1608.24 162.447 1618.61 151.656 1631.32 141.481C1645.95 129.681 1662.49 119.701 1680.46 111.818C1700.96 102.835 1722.79 96.855 1745.37 94.0469C1759.37 92.3061 1773.66 91.4576 1789.01 91.4576C1789.34 91.4576 1789.68 91.4576 1790.01 91.4593C1837.74 91.5737 1886.86 101.537 1924.32 110.204C1964.22 119.438 2003.33 132.294 2037.41 147.381C2075.37 164.143 2109.7 184.386 2139.42 207.549C2166.09 228.336 2188.74 251.177 2206.72 275.44L2205.68 275.603C2178.92 239.501 2127.86 188.015 2036.65 147.747C2002.65 132.693 1963.63 119.867 1923.82 110.655C1886.47 102.012 1837.51 92.0771 1790.01 91.9643C1774.37 91.9222 1759.87 92.7674 1745.66 94.5351C1703.83 99.7389 1663.56 116.5 1632.27 141.731C1619.59 151.883 1609.24 162.663 1599.22 173.089C1596.02 176.429 1592.7 179.882 1589.39 183.221C1580.83 191.871 1573.22 202.177 1565.17 213.09C1547.92 236.468 1528.37 262.965 1492.51 282.125C1472.6 292.762 1449.17 300.085 1420.88 304.515C1396.91 308.267 1371 310.094 1341.7 310.094Z" fill="#F5F5DC"/>
<path d="M1371.03 312.464C1365.34 312.464 1359.53 312.38 1353.58 312.211C1327.53 311.476 1302.22 309.269 1276.43 306.878C1246.53 304.107 1216.33 300.4 1184.11 295.544C1158.61 291.669 1133.61 287.255 1109.8 282.421C1049.39 270.178 989.41 252.156 915.32 223.987C896.919 216.992 878.526 209.655 860.737 202.559C851.053 198.697 841.043 194.702 831.124 190.801C778.487 170.154 723.285 155.157 667.049 146.224C592.746 134.421 516.381 132.259 433.581 139.616C389.837 143.504 345.275 149.6 304.718 157.245C272.137 163.386 243.756 172.011 213.707 181.143L211.63 181.774C206.936 183.205 202.191 184.656 197.388 186.124C194.621 186.971 191.836 187.823 189.026 188.682C171.505 194.064 152.58 199.678 130.878 204C105.681 209.017 80.7579 211.485 54.6774 211.546C11.2588 211.643 -33.0283 207.007 -75.8534 202.519C-81.9649 201.877 -88.2891 201.216 -94.4263 200.588C-123.2 197.641 -145.884 195.946 -165.823 195.249C-239.404 192.678 -308.845 194.49 -356.345 200.221L-356.649 199.692C-309.024 193.946 -239.441 192.128 -165.732 194.704C-145.737 195.402 -122.995 197.103 -94.1662 200.054C-88.0252 200.684 -81.7011 201.345 -75.5859 201.987C-33.2848 206.419 10.4417 211 53.2851 211C53.7468 211 54.2085 211 54.6738 210.999C110.089 210.871 149.535 200.153 188.37 188.227C191.181 187.368 193.965 186.517 196.732 185.67C201.535 184.2 206.276 182.75 210.974 181.318L213.051 180.686C243.151 171.54 271.58 162.9 304.267 156.738C344.897 149.078 389.536 142.972 433.358 139.078C516.366 131.702 592.937 133.871 667.441 145.706C723.816 154.662 779.146 169.693 831.901 190.385C841.819 194.288 851.833 198.281 861.517 202.145C879.299 209.239 897.688 216.575 916.078 223.565C990.08 251.702 1049.98 269.699 1110.28 281.921C1134.06 286.746 1159.02 291.155 1184.48 295.024C1216.65 299.873 1246.81 303.575 1276.67 306.341C1321.99 310.541 1378.4 315.77 1434.57 307.716C1463.45 303.577 1486.88 296.256 1506.19 285.337C1541.57 265.337 1557.97 237.206 1572.45 212.389C1578.74 201.608 1584.68 191.424 1591.61 182.973C1594.31 179.68 1597.02 176.274 1599.63 172.979C1608.41 161.93 1617.49 150.506 1629.15 139.64C1642.3 127.291 1657.61 116.67 1674.64 108.07C1693.94 98.326 1715.03 91.4454 1737.3 87.6187C1751.6 85.1624 1766.25 83.6489 1782.1 82.9906C1803.32 82.1084 1825.91 83.0512 1851.16 85.8661C1872.52 88.25 1895.42 91.9504 1921.17 97.1812C1962.7 105.617 2003.11 118.003 2038.04 132.998C2077.02 149.681 2111.61 170.124 2140.85 193.757C2167.18 215.039 2188.64 238.403 2204.61 263.204L2203.47 263.358C2169.74 211 2110.7 164.846 2037.23 133.399C2002.39 118.444 1962.09 106.094 1920.68 97.6829C1865.2 86.4132 1821.21 81.9165 1782.21 83.5361C1766.46 84.1893 1751.92 85.6927 1737.72 88.1305C1684.72 97.2334 1650 121.298 1630.22 139.881C1618.59 150.719 1609.52 162.13 1600.75 173.166C1598.13 176.462 1595.42 179.87 1592.72 183.165C1585.81 191.591 1579.88 201.763 1573.6 212.531C1559.1 237.402 1542.66 265.591 1507.11 285.682C1487.65 296.687 1464.03 304.066 1434.92 308.24C1415.19 311.068 1394.15 312.464 1371.03 312.464Z" fill="#F5F5DC"/>
<path d="M1396.43 315.181C1357.68 315.181 1320.43 310.607 1288.56 306.694C1258.58 303.014 1228.4 298.415 1196.28 292.635C1170.93 288.039 1146.09 282.931 1122.46 277.451C1051.62 261.044 988.461 237.492 930.767 214.485C918.987 209.788 907.086 204.946 895.581 200.264C879.606 193.763 863.085 187.04 846.531 180.562C793.106 159.711 736.119 145.531 677.158 138.415C600.884 129.211 521.796 130.913 435.376 143.62C390.88 150.162 346.363 159.009 306.634 169.205C275.991 177.067 250.065 186.993 222.618 197.502C220.672 198.246 218.723 198.993 216.762 199.741L215.7 200.148C209.028 202.706 202.128 205.349 195.134 208.002C178.375 214.388 159.919 220.992 138.572 226.038C113.792 231.895 88.8111 234.816 62.192 234.967C15.4684 235.235 -32.153 229.199 -78.2024 223.363C-81.4304 222.953 -84.6437 222.546 -87.8424 222.144C-118.21 218.315 -140.363 216.046 -159.665 214.783C-231.399 210.093 -303.595 208.618 -357.742 210.738L-357.852 210.15C-303.617 208.026 -231.315 209.502 -159.485 214.199C-140.128 215.465 -117.928 217.74 -87.5053 221.575C-84.3066 221.977 -81.0933 222.384 -77.8616 222.795C-31.9001 228.62 15.6296 234.641 62.1737 234.378C119.981 234.048 160.692 220.356 194.313 207.547C201.308 204.894 208.207 202.251 214.879 199.695L215.942 199.288C217.902 198.539 219.851 197.793 221.797 197.049C249.292 186.522 275.262 176.579 306.007 168.69C345.809 158.476 390.411 149.613 434.984 143.059C475.955 137.036 514.439 133.558 552.629 132.426C595.23 131.165 637.235 132.989 677.48 137.846C736.629 144.984 793.784 159.205 847.359 180.112C863.924 186.594 880.449 193.318 896.428 199.822C907.933 204.504 919.826 209.344 931.602 214.039C989.237 237.021 1052.32 260.547 1123.03 276.924C1146.63 282.396 1171.43 287.497 1196.75 292.086C1228.81 297.857 1258.95 302.45 1288.89 306.125C1334.86 311.769 1392.07 318.792 1448.6 311.402C1478.26 307.523 1501.84 300.157 1520.69 288.884C1555.71 267.943 1568.81 238.082 1580.37 211.734C1585.01 201.148 1589.4 191.15 1594.81 182.939C1596.81 179.902 1598.82 176.764 1600.76 173.728C1608.36 161.856 1616.22 149.578 1626.96 137.805C1638.66 124.897 1652.73 113.631 1668.79 104.323C1686.91 93.8193 1707.24 86.038 1729.21 81.1944C1743.48 78.0496 1758.18 75.8694 1774.16 74.5276C1795.69 72.7212 1819.58 72.7818 1845.17 74.7078C1867.57 76.3947 1892.07 79.5749 1917.99 84.1625C1961.14 91.8007 2002.86 103.715 2038.66 118.618C2078.65 135.223 2113.51 155.863 2142.27 179.968C2168.25 201.744 2188.52 225.634 2202.49 250.971L2201.24 251.116C2171.64 197.428 2113.6 150.528 2037.8 119.056C2002.12 104.202 1960.53 92.326 1917.53 84.713C1861.79 74.8458 1814.97 71.7026 1774.39 75.1084C1758.53 76.4401 1743.93 78.6052 1729.77 81.7264C1677.49 93.2503 1645.65 118.705 1628.15 138.032C1617.43 149.775 1609.58 162.036 1601.99 173.893C1600.05 176.929 1598.04 180.069 1596.04 183.109C1590.65 191.293 1586.26 201.278 1581.63 211.851C1576.06 224.526 1569.76 238.892 1560.61 252.36C1550.13 267.791 1537.4 279.855 1521.71 289.243C1512.64 294.671 1502.21 299.29 1490.71 302.974C1478.35 306.935 1464.3 309.962 1448.95 311.969C1431.38 314.267 1413.75 315.181 1396.43 315.181Z" fill="#F5F5DC"/>
<path d="M1419.33 318.163C1406.52 318.163 1393.1 317.59 1378.92 316.447C1351 314.196 1324.28 310.112 1300.7 306.511C1270.98 301.97 1239.94 296.322 1208.46 289.724C1183.27 284.414 1158.6 278.613 1135.12 272.478C1067.75 254.89 1009.71 231.504 946.214 204.982C940.572 202.625 934.841 200.221 929.301 197.894C907.482 188.737 884.923 179.269 861.938 170.323C807.626 149.228 748.859 135.865 687.267 130.606C609.575 123.971 525.427 129.695 437.172 147.622C391.884 156.821 347.407 168.417 308.55 181.159C279.293 190.754 255.209 202.066 229.711 214.042C227.121 215.26 224.519 216.48 221.903 217.706C215.392 220.76 208.379 224.038 201.245 227.319C186.285 234.223 168.053 242.09 146.27 248.072C121.886 254.769 96.8427 258.144 69.7142 258.388C20.052 258.838 -30.5005 251.282 -79.3895 243.976L-81.2509 243.698C-105.188 240.122 -130.51 236.509 -153.498 234.316C-223.569 227.63 -296.596 222.989 -359.123 221.246L-359.039 220.617C-296.446 222.361 -223.353 227.006 -153.22 233.698C-130.166 235.898 -104.8 239.516 -80.8258 243.097L-78.9645 243.375C-30.1817 250.664 20.2682 258.202 69.6886 257.755C126.763 257.24 166.181 242.607 200.274 226.869C207.408 223.59 214.414 220.312 220.925 217.26C223.541 216.036 226.142 214.813 228.733 213.598C254.275 201.601 278.402 190.269 307.755 180.643C346.685 167.875 391.247 156.257 436.618 147.041C478.026 138.632 518.773 132.837 557.722 129.82C602.225 126.374 645.896 126.428 687.523 129.982C749.35 135.261 808.334 148.67 862.829 169.838C885.831 178.792 908.402 188.264 930.232 197.426C935.772 199.751 941.503 202.155 947.145 204.512C1010.58 231.009 1068.56 254.37 1135.81 271.928C1159.25 278.052 1183.89 283.845 1209.04 289.148C1240.48 295.736 1271.46 301.376 1301.14 305.91C1347.66 313.018 1405.56 321.861 1462.65 315.085C1493.1 311.471 1516.84 304.061 1535.22 292.431C1569.85 270.52 1579.87 237.494 1587.92 210.956C1591.06 200.619 1594.02 190.857 1598.03 182.91C1599.3 180.405 1600.58 177.824 1601.81 175.328C1608.22 162.358 1614.86 148.945 1624.81 135.975C1640.17 115.791 1669.35 88.7903 1721.14 74.7782C1735.45 70.9094 1750.2 68.0609 1766.25 66.0709C1808.24 60.7897 1858.23 62.4985 1914.84 71.1468C1959.61 77.987 2002.64 89.4301 2039.3 104.24C2080.3 120.766 2115.43 141.605 2143.71 166.183C2156.69 177.456 2168.15 189.496 2177.8 201.97C2187.01 213.884 2194.61 226.256 2200.38 238.743L2199.04 238.875C2173.59 183.853 2116.53 136.207 2038.39 104.713C2001.87 89.9587 1959 78.5594 1914.4 71.7445C1858.06 63.1348 1808.33 61.4311 1766.61 66.6787C1750.68 68.6535 1736.03 71.4802 1721.84 75.3203C1670.41 89.2348 1641.39 116.097 1626.1 136.182C1616.18 149.118 1609.56 162.513 1603.15 175.466C1601.91 177.962 1600.64 180.545 1599.37 183.052C1595.37 190.971 1592.41 200.721 1589.28 211.042C1585.23 224.396 1580.64 239.531 1572.79 253.816C1563.77 270.231 1551.84 282.983 1536.33 292.802C1527.48 298.403 1517.12 303.127 1505.56 306.841C1493.1 310.843 1478.78 313.822 1462.99 315.695C1449.14 317.341 1434.67 318.163 1419.33 318.163Z" fill="#F5F5DC"/>
<path d="M1440.44 321.311C1425.08 321.311 1408.89 320.397 1391.6 318.564C1363.58 315.596 1336.62 310.67 1312.83 306.323C1282.88 300.851 1251.87 294.287 1220.64 286.81C1195.62 280.792 1171.1 274.297 1147.79 267.504C1083.62 248.825 1028.59 224.75 970.323 199.265C967.44 198.004 964.556 196.741 961.665 195.478C934.57 183.64 906.555 171.397 877.349 160.084C822.092 138.721 761.544 126.175 697.387 122.795C616.8 118.547 529.857 128.246 438.967 151.619C393.504 163.309 347.868 178.045 310.466 193.111C282.224 204.487 259.573 217.287 235.592 230.839C232.752 232.444 229.905 234.053 227.036 235.666C221.305 238.893 214.487 242.72 207.349 246.634C194.129 253.902 176.117 263.138 153.964 270.086C129.969 277.613 104.87 281.45 77.2325 281.812C54.5155 282.073 29.4463 280.462 0.58844 276.884C-24.1877 273.813 -48.1541 269.8 -74.6743 265.254C-98.8824 261.054 -124.432 256.715 -147.354 253.85C-215.252 245.362 -286.971 237.929 -360.516 231.754L-360.252 231.092C-286.664 237.269 -214.904 244.708 -146.969 253.2C-123.985 256.074 -98.3988 260.419 -74.1613 264.623C-29.7094 272.244 25.6137 281.733 77.1922 281.139C136.161 280.364 174.058 263.889 206.224 246.2C213.358 242.289 220.173 238.464 225.9 235.238C228.769 233.626 231.616 232.016 234.452 230.413C258.473 216.839 281.165 204.017 309.499 192.604C346.978 177.508 392.701 162.744 438.252 151.031C529.417 127.588 616.661 117.864 697.555 122.126C728.571 123.761 759.037 127.558 788.101 133.41C819.285 139.687 849.63 148.491 878.294 159.57C907.533 170.895 935.567 183.145 962.677 194.992C965.568 196.256 968.455 197.517 971.338 198.778C1029.55 224.242 1084.53 248.293 1148.57 266.936C1171.86 273.719 1196.33 280.206 1221.32 286.214C1252.5 293.679 1283.47 300.235 1313.37 305.698C1360.37 314.284 1418.86 324.97 1476.69 318.772C1508.02 315.415 1531.91 307.961 1549.73 295.984C1584.05 273.108 1590.16 238.163 1595.07 210.085C1596.83 200.042 1598.49 190.557 1601.24 182.887C1601.81 181.305 1602.38 179.714 1602.95 178.114C1608.08 163.668 1613.4 148.728 1622.63 134.149C1635.82 113.178 1662.2 84.7434 1713.06 68.3659C1727.25 63.7968 1742.05 60.2816 1758.32 57.6182C1780.93 53.8824 1806.13 52.1265 1833.21 52.3959C1857.93 52.6417 1884.33 54.5727 1911.67 58.1334C1958.05 64.1722 2002.4 75.1439 2039.92 89.8614C2081.93 106.306 2117.33 127.347 2145.14 152.396C2157.9 163.89 2168.94 176.178 2177.97 188.919C2186.62 201.122 2193.45 213.772 2198.26 226.518L2196.82 226.632C2175.84 171.091 2118.3 121.426 2038.97 90.3732C2001.61 75.7196 1957.45 64.7935 1911.27 58.7782C1854.32 51.3605 1801.61 51.1787 1758.81 58.2495C1742.66 60.8927 1727.97 64.381 1713.9 68.9148C1663.39 85.1795 1637.15 113.468 1624.04 134.334C1614.83 148.875 1609.52 163.792 1604.39 178.22C1603.82 179.82 1603.25 181.412 1602.69 182.995C1599.94 190.636 1598.29 200.11 1596.53 210.137C1591.6 238.296 1585.47 273.342 1550.93 296.364C1542.34 302.137 1532.07 306.969 1520.41 310.722C1507.86 314.759 1493.26 317.688 1477.02 319.429C1465.3 320.682 1453.16 321.311 1440.44 321.311Z" fill="#F5F5DC"/>
<path d="M1460.27 324.589C1442.77 324.589 1424.24 323.29 1404.27 320.68C1376.01 316.988 1348.88 311.222 1324.95 306.136C1294.71 299.708 1263.71 292.225 1232.81 283.898C1207.97 277.181 1183.62 269.99 1160.44 262.531C1103.36 244.167 1054.59 221.669 1002.94 197.851C994.499 193.957 985.768 189.931 977.106 185.973C946.658 172.067 920.658 160.601 892.749 149.845C836.507 128.199 774.182 116.47 707.5 114.982C623.711 113.111 533.961 126.782 440.748 155.612C394.442 169.936 348.847 187.495 312.365 205.058C284.881 218.289 263.395 232.692 240.649 247.939C237.831 249.828 235.002 251.724 232.155 253.621C227.084 257.007 220.372 261.468 213.443 265.942C184.285 284.811 146.19 304.237 84.7408 305.23C82.8245 305.259 80.9009 305.272 78.981 305.272C30.9969 305.272 -17.9911 296.547 -68.1075 286.804L-71.2366 286.191C-96.0604 281.322 -119.51 276.725 -141.216 273.378C-223.015 260.765 -302.125 250.118 -361.907 242.252L-361.479 241.564C-301.682 249.433 -222.55 260.081 -140.721 272.699C-118.957 276.055 -95.4815 280.659 -70.6248 285.533L-67.4993 286.146C-15.5471 296.245 35.1886 305.254 84.6859 304.517C145.454 303.533 183.23 284.257 212.172 265.529C219.097 261.059 225.802 256.601 230.873 253.217C233.72 251.318 236.545 249.424 239.363 247.535C262.145 232.264 283.664 217.838 311.236 204.565C347.792 186.965 393.479 169.37 439.876 155.018C482.939 141.698 526.017 131.47 567.912 124.617C615.98 116.753 662.971 113.271 707.573 114.266C774.599 115.761 837.24 127.548 893.746 149.294C921.695 160.067 947.721 171.545 978.198 185.463C986.864 189.421 995.595 193.448 1004.04 197.342C1055.63 221.137 1104.37 243.613 1161.33 261.94C1184.48 269.391 1208.79 276.57 1233.59 283.277C1264.45 291.594 1295.4 299.065 1325.6 305.483C1373.01 315.559 1432.01 328.098 1490.73 322.453C1522.82 319.367 1546.87 311.868 1564.23 299.53C1598.11 275.612 1600.15 238.7 1601.79 209.041C1602.32 199.364 1602.83 190.223 1604.45 182.857L1604.48 182.689C1608.11 166.195 1611.85 149.141 1620.45 132.314C1627.89 117.637 1638.25 104.441 1651.25 93.0908C1665.91 80.2942 1683.98 69.8159 1704.96 61.9453C1719 56.6792 1733.86 52.4956 1750.37 49.1572C1794.99 40.0846 1849.66 38.6839 1908.49 45.1099C1932.16 47.6959 1955.51 51.6134 1977.9 56.7516C2000.41 61.9201 2021.49 68.2216 2040.54 75.4776C2083.57 91.8433 2119.24 113.083 2146.56 138.607C2171.12 161.549 2188.26 187.719 2196.14 214.287L2194.6 214.383C2177.74 157.52 2121.23 107.091 2039.54 76.0281C2001.35 61.479 1955.9 51.0276 1908.13 45.8103C1849.64 39.4212 1795.31 40.8068 1751.01 49.8171C1734.62 53.1303 1719.89 57.2802 1705.95 62.5043C1666.77 77.1999 1637.73 101.397 1621.97 132.481C1613.4 149.264 1609.66 166.295 1606.04 182.765L1606 182.933C1604.39 190.271 1603.88 199.4 1603.35 209.063C1601.7 238.813 1599.66 275.836 1565.53 299.922C1557.16 305.872 1546.96 310.808 1535.23 314.592C1522.58 318.673 1507.72 321.554 1491.04 323.158C1481.11 324.111 1470.88 324.589 1460.27 324.589Z" fill="#F5F5DC"/>
<path d="M85.8798 328.712C64.4233 328.712 41.0578 326.791 14.6879 322.868C-11.5135 318.971 -37.4256 313.59 -61.5275 308.358C-65.8914 307.405 -70.2222 306.454 -74.5238 305.509C-95.9363 300.807 -116.162 296.366 -135.064 292.906C-210.437 279.116 -282.281 266.722 -351.762 254.739L-363.274 252.752L-362.696 252.043L-351.183 254.03C-281.699 266.017 -209.843 278.411 -134.456 292.204C-115.502 295.672 -95.2512 300.119 -73.813 304.827C-69.515 305.772 -65.1842 306.723 -60.824 307.674C-11.3487 318.415 41.2154 328.825 92.1966 327.897C154.866 326.698 192.422 304.267 218.136 284.861C224.724 279.898 231.07 274.951 235.863 271.197C238.508 269.128 241.135 267.061 243.755 264.998C265.483 247.902 286.005 231.753 312.994 216.527C348.62 196.433 394.262 176.005 441.521 159.009C485.365 143.241 529.608 130.783 573.026 121.981C622.828 111.885 671.471 106.646 717.605 106.409C787.024 105.934 851.499 116.907 909.215 139.021C941.209 151.294 969.895 164.57 993.74 175.939C1006.71 182.126 1019.69 188.468 1032.24 194.601C1076.66 216.314 1122.59 238.764 1174.1 256.948C1197.11 265.072 1221.27 272.945 1245.88 280.344C1276.35 289.48 1307.29 297.868 1337.85 305.272C1385.61 316.845 1445.05 331.247 1504.77 326.136C1537.64 323.323 1561.84 315.781 1578.74 303.078C1612.18 278.076 1609.92 239.142 1608.1 207.859C1607.57 198.608 1607.06 189.869 1607.67 182.833C1609.04 166.972 1611.11 148.539 1618.28 130.485C1624.33 115.187 1633.45 101.346 1645.4 89.3494C1658.92 75.7784 1676.25 64.401 1696.89 55.5321C1710.57 49.6549 1725.9 44.6666 1742.45 40.7035C1766.06 35.03 1792.57 31.4626 1821.22 30.1023C1848.06 28.8278 1876.35 29.4979 1905.32 32.0922C1929.74 34.2808 1953.82 37.8802 1976.88 42.7928C2000.08 47.7357 2021.71 53.894 2041.17 61.0962C2063.6 69.3894 2084.22 79.1825 2102.47 90.2047C2119.75 100.648 2135.07 112.294 2148 124.82C2172.19 148.253 2188.11 174.964 2194.03 202.061L2192.39 202.137C2179.67 143.948 2124.18 92.7569 2040.13 61.6872C2001.64 47.441 1953.66 37.195 1905 32.8363C1844.84 27.4473 1788.9 30.4002 1743.21 41.3752C1726.79 45.3063 1711.58 50.2559 1698.01 56.086C1659.12 72.7968 1632.83 97.8732 1619.9 130.621C1612.75 148.627 1610.68 167.028 1609.31 182.863C1608.71 189.874 1609.21 198.599 1609.75 207.839C1610.64 223.272 1611.66 240.765 1608.26 257.677C1604.31 277.3 1595.12 292.28 1580.15 303.474C1572 309.599 1561.88 314.641 1550.07 318.459C1537.32 322.584 1522.18 325.417 1505.08 326.88C1496.45 327.619 1487.83 327.954 1479.26 327.954C1427.93 327.954 1378.2 315.903 1337.08 305.94C1306.48 298.524 1275.49 290.125 1244.99 280.975C1220.33 273.566 1196.14 265.682 1173.1 257.545C1121.48 239.324 1075.5 216.851 1031.04 195.118C1018.49 188.986 1005.52 182.646 992.557 176.463C968.744 165.107 940.099 151.849 908.163 139.6C850.759 117.604 786.661 106.695 717.631 107.163C609.223 107.722 508.199 135.987 442.539 159.602C395.376 176.564 349.825 196.948 314.277 217.002C287.368 232.183 266.875 248.306 245.181 265.375C242.561 267.438 239.93 269.505 237.285 271.576C232.488 275.332 226.139 280.281 219.547 285.25C208.753 293.396 191.807 305.255 169.361 314.144C158.46 318.461 146.86 321.853 134.882 324.229C121.527 326.877 107.186 328.365 92.2662 328.65C90.1521 328.692 88.0233 328.712 85.8798 328.712Z" fill="#F5F5DC"/>
<path d="M92.7689 352.151C71.2867 352.151 47.9689 350.082 21.7381 345.859C-5.41959 341.489 -32.2696 335.344 -54.9499 329.908C-61.9189 328.234 -68.8731 326.537 -75.6003 324.896C-94.4041 320.308 -112.167 315.973 -128.915 312.434C-189.06 299.724 -248.813 287.314 -306.602 275.312C-325.717 271.342 -345.481 267.238 -364.637 263.251L-363.919 262.522C-344.763 266.509 -324.999 270.614 -305.884 274.583C-248.095 286.585 -188.335 298.996 -128.186 311.709C-111.394 315.258 -93.609 319.596 -74.7832 324.191C-68.0598 325.832 -61.1054 327.527 -54.1438 329.201C-7.10507 340.47 47.4559 352.4 99.7012 351.277C163.847 349.866 199.876 325.372 224.102 304.192C230.313 298.766 236.318 293.318 240.854 289.178C243.184 287.053 245.5 284.93 247.812 282.812C268.594 263.763 288.222 245.771 314.757 228.493C349.269 206.021 394.875 182.763 443.167 163.003C510.42 135.604 614.364 102.182 727.634 98.5573C799.669 96.1902 865.969 106.349 924.685 128.753C951.066 138.824 977.154 150.441 1009.28 166.422C1025.52 174.498 1041.63 182.869 1057.21 190.962C1097.74 212.018 1139.65 233.791 1186.88 251.965C1209.75 260.772 1233.74 269.336 1258.17 277.42C1287.76 287.2 1318.68 296.503 1350.09 305.072C1398.34 318.155 1458.38 334.44 1518.82 329.83C1551.95 327.356 1576.99 319.552 1593.25 306.64C1626.22 280.506 1619.15 237.751 1613.98 206.533C1612.53 197.772 1611.16 189.497 1610.89 182.822C1610.29 167.987 1610.34 148.425 1616.12 128.669C1626.09 94.4343 1650.55 67.6727 1688.81 49.1318C1702.22 42.5997 1717.61 36.9245 1734.52 32.2628C1758.59 25.6229 1785.74 21.1564 1815.23 18.9897C1843.02 16.9493 1872.26 16.9813 1902.14 19.0857C1927.36 20.9005 1952.16 24.1902 1975.85 28.8603C1999.78 33.5776 2021.96 39.5878 2041.8 46.7244C2064.73 54.9704 2085.68 64.7972 2104.06 75.9338C2121.49 86.4879 2136.75 98.2997 2149.44 111.044C2173.26 134.971 2187.95 162.22 2191.92 189.847L2190.18 189.899C2181.62 130.383 2127.15 78.4271 2040.73 47.3557C2001.55 33.2594 1952.23 23.4999 1901.88 19.8769C1839.81 15.5082 1782.25 20.0285 1735.42 32.9496C1718.64 37.5727 1703.39 43.2024 1690.08 49.6824C1652.07 68.1003 1627.77 94.7104 1617.85 128.777C1612.09 148.479 1612.04 168.002 1612.63 182.808C1612.91 189.46 1614.27 197.725 1615.72 206.474C1618.39 222.611 1621.42 240.902 1619.69 258.76C1617.67 279.553 1609.52 295.346 1594.76 307.042C1586.82 313.35 1576.78 318.502 1564.91 322.354C1552.05 326.531 1536.64 329.312 1519.11 330.622C1491.92 332.694 1462.66 330.832 1429.65 324.928C1400.96 319.795 1373.47 312.34 1349.21 305.764C1317.76 297.183 1286.79 287.866 1257.16 278.073C1232.69 269.977 1208.67 261.401 1185.76 252.583C1138.44 234.372 1096.48 212.575 1055.9 191.497C1040.33 183.406 1024.23 175.041 1008.01 166.971C975.934 151.018 949.894 139.424 923.575 129.376C865.207 107.1 799.328 97.0017 727.751 99.3536C614.969 102.965 511.369 136.284 444.317 163.601C396.121 183.32 350.61 206.53 316.172 228.954C289.71 246.184 270.111 264.15 249.362 283.171C247.05 285.291 244.734 287.414 242.404 289.538C237.864 293.681 231.855 299.134 225.637 304.565C201.198 325.935 164.807 350.647 99.7782 352.077C97.4662 352.126 95.1248 352.151 92.7689 352.151Z" fill="#F5F5DC"/>
<path d="M99.7962 375.59C41.0986 375.59 -20.49 359.026 -75.0876 344.34C-91.8651 339.828 -107.712 335.566 -122.771 331.961L-366 273.749L-365.154 273.004L-121.925 331.215C-106.825 334.828 -90.9601 339.096 -74.1606 343.615C-17.4525 358.868 46.8254 376.156 107.205 374.657C172.765 373.033 207.302 346.477 230.067 323.525C237.512 316.018 244.701 308.38 251.655 300.992C270.675 280.79 290.34 259.899 316.512 240.456C337.294 225.018 363.111 208.827 391.17 193.636C421.952 176.971 454.91 161.681 489.121 148.193C526.842 133.322 565.197 121.02 603.116 111.631C645.058 101.247 686.377 94.4675 725.934 91.4793C805.176 85.4943 877.247 94.577 940.14 118.478C992.407 138.339 1036.83 162.898 1079.79 186.65C1117.19 207.324 1155.85 228.7 1199.64 246.973C1250.21 268.078 1304.95 287.554 1362.33 304.86C1410.68 319.441 1470.85 337.589 1532.86 333.51C1585.24 330.066 1615.52 313.964 1625.43 284.283C1633.87 259.037 1625.84 229.088 1619.4 205.026C1617.2 196.825 1615.13 189.079 1614.11 182.798C1608.49 148.171 1612.07 119.586 1625.06 95.412C1633.16 80.3292 1645.12 66.8844 1660.6 55.4515C1677.89 42.6802 1700.09 32.0335 1726.59 23.8077C1749.5 16.6914 1775.33 11.5229 1803.36 8.44537C1830.04 5.51601 1858.12 4.53451 1886.84 5.5278C1943.32 7.48071 1998.57 17.0028 2042.41 32.3382C2065.84 40.5353 2087.12 50.3975 2105.65 61.6486C2123.21 72.3122 2138.42 84.2905 2150.86 97.2538C2174.3 121.674 2187.76 149.464 2189.79 177.618L2187.96 177.646C2183.64 117.692 2128.81 63.6217 2041.3 33.0099C1948.36 0.500747 1816.43 -3.07677 1727.6 24.5063C1639.61 51.8302 1603.08 103.587 1615.93 182.736C1616.94 188.997 1619.02 196.732 1621.21 204.923C1627.67 229.038 1635.71 259.05 1627.24 284.411C1622.62 298.225 1613.35 309.326 1599.67 317.409C1591.97 321.952 1582.7 325.666 1572.1 328.444C1560.82 331.401 1547.7 333.385 1533.12 334.345C1527.16 334.737 1521.09 334.934 1514.93 334.934C1492.45 334.934 1468.52 332.323 1442.29 327.033C1412.74 321.074 1384.23 312.474 1361.32 305.565C1303.86 288.235 1249.05 268.732 1198.4 247.597C1154.51 229.285 1115.81 207.884 1078.37 187.188C1035.47 163.467 991.099 138.938 938.964 119.128C876.492 95.3901 804.915 86.3663 726.22 92.3109C567.032 104.335 403.053 177.764 318.058 240.9C291.956 260.289 272.317 281.152 253.322 301.327C246.364 308.718 239.172 316.361 231.719 323.875C216.605 339.113 201.678 350.024 184.743 358.209C174.172 363.317 162.704 367.344 150.657 370.178C137.261 373.327 122.671 375.119 107.289 375.501C104.805 375.56 102.302 375.59 99.7962 375.59Z" fill="#F5F5DC"/>
</g>
</svg>
