<svg width="483" height="32" viewBox="0 0 483 32" fill="none" xmlns="http://www.w3.org/2000/svg">
<path d="M454.195 16.3146C453.534 16.3413 452.866 16.36 452.218 16.3993C451.798 16.4239 451.617 16.3543 451.336 16.3182C451.242 16.3057 451.141 16.2804 451.055 16.2837C450.4 16.3103 449.746 16.3401 449.092 16.3699C448.892 16.4323 448.766 16.5152 448.459 16.5459C448.159 16.5751 447.805 16.5757 447.471 16.5906C447.03 16.6089 446.589 16.6272 446.149 16.6439C445.928 16.6522 445.748 16.6827 445.675 16.7401C445.662 16.7497 445.809 16.7732 445.89 16.7874C446.157 16.8346 446.419 16.8882 446.713 16.9242C446.994 16.9587 447.341 16.9008 447.642 16.9448C448.318 17.0437 448.325 17.0421 448.839 17.0221C449.279 17.0039 449.72 16.984 450.161 16.9705C450.248 16.9672 450.348 16.9908 450.442 17.0034C450.723 17.0378 450.904 17.117 451.318 17.086C451.632 17.0616 451.979 17.0562 452.306 17.0429C452.581 17.0885 452.835 17.1405 453.13 17.1766C453.404 17.2111 453.484 17.2379 453.338 17.2843C453.205 17.3275 453.018 17.3453 452.771 17.3489C452.55 17.3509 452.33 17.3656 452.11 17.3739C451.996 17.3789 451.889 17.3823 451.783 17.3873C451.362 17.4055 451.362 17.4055 450.592 17.3051C450.291 17.2659 449.951 17.3222 449.664 17.2845C449.47 17.2595 449.302 17.2216 449.115 17.1949C449.034 17.1839 448.907 17.1826 448.807 17.1859C448.473 17.1977 448.139 17.2062 447.819 17.2275C447.592 17.2422 447.459 17.2869 447.486 17.3314C447.493 17.3489 447.654 17.374 447.747 17.3754C447.961 17.3782 448.188 17.3556 448.395 17.3663C448.596 17.3771 448.803 17.4085 448.951 17.4432C449.252 17.5158 449.592 17.45 449.879 17.4686C450.18 17.4887 450.428 17.5518 450.716 17.5895C450.789 17.5989 450.93 17.5827 451.043 17.5777C451.37 17.566 451.698 17.5559 452.025 17.5442C452.299 17.5898 452.594 17.6306 452.842 17.6826C453.29 17.7772 453.772 17.8129 454.352 17.7657C454.679 17.7397 455 17.7487 455.261 17.8102C455.529 17.8733 455.837 17.8664 456.177 17.8531C456.491 17.8398 456.811 17.8042 457.132 17.8482C457.828 17.9455 457.835 17.9503 458.656 17.9106C458.904 17.8991 459.09 17.8955 459.278 17.9318C459.452 17.9648 459.639 17.9931 459.82 18.0246C460.147 18.0129 460.481 18.0011 460.809 17.9878C461.229 17.9696 461.463 17.9914 461.564 18.0803C461.625 18.1342 461.653 18.1834 461.8 18.2197C461.974 18.2639 462.161 18.262 462.415 18.2488C462.655 18.2373 462.829 18.2195 462.928 18.1621C462.968 18.1381 463.048 18.1157 463.121 18.0965C463.181 18.0821 463.275 18.0597 463.328 18.0628C463.428 18.069 463.562 18.0862 463.596 18.1068C463.925 18.2986 463.925 18.3002 464.26 18.3552C464.628 18.4165 465.01 18.4715 465.345 18.5408C465.646 18.6023 465.946 18.5747 466.274 18.5741C466.521 18.5737 466.682 18.6147 466.662 18.6561C466.649 18.68 466.556 18.7151 466.476 18.7184C465.821 18.7514 465.16 18.7796 464.499 18.803C464.419 18.8064 464.319 18.7779 464.225 18.7638C464.037 18.7355 463.87 18.6913 463.669 18.6821C463.469 18.673 463.235 18.6972 463.015 18.7056C462.795 18.7139 462.561 18.735 462.36 18.7227C462.16 18.7103 461.999 18.6645 461.812 18.6346C461.725 18.6205 461.604 18.6 461.531 18.6049C461.043 18.6439 460.682 18.5921 460.334 18.5228C460.26 18.5086 460.133 18.4993 460.04 18.5027C459.265 18.5311 458.497 18.5643 457.723 18.5959C457.409 18.6091 457.154 18.554 457.086 18.4603C457.052 18.4079 456.985 18.3555 456.984 18.3031C456.983 18.2077 456.615 18.1559 456.348 18.1675C455.907 18.1842 455.46 18.1977 455.026 18.2224C454.672 18.2421 454.371 18.2235 454.13 18.1667C453.849 18.1021 453.528 18.1154 453.208 18.1334C452.967 18.1466 452.901 18.1992 452.916 18.3311C452.931 18.4376 452.817 18.4711 452.383 18.4894C451.836 18.5126 451.282 18.5359 450.727 18.5544C450.64 18.5577 450.54 18.5309 450.453 18.5167C450.266 18.4884 450.098 18.4426 449.897 18.4335C449.697 18.4227 449.463 18.447 449.243 18.4569C449.023 18.4652 448.789 18.4879 448.589 18.4771C448.388 18.4664 448.22 18.419 448.04 18.3891C447.953 18.375 447.846 18.3545 447.759 18.3578C447.318 18.3713 446.877 18.3912 446.437 18.4095C445.942 18.4294 445.942 18.4295 445.24 18.3322C444.919 18.2882 444.598 18.3238 444.285 18.3371C443.951 18.3504 443.637 18.3573 443.375 18.2942C443.201 18.2532 443.007 18.2281 442.8 18.2364C442.246 18.2565 441.699 18.2813 441.144 18.3014C441.051 18.3047 440.924 18.297 440.85 18.2828C440.495 18.2167 440.147 18.1648 439.653 18.1991C439.226 18.2285 438.765 18.2309 438.338 18.2587C438.104 18.2734 437.998 18.3245 438.045 18.3642C438.072 18.3848 438.213 18.4084 438.306 18.4082C438.52 18.4094 438.754 18.3851 438.954 18.3943C439.368 18.4126 439.577 18.5458 440.118 18.5083C440.438 18.4854 440.772 18.4769 441.106 18.4699C441.193 18.4682 441.287 18.4982 441.38 18.5139C441.648 18.5564 441.883 18.6116 442.27 18.5823C442.59 18.5595 442.931 18.5525 443.258 18.5392C443.779 18.5176 443.779 18.5192 444.455 18.6149C444.776 18.6605 445.096 18.6233 445.41 18.6116C445.644 18.6033 445.864 18.587 446.051 18.6089C446.339 18.6418 446.547 18.7177 446.901 18.7123C447.235 18.7069 447.562 18.6841 447.896 18.6755C448.103 18.6704 448.297 18.6955 448.465 18.7381C448.639 18.7807 448.826 18.7994 449.053 18.7895C449.38 18.7762 449.714 18.7597 450.048 18.7511C450.142 18.7494 450.249 18.7635 450.336 18.776C450.523 18.8043 450.704 18.8374 450.885 18.8673C451.212 18.8571 451.546 18.8534 451.866 18.8337C452.113 18.819 452.287 18.825 452.488 18.8564C452.742 18.8989 452.95 18.9748 453.364 18.9375C453.571 18.9197 453.812 18.924 454.018 18.9077C454.272 18.8866 454.446 18.8942 454.627 18.9416C454.968 19.0316 455.396 19.0324 455.837 18.9967C456.317 18.9576 456.678 19.0015 457.04 19.0708C457.422 19.1433 457.422 19.1417 457.718 19.3176C457.805 19.3683 458.052 19.3917 458.259 19.3818C458.607 19.3653 458.907 19.3727 459.162 19.4326C459.43 19.4973 459.75 19.4888 460.078 19.4707C460.512 19.4461 460.946 19.4247 461.301 19.5162C461.475 19.5604 461.662 19.5712 461.896 19.5596C462.557 19.5298 463.225 19.5112 463.872 19.475C464.266 19.4521 464.494 19.5025 464.762 19.545C465.123 19.6031 465.518 19.6549 465.519 19.7805C465.52 19.8011 465.614 19.8248 465.694 19.8406C465.868 19.8736 466.055 19.9019 466.236 19.9334C466.504 19.9806 466.765 20.0199 467.132 19.9938C467.452 19.9725 467.793 19.9655 468.12 19.9506C468.447 19.9358 468.748 19.9273 469.043 19.9871C469.384 20.0549 469.746 20.1194 470.134 20.1696C470.408 20.2057 470.768 20.143 471.063 20.1918C471.243 20.2216 471.417 20.2563 471.611 20.2814C471.692 20.2924 471.819 20.2842 471.926 20.2808C472.146 20.2741 472.373 20.2689 472.587 20.2526C472.834 20.2347 473.021 20.2375 473.208 20.2738C473.382 20.3068 473.556 20.3526 473.757 20.3618C474.058 20.3756 474.391 20.3114 474.692 20.384C474.847 20.4202 475.041 20.4549 475.241 20.4656C475.442 20.4764 475.675 20.4521 475.889 20.4533C475.983 20.4532 476.097 20.4784 476.15 20.499C476.184 20.51 476.137 20.5403 476.091 20.5563C476.031 20.5755 475.944 20.6011 475.858 20.6044C475.196 20.6342 474.535 20.6593 473.874 20.6875C473.48 20.7041 473.48 20.7041 472.684 20.6054C472.497 20.5818 472.29 20.587 472.056 20.5985C471.742 20.6134 471.422 20.641 471.094 20.613C470.666 20.5057 470.138 20.497 469.577 20.5394C469.343 20.5573 469.129 20.5577 468.955 20.5278C468.587 20.468 468.199 20.4131 467.871 20.3422C467.617 20.287 467.496 20.2824 467.39 20.3589C467.357 20.3828 467.324 20.4083 467.331 20.4306C467.372 20.51 467.446 20.5877 467.487 20.6671C467.501 20.6894 467.448 20.7149 467.415 20.7388C467.309 20.8058 467.168 20.8012 466.934 20.746C466.699 20.6908 466.418 20.6548 466.045 20.6809C465.724 20.7037 465.377 20.7012 465.056 20.7256C464.562 20.7614 464.214 20.7112 463.859 20.6435C463.786 20.6293 463.659 20.6216 463.565 20.6249C462.57 20.6633 461.582 20.7064 460.587 20.7447C460.373 20.7531 460.179 20.7296 460.012 20.6869C459.838 20.6443 459.644 20.6224 459.43 20.6308C458.548 20.6657 457.667 20.6975 456.786 20.7404C456.425 20.7586 456.138 20.7384 455.89 20.6832C455.702 20.6422 455.528 20.6298 455.295 20.635C455.041 20.6402 454.861 20.6565 454.734 20.7028C454.615 20.7475 454.702 20.7744 454.969 20.8089C455.257 20.8465 455.525 20.8953 455.799 20.9393C456.02 20.9326 456.24 20.9194 456.454 20.9206C456.547 20.9205 456.635 20.9489 456.728 20.9647C456.996 21.0103 457.244 21.056 457.624 21.0298C457.945 21.007 458.285 21.0016 458.612 20.9867C459.066 20.9684 459.066 20.9684 459.803 21.0673C459.99 21.0923 460.19 21.0904 460.431 21.0756C460.638 21.0641 460.852 21.086 460.999 21.1334C461.06 21.1524 461.04 21.1843 460.914 21.2894C460.915 21.3673 461.055 21.3321 461.101 21.2811C461.174 21.2079 461.033 21.1843 460.766 21.2245C460.58 21.2534 460.487 21.2949 460.534 21.3282C460.561 21.3457 460.688 21.3677 460.914 21.2894C461.501 21.193 461.948 21.181 462.376 21.1548C462.629 21.1401 462.79 21.1461 462.991 21.1871C463.232 21.2359 463.473 21.288 463.867 21.2618C464.294 21.2325 464.748 21.2284 465.182 21.2038C465.583 21.1808 465.791 21.2504 466.045 21.2913C466.353 21.34 466.693 21.2838 466.974 21.3119C467.268 21.34 467.476 21.4095 467.817 21.4216C468.311 21.3778 468.626 21.4568 469 21.5085C469.295 21.5478 469.642 21.5122 469.956 21.4941C470.309 21.4744 470.604 21.4914 470.851 21.5481C471.133 21.6128 471.447 21.5979 471.767 21.5831C472.515 21.5499 472.542 21.5451 472.977 21.6317C473.292 21.6948 473.592 21.6656 473.906 21.6571C474.18 21.6995 474.448 21.7451 474.736 21.7828C474.809 21.7922 474.949 21.776 475.063 21.7711C475.39 21.7578 475.724 21.7445 476.051 21.7311C476.272 21.7228 476.505 21.6985 476.706 21.7077C476.906 21.7185 477.074 21.7643 477.254 21.7942C477.435 21.824 477.623 21.8539 477.797 21.8854C478.065 21.9326 478.319 21.9719 478.693 21.9474C479.013 21.9261 479.347 21.9192 479.681 21.9043C480.101 21.886 480.088 21.8908 480.871 21.9848C481.292 22.0365 481.726 21.9721 482.153 21.965C482.367 21.9614 482.574 21.9785 482.722 22.0244C482.782 22.0434 482.763 22.0752 482.783 22.1022C481.681 22.1471 480.573 22.1856 479.484 22.24C479.064 22.2615 478.843 22.2046 478.615 22.1573C478.24 22.0817 477.747 22.1939 477.392 22.0959C477.177 22.0375 476.869 22.0047 476.502 22.034C476.289 22.0503 476.062 22.0491 475.841 22.0638C475.28 22.0997 474.766 22.1023 474.317 21.9934C474.163 21.9555 473.943 21.9352 473.782 21.899C473.594 21.8596 473.414 21.8376 473.193 21.846C472.198 21.8859 471.21 21.9258 470.222 21.9689C470.135 21.9723 470.048 21.9963 469.975 22.0139C469.788 22.0587 469.849 22.0936 470.15 22.1217C470.25 22.131 470.331 22.1516 470.425 22.1673C470.605 22.1972 470.773 22.2446 470.973 22.2553C471.174 22.2661 471.407 22.2434 471.628 22.2351C471.848 22.2267 472.082 22.2025 472.282 22.2116C472.483 22.2224 472.65 22.2682 472.838 22.2965C472.925 22.3106 473.032 22.3343 473.119 22.3325C473.56 22.3222 473.994 22.3039 474.434 22.2888C474.709 22.3313 474.943 22.3929 475.271 22.4066C475.478 22.4157 475.698 22.3978 475.912 22.4006C476.006 22.4021 476.126 22.4257 476.173 22.4463C476.2 22.459 476.114 22.4909 476.047 22.5069C475.794 22.5678 475.446 22.5573 475.133 22.5769C474.792 22.5982 474.485 22.5924 474.223 22.5309C474.049 22.4898 473.855 22.4679 473.641 22.4763C473.087 22.4979 472.54 22.5228 471.985 22.5412C471.892 22.5446 471.778 22.5305 471.691 22.5195C470.989 22.4238 470.989 22.4206 470.494 22.4422C469.767 22.4737 469.767 22.4737 469.278 22.3903C469.184 22.3746 469.084 22.3446 469.004 22.3463C468.229 22.3731 467.461 22.3999 466.693 22.4379C466.439 22.4495 466.266 22.4498 466.078 22.4088C465.917 22.3741 465.73 22.3347 465.529 22.3255C465.322 22.3164 465.095 22.3406 464.875 22.349C464.655 22.3573 464.421 22.3784 464.227 22.366C464.027 22.3537 463.852 22.3095 463.678 22.278C463.497 22.2449 463.304 22.2468 463.057 22.26C462.296 22.2979 462.289 22.2932 461.533 22.196C461.446 22.185 461.332 22.1725 461.239 22.1759C460.684 22.1959 460.137 22.2208 459.583 22.2408C459.369 22.2492 459.162 22.2289 459.014 22.183C458.954 22.1641 458.973 22.1322 458.933 22.0703C458.886 22.0561 458.939 22.0814 458.953 22.1052C459.053 22.1019 459.173 22.1048 459.247 22.092C459.434 22.0615 459.526 22.0215 459.479 21.9882C459.452 21.9708 459.325 21.9488 459.245 21.9489C459.098 21.9492 458.972 21.9844 458.933 22.0703C458.512 22.1235 458.065 22.1355 457.631 22.1617C457.377 22.178 457.217 22.1704 457.016 22.1294C456.775 22.079 456.527 22.0301 456.133 22.0563C455.706 22.0856 455.252 22.0912 454.811 22.1143C454.304 22.1406 454.081 21.9979 453.654 22.0019C453.213 22.0059 452.772 22.0337 452.332 22.0536C451.944 22.0701 451.944 22.0701 451.142 21.9683C450.847 21.9306 450.501 21.9869 450.213 21.9477C450.019 21.9226 449.851 21.8847 449.664 21.858C449.584 21.8471 449.457 21.8473 449.357 21.8506C448.802 21.8707 448.241 21.8845 447.707 21.9204C447.1 21.9628 446.638 21.9191 446.203 21.8261C445.655 21.8446 445.101 21.8551 444.56 21.8863C444.166 21.9093 443.939 21.8572 443.671 21.8148C443.577 21.8006 443.497 21.7769 443.396 21.7708C443.296 21.7646 443.176 21.7775 443.069 21.7825C442.628 21.8007 442.174 21.8095 441.747 21.8389C441.22 21.8764 441.018 21.7464 440.61 21.7312C440.337 21.8096 440.191 21.9164 439.65 21.9253C439.209 21.9325 438.769 21.9587 438.328 21.977C438.108 21.9853 437.887 21.9953 437.667 22.0036C437.313 22.0186 437.147 22.0808 437.222 22.1761C437.262 22.2285 437.296 22.2809 437.33 22.3333C437.398 22.4269 437.232 22.5067 436.952 22.5184C436.177 22.55 435.409 22.5831 434.634 22.6115C434.427 22.6199 434.227 22.5932 434.059 22.5506C433.885 22.508 433.691 22.4892 433.477 22.4976C432.703 22.5292 431.935 22.5623 431.16 22.5908C431.073 22.5941 430.96 22.5784 430.873 22.5658C430.685 22.5376 430.505 22.5045 430.324 22.4746C429.883 22.4897 429.449 22.5 429.015 22.5199C428.314 22.5498 428.314 22.5514 427.798 22.4648C427.705 22.4491 427.611 22.4191 427.524 22.4208C427.19 22.4278 426.863 22.4443 426.529 22.4592C425.547 22.5023 425.547 22.5023 425.26 22.4551C424.998 22.4111 424.764 22.3574 424.37 22.3836C423.943 22.413 423.489 22.4233 423.048 22.44C422.721 22.4517 422.394 22.465 422.066 22.4688C421.979 22.4705 421.886 22.4405 421.792 22.4248C421.524 22.376 421.263 22.3367 420.896 22.3644C420.682 22.3807 420.455 22.3843 420.235 22.3926C419.661 22.4159 419.661 22.4159 418.718 22.3222C418.624 22.3128 418.51 22.3019 418.417 22.3068C417.642 22.3369 416.874 22.37 416.1 22.3984C416.006 22.4018 415.893 22.3924 415.799 22.3847C414.742 22.2944 414.742 22.2944 413.62 22.3409C413.193 22.3576 413.18 22.364 412.731 22.2805C412.53 22.2443 412.363 22.2271 412.13 22.2387C411.248 22.2784 410.36 22.3054 409.485 22.3515C409.091 22.3713 408.864 22.324 408.596 22.2816C408.502 22.2674 408.402 22.2358 408.322 22.2376C407.44 22.2694 406.558 22.3075 405.677 22.3393C405.597 22.3426 405.496 22.311 405.403 22.2969C405.222 22.2686 405.048 22.226 404.847 22.2168C404.64 22.2076 404.413 22.2319 404.186 22.2402C403.632 22.2619 403.632 22.2603 402.989 22.1677C402.902 22.1551 402.789 22.1378 402.702 22.1411C401.82 22.1745 400.932 22.2032 400.058 22.2508C399.557 22.2772 399.216 22.2317 398.861 22.1655C398.787 22.1514 398.66 22.1452 398.567 22.1486C397.572 22.1869 396.583 22.23 395.588 22.2684C395.381 22.2767 395.181 22.25 395.013 22.209C394.745 22.1443 394.431 22.1528 394.097 22.1677C393.33 22.2025 393.323 22.2009 392.868 22.1254C392.774 22.1097 392.694 22.0892 392.593 22.0814C392.5 22.0736 392.379 22.0786 392.279 22.082C391.839 22.0987 391.398 22.1169 390.957 22.1352C390.516 22.1535 390.069 22.1639 389.635 22.1917C389.101 22.226 388.846 22.1231 388.471 22.0761C387.924 22.0977 387.363 22.1115 386.822 22.1458C386.408 22.172 386.213 22.1024 385.939 22.0663C385.845 22.0538 385.745 22.027 385.658 22.0303C384.663 22.0671 383.668 22.107 382.68 22.1517C382.439 22.1617 382.279 22.1492 382.078 22.1114C381.63 22.0264 381.61 22.0296 380.862 22.0628C380.534 22.0777 380.221 22.0909 379.939 22.0263C379.691 21.9679 379.391 21.9541 379.037 21.9738C378.603 21.9985 378.155 22.012 377.715 22.0287C377.274 22.047 376.833 22.0716 376.393 22.0803C376.039 22.0889 375.824 22.0146 375.543 21.9769C375.456 21.966 375.336 21.9646 375.235 21.9679C374.795 21.983 374.341 21.995 373.913 22.0228C373.393 22.0571 373.104 21.9702 372.736 21.92C372.656 21.909 372.522 21.9156 372.422 21.9206C371.648 21.9506 370.88 21.9837 370.105 22.0153C369.831 21.9729 369.55 21.9321 369.275 21.8896C368.835 21.9063 368.394 21.9246 367.953 21.9413C367.619 21.9546 367.279 21.96 366.965 21.9844C366.558 22.0169 366.356 21.9426 366.082 21.9065C365.988 21.894 365.888 21.8671 365.801 21.8704C365.247 21.8889 364.693 21.909 364.145 21.937C363.624 21.965 363.416 21.8223 362.988 21.8246C362.547 21.827 362.093 21.8485 361.666 21.8779C361.172 21.9122 360.824 21.8619 360.469 21.7942C360.395 21.78 360.268 21.7723 360.175 21.7756C359.621 21.7957 359.073 21.8205 358.519 21.8406C358.425 21.844 358.312 21.8362 358.218 21.8268C357.161 21.735 357.161 21.7334 356.701 21.7533C356.373 21.7666 356.04 21.7831 355.706 21.7916C355.612 21.795 355.498 21.7809 355.411 21.7683C354.715 21.6726 354.715 21.671 354.215 21.691C353.774 21.7092 353.333 21.7275 352.892 21.7458C352.618 21.7034 352.337 21.6626 352.063 21.6201C351.515 21.6418 350.954 21.6587 350.413 21.6883C350.16 21.7014 349.993 21.697 349.798 21.6576C349.557 21.6103 349.316 21.5551 348.916 21.5829C348.488 21.6122 348.034 21.6162 347.6 21.6409C347.079 21.6704 346.864 21.5261 346.443 21.5285C346.002 21.5309 345.548 21.5523 345.121 21.5817C344.627 21.616 344.279 21.5658 343.924 21.498C343.85 21.4839 343.723 21.4761 343.63 21.4795C342.415 21.5278 341.206 21.576 339.991 21.6275C339.243 21.659 339.243 21.6606 337.819 21.5758C337.719 21.5696 337.611 21.5634 337.511 21.5668C337.071 21.5819 336.616 21.5938 336.189 21.6216C335.669 21.6559 335.38 21.5706 335.012 21.5188C334.932 21.5078 334.805 21.5144 334.698 21.5178C334.364 21.5295 334.037 21.5444 333.703 21.5577C333.263 21.576 332.822 21.5943 332.381 21.6126C332.107 21.5717 331.826 21.5293 331.551 21.4885C331.004 21.5101 330.443 21.5223 329.902 21.5566C329.488 21.5828 329.294 21.5164 329.019 21.4787C328.925 21.4662 328.825 21.4393 328.738 21.4411C327.743 21.4778 326.748 21.5162 325.76 21.5625C325.353 21.5823 325.165 21.5111 324.89 21.475C324.797 21.464 324.69 21.4436 324.603 21.4469C323.942 21.4704 323.281 21.4986 322.62 21.5268C322.246 21.5433 322.246 21.5433 321.43 21.4463C321.336 21.4353 321.229 21.4244 321.135 21.4277C319.039 21.511 316.949 21.599 314.852 21.6822C314.638 21.6906 314.444 21.6671 314.277 21.6244C314.102 21.5818 313.908 21.5599 313.695 21.5683C312.813 21.6032 311.925 21.635 311.05 21.6779C310.69 21.6961 310.402 21.6759 310.154 21.6207C309.967 21.5797 309.793 21.5641 309.559 21.5741C309.119 21.594 308.678 21.6106 308.237 21.6289C307.797 21.6472 307.356 21.6655 306.915 21.6838C306.474 21.702 306.027 21.7124 305.593 21.7402C305.059 21.7745 304.797 21.6764 304.429 21.6278C303.768 21.6529 303.107 21.6779 302.453 21.7045C301.571 21.7395 300.69 21.7776 299.808 21.811C299.728 21.8143 299.628 21.7859 299.534 21.7717C299.26 21.7325 299.059 21.6772 298.651 21.6954C296.675 21.7832 294.685 21.8584 292.702 21.9446C292.288 21.9628 292.107 21.8948 291.826 21.8587C291.732 21.8478 291.625 21.8257 291.538 21.829C290.436 21.8708 289.334 21.9172 288.233 21.9621C287.785 21.9804 287.785 21.9804 287.036 21.8832C286.949 21.8722 286.835 21.8581 286.741 21.8615C285.306 21.9181 283.877 21.9779 282.441 22.0361C282.227 22.0445 282.034 22.0226 281.859 21.98C281.692 21.9373 281.491 21.9139 281.284 21.9222C279.962 21.9754 278.633 22.0271 277.318 22.0851C276.964 22.1016 276.67 22.0878 276.415 22.0311C276.234 21.9901 276.054 21.9729 275.827 21.9828C273.843 22.0643 271.86 22.1426 269.877 22.2288C269.496 22.2454 269.229 22.2157 268.988 22.1636C268.794 22.1227 268.626 22.115 268.386 22.1218C268.132 22.1302 267.979 22.148 267.839 22.1959C267.659 22.2582 267.547 22.3363 267.119 22.3419C266.678 22.3474 266.231 22.3673 265.797 22.3951C265.383 22.4229 265.189 22.3517 264.928 22.3092C264.733 22.2794 264.553 22.2749 264.306 22.2897C264.079 22.3028 263.939 22.3301 263.806 22.3812C263.513 22.4898 263.487 22.4899 263.125 22.4222C262.931 22.3859 262.757 22.3576 262.543 22.3644C261.662 22.3978 260.78 22.4343 259.899 22.4725C259.391 22.4941 259.385 22.4972 259.003 22.4184C258.816 22.379 258.635 22.3603 258.415 22.3702C255.991 22.47 253.567 22.5665 251.143 22.671C250.769 22.6876 250.515 22.6547 250.247 22.6075C250.16 22.5917 250.073 22.5696 249.973 22.5634C249.872 22.5573 249.759 22.5638 249.652 22.5672C247.889 22.6387 246.119 22.7071 244.363 22.7865C243.963 22.8047 243.748 22.7543 243.474 22.7134C243.38 22.6993 243.3 22.6772 243.199 22.671C243.099 22.6664 242.979 22.6777 242.872 22.6827C241.109 22.7542 239.34 22.8226 237.584 22.9021C237.163 22.9203 236.982 22.8539 236.708 22.8194C236.614 22.8068 236.513 22.7831 236.427 22.7865C235.872 22.805 235.325 22.8298 234.771 22.8515C233.448 22.9063 232.126 22.958 230.804 23.0144C230.297 23.036 230.074 22.8949 229.647 22.902C229.093 22.9109 228.545 22.9437 227.991 22.967C227.55 22.9853 227.11 23.002 226.669 23.0218C226.235 23.0401 226.235 23.0401 225.151 22.9498C225.058 22.942 224.944 22.9311 224.851 22.9345C223.308 22.9961 221.759 23.0577 220.223 23.124C219.869 23.139 219.575 23.1315 219.321 23.0732C219.14 23.0322 218.953 23.0118 218.732 23.0218C216.415 23.1165 214.105 23.2113 211.788 23.3045C211.701 23.3078 211.587 23.2921 211.5 23.2796C211.313 23.2513 211.132 23.2182 210.951 23.1884C210.818 23.2252 210.645 23.2589 210.558 23.3003C210.439 23.3562 210.279 23.3724 210.025 23.3824C209.771 23.3924 209.611 23.3895 209.41 23.3485C209.169 23.2981 208.921 23.2588 208.527 23.2754C206.103 23.3799 203.679 23.4749 201.255 23.5778C200.855 23.5944 200.667 23.5248 200.386 23.4887C200.292 23.4778 200.185 23.4605 200.098 23.4638C199.103 23.5022 198.115 23.5437 197.12 23.5836C194.362 23.6967 191.604 23.805 188.853 23.9244C188.353 23.9459 188.011 23.9068 187.657 23.8391C187.583 23.8249 187.456 23.8172 187.362 23.8205C183.503 23.9769 179.643 24.1348 175.79 24.2928C175.583 24.3011 175.382 24.276 175.215 24.235C175.041 24.1924 174.847 24.1721 174.633 24.1804C172.87 24.2519 171.107 24.3235 169.345 24.3966C168.904 24.4149 168.897 24.4164 168.442 24.341C168.348 24.3252 168.248 24.2952 168.174 24.2985C168.021 24.3067 167.874 24.3467 167.768 24.401C167.662 24.4584 167.495 24.4746 167.248 24.4862C166.994 24.4978 166.827 24.4933 166.633 24.4555C166.385 24.4082 166.157 24.3626 165.757 24.3792C160.689 24.5918 155.62 24.7964 150.552 25.0074C150.145 25.024 149.957 24.9576 149.676 24.9215C149.582 24.9106 149.489 24.8948 149.388 24.8918C149.281 24.8888 149.168 24.8986 149.061 24.9036C140.794 25.2411 132.528 25.5803 124.261 25.9178C123.767 25.9378 123.774 25.9378 123.234 26.085C123.168 26.1026 123.081 26.1266 122.987 26.1299C120.457 26.2362 117.919 26.3393 115.382 26.4425C114.28 26.4874 113.178 26.5339 112.077 26.5772C111.683 26.5922 111.683 26.5922 110.743 26.7656C110.663 26.78 110.569 26.7993 110.476 26.8026C106.069 26.9838 101.661 27.165 97.2475 27.343C96.9003 27.3564 96.6201 27.3855 96.4607 27.4621C96.3477 27.5163 96.2011 27.5484 95.9808 27.5583C92.8958 27.6847 89.8109 27.8126 86.7192 27.9358C86.3519 27.9508 86.1319 27.9957 85.9523 28.0628C85.8924 28.0852 85.8393 28.1107 85.7526 28.1267C85.6726 28.1412 85.5524 28.1462 85.4523 28.1511C82.808 28.2592 80.1638 28.3705 77.5128 28.4738C77.1188 28.4888 76.9591 28.5479 76.7661 28.6102C76.6995 28.631 76.6531 28.6597 76.5664 28.6742C76.4797 28.6871 76.3528 28.6873 76.2459 28.6907C74.0423 28.7805 71.8388 28.8719 69.6353 28.9617C69.2076 28.9545 69.1151 29.0468 68.9087 29.1029C68.8354 29.1221 68.7824 29.1476 68.6957 29.1605C68.6023 29.1734 68.4819 29.172 68.3684 29.1754C66.6055 29.2469 64.8427 29.3232 63.0731 29.3899C62.6658 29.405 62.5865 29.4862 62.3667 29.5422C62.2934 29.5598 62.2204 29.587 62.1336 29.5919C61.0318 29.64 59.9301 29.6849 58.8283 29.7282C58.461 29.7432 58.461 29.7416 57.8148 29.9001C57.7415 29.9178 57.6548 29.937 57.5613 29.9419C55.912 30.0117 54.256 30.0782 52.6 30.1464C52.3863 30.1547 52.2399 30.1931 52.1336 30.2474C52.0274 30.3016 51.8741 30.3369 51.6604 30.3452C50.3383 30.4 49.0161 30.4564 47.6939 30.5065C47.3266 30.5199 47.0866 30.5601 46.9271 30.6319C46.8075 30.6861 46.6609 30.7134 46.4272 30.7234C45.105 30.7766 43.7829 30.8347 42.454 30.8816C42.0667 30.895 41.8669 30.9494 41.7073 31.0164C41.581 31.0707 41.4342 31.09 41.1872 31.1C38.7632 31.1966 36.3326 31.2931 33.9155 31.3992C33.5082 31.4174 33.3004 31.3622 33.0327 31.3229C32.6512 31.268 32.2966 31.2082 32.2951 31.0842C32.2949 31.0651 32.181 31.0431 32.1007 31.0273C31.5047 30.9092 31.5047 30.9092 31.4096 30.7822C31.3553 30.7044 31.2942 30.625 31.2465 30.5456C31.1581 30.4154 30.9439 30.3824 30.3296 30.4074C30.1092 30.4157 29.8889 30.4272 29.6685 30.434C29.3413 30.4457 29.0935 30.3937 29.0323 30.2984C28.9982 30.246 28.9576 30.1936 28.9236 30.1412C29.2575 30.1279 29.2507 30.1263 29.8363 29.9329C30.0825 29.8514 30.0826 29.8514 29.6074 29.7712C29.4266 29.7413 29.2525 29.7082 29.0584 29.68C28.9714 29.6674 28.8578 29.6597 28.7643 29.663C28.2101 29.6831 27.6625 29.7063 27.115 29.7296C26.2336 29.7661 26.2335 29.7661 25.3364 29.6056C25.2627 29.593 25.1489 29.5694 25.1621 29.5566C25.2349 29.4977 25.4149 29.4719 25.642 29.4651C25.9759 29.455 26.303 29.4385 26.6302 29.4252C26.8506 29.4169 27.071 29.407 27.2913 29.3986C27.4977 29.3378 27.7109 29.2786 27.9039 29.2163C28.2101 29.1204 28.2099 29.1172 27.7883 29.0512C27.5205 29.0071 27.2328 28.9679 26.9584 28.9271C26.6312 28.9404 26.2974 28.9553 25.9702 28.967C25.5561 28.982 25.3887 28.9521 25.2806 28.849C25.186 28.7586 25.2987 28.6805 25.6191 28.6608C25.9463 28.6412 26.2536 28.6279 26.4196 28.5465C26.579 28.4683 26.8592 28.4376 27.2065 28.4306C27.4269 28.4255 27.6473 28.414 27.8676 28.404C28.1547 28.3908 28.3075 28.3094 28.2463 28.2189C28.2122 28.1602 28.1448 28.111 27.8841 28.0988C26.7277 28.0452 26.7143 28.0468 26.1385 27.9398C26.0849 27.9303 26.0446 27.9018 26.0645 27.8874C26.0976 27.8635 26.1707 27.8284 26.2508 27.8235C27.0186 27.7872 27.7865 27.754 28.5545 27.7288C28.8082 27.7204 28.9952 27.7089 29.0814 27.6499C29.2006 27.5686 29.1463 27.494 28.9119 27.4388C28.8382 27.4214 28.7175 27.3994 28.6374 27.4011C27.7559 27.4313 26.8812 27.4695 25.9997 27.4997C25.9196 27.503 25.7724 27.4762 25.7387 27.4556C25.6715 27.4176 25.771 27.3666 26.0046 27.3486C26.3116 27.3242 26.6256 27.3221 26.8318 27.2422C27.1177 27.1289 27.4705 27.0249 27.7899 26.9162C27.8431 26.8971 27.9297 26.8603 27.9096 26.8572C27.7422 26.8225 27.5481 26.7958 27.374 26.7628C27.0794 26.7077 27.0784 26.6298 27.1443 26.5549C27.1971 26.4944 27.3972 26.4702 27.6444 26.4698C27.7513 26.4696 27.8849 26.4694 27.9716 26.4549C28.1983 26.4195 28.2713 26.3749 28.1573 26.3417C28.0903 26.3227 27.9698 26.2959 27.8897 26.2993C26.4606 26.3543 25.0248 26.4077 23.6026 26.4755C23.1819 26.4953 22.9876 26.4352 22.7333 26.3928C22.5391 26.3597 22.3585 26.3473 22.1183 26.3716C21.8914 26.3943 21.6709 26.382 21.53 26.3298C21.4159 26.287 21.6158 26.2501 22.1565 26.2078C22.2566 26.1997 22.3701 26.1947 22.4434 26.1787C23.2163 26.0056 23.2162 26.004 23.7504 25.9808C24.2713 25.9592 24.2714 25.9576 24.5442 25.8649C24.6706 25.8218 24.8103 25.7786 24.93 25.7339C24.9766 25.7163 25.0565 25.6844 25.0296 25.6749C24.8821 25.6259 24.6815 25.6151 24.4478 25.6266C23.927 25.6546 23.3122 25.6335 23.0401 25.785C22.9339 25.8424 22.767 25.8586 22.5266 25.8686C20.1094 25.9651 17.6921 26.068 15.2681 26.1614C14.8741 26.1764 14.6945 26.2355 14.5416 26.301C14.4087 26.3553 14.2618 26.3714 14.0081 26.3814C13.7543 26.3914 13.5539 26.3966 13.4063 26.3444C13.3191 26.3127 13.3921 26.2681 13.5919 26.2232C13.8785 26.1591 13.8241 26.0797 13.7296 26.0052C13.6623 25.956 13.4548 25.9214 13.2343 25.925C12.9071 25.9319 12.5934 25.95 12.3187 25.8869C12.158 25.8506 11.9572 25.8255 11.7765 25.7941C11.4283 25.7295 11.0801 25.6634 10.5929 25.7072C10.2587 25.6919 10.0242 25.6351 9.75648 25.5911C9.30802 25.5187 9.2678 25.5077 9.58756 25.4292C9.94728 25.3411 9.66529 25.2272 9.8647 25.141C10.0774 25.0484 10.3705 24.9668 10.63 24.8805C10.6966 24.8581 10.7565 24.8373 10.823 24.815C10.669 24.7834 10.5283 24.744 10.3476 24.722C10.1135 24.6938 9.99279 24.6591 10.005 24.5605C9.95806 24.5463 9.97839 24.5828 10.032 24.5922C10.0922 24.6017 10.2392 24.5935 10.3125 24.5822C10.4992 24.5517 10.5922 24.5118 10.545 24.4785C10.5181 24.461 10.391 24.439 10.3108 24.4391C10.1639 24.4394 10.0374 24.4746 9.9983 24.5605C9.25085 24.627 8.47615 24.6602 7.70151 24.687C7.62138 24.6904 7.52085 24.6588 7.42714 24.643C7.1192 24.5895 7.11918 24.5911 6.21711 24.5768C6.12357 24.5754 5.99644 24.5534 5.94941 24.5312C5.75454 24.4346 5.76001 24.3281 5.66527 24.2249C5.83818 24.1578 6.01097 24.0924 6.19058 24.0269C6.54978 23.8943 7.01616 23.7774 7.29504 23.6322C7.234 23.5544 7.1529 23.4767 7.4461 23.4126C8.28023 23.3316 8.2736 23.3316 8.49985 23.2549C9.14532 23.0375 9.78405 22.8186 10.4563 22.6044C10.636 22.5484 10.6357 22.5182 10.3147 22.495C10.2144 22.4888 10.1074 22.4874 10.0005 22.4907C9.66664 22.5025 9.33296 22.5317 9.00553 22.5259C8.67813 22.5217 8.43681 22.4522 8.16908 22.4098C7.89465 22.3658 7.62022 22.3202 7.34577 22.2745C7.03184 22.2799 6.71844 22.325 6.40361 22.254C6.16246 22.1988 5.86138 22.1596 5.58694 22.114C5.79261 21.9928 6.17906 21.8999 6.47843 21.7928C6.7512 21.6954 6.75774 21.697 7.49173 21.6209C7.83871 21.5853 7.95685 21.4055 7.66229 21.3536C7.30747 21.2906 6.93274 21.2325 6.57128 21.1727C6.25735 21.178 5.93726 21.2215 5.63579 21.1505C5.40133 21.0969 5.13363 21.0608 4.7464 21.0822C4.09211 21.1183 3.42428 21.137 2.76324 21.1668C2.53622 21.1768 2.28889 21.1709 2.18804 21.117C2.12079 21.079 2.31392 21.0262 2.53425 21.0146C2.86809 20.9981 3.16846 20.9785 3.33454 20.8987C3.49394 20.819 3.78757 20.7946 4.13483 20.7828C4.22832 20.7795 4.33506 20.7602 4.3816 20.7411C4.62102 20.6484 4.88732 20.5685 5.40176 20.5707C5.61517 20.5386 5.7282 20.4986 5.66094 20.4606C5.62062 20.44 5.48008 20.4132 5.39995 20.4165C4.84565 20.4334 4.29137 20.4503 3.75058 20.4799C3.49687 20.4931 3.30306 20.4966 3.14217 20.4492C3.02823 20.4176 3.08784 20.3746 3.30108 20.3281C3.48766 20.288 3.54063 20.2418 3.52663 20.1878C3.49175 20.0623 3.29086 20.0261 2.64962 20.0352C2.18874 20.0424 2.07492 20.0219 1.97344 19.914C1.94642 19.8886 1.87932 19.8538 1.92587 19.8362C2.21187 19.7276 2.39736 19.5937 2.93789 19.5419C3.15145 19.5224 3.37849 19.522 3.51162 19.4804C3.64474 19.4389 3.76449 19.3909 3.90432 19.3509C4.07745 19.3029 4.19706 19.2582 4.11654 19.2282C3.98229 19.1744 3.76853 19.17 3.52157 19.1895C3.30798 19.2058 3.08087 19.2078 2.86052 19.2177C2.46657 19.2359 2.14549 19.1952 2.0979 19.1253C1.9688 18.9411 1.833 18.7586 1.71726 18.5744C1.70364 18.5521 1.73661 18.5234 1.78983 18.5043C1.9761 18.4372 2.17585 18.3732 2.36882 18.3077C2.59508 18.2326 2.95606 18.2463 3.2632 18.2314C3.69719 18.2099 3.69706 18.2115 4.27647 18.0579C4.5029 17.9971 4.89736 18.0202 5.13054 17.9657C5.20382 17.9481 5.31705 17.9193 5.29682 17.9034C5.26986 17.8828 5.13613 17.8672 5.03581 17.8578C4.94217 17.8484 4.82857 17.8439 4.72842 17.8488C3.5131 17.8971 2.30453 17.9486 1.08919 17.9953C0.882185 18.0036 0.654628 17.969 0.580562 17.9199C0.506533 17.8739 0.525855 17.8182 0.511877 17.7658C0.704846 17.7003 0.92451 17.6395 1.0907 17.5692C1.217 17.5149 1.36371 17.4908 1.61754 17.4872C1.95151 17.4818 2.27867 17.4622 2.65261 17.4472C3.34466 17.2138 4.02317 16.9694 4.76866 16.736C5.06818 16.6416 4.99369 16.5464 5.05264 16.4461C5.11168 16.3538 5.55942 16.3673 5.85973 16.3398C6.09997 16.3171 6.17943 16.2661 6.08549 16.2313C6.0318 16.2107 5.91134 16.1871 5.81781 16.1872C5.59735 16.1876 5.37707 16.2023 5.1567 16.2107C4.93634 16.219 4.68243 16.2147 4.50237 16.2421C4.32898 16.2678 4.21598 16.3221 4.10295 16.3684C3.97662 16.4195 3.80993 16.4373 3.55611 16.4409C3.2288 16.4447 2.90164 16.4595 2.57442 16.4713C2.21294 16.4099 1.83804 16.3502 1.48988 16.2856C1.42293 16.273 1.40906 16.2365 1.41546 16.2126C1.4281 16.1506 1.32746 16.1126 1.10665 16.0828C0.919295 16.0577 0.765199 16.0215 0.59113 15.99C0.724236 15.9468 0.870775 15.9052 0.977121 15.8589C1.2098 15.7615 1.50296 15.6911 2.01072 15.6933C2.2104 15.631 2.36979 15.5544 2.62983 15.511C2.87653 15.4692 3.29791 15.5098 3.48386 15.4157C3.57684 15.3694 3.7166 15.3167 3.89675 15.2973C4.18366 15.2666 4.55795 15.2818 4.72392 15.1925C4.82353 15.1414 4.9699 15.0951 5.16348 15.082C5.38377 15.0673 5.61082 15.0637 5.7708 15.0332C5.85746 15.0172 5.9507 14.9916 5.95044 14.9693C5.95027 14.955 5.8165 14.933 5.72286 14.9236C5.63588 14.9126 5.52209 14.9049 5.42192 14.9083C5.088 14.9184 4.76086 14.9365 4.42695 14.9466C4.33346 14.95 4.22647 14.939 4.12615 14.9297C3.83191 14.9048 3.85153 14.8729 4.08468 14.8153C4.31785 14.7592 4.48411 14.6874 4.67708 14.6219C4.89073 14.6104 5.15797 14.6146 5.30458 14.5842C5.55118 14.5345 5.72399 14.4626 5.92368 14.4002C6.14403 14.3903 6.37112 14.3867 6.57801 14.3689C6.66478 14.3624 6.70448 14.3273 6.77773 14.3065C6.91087 14.2665 7.02386 14.2091 7.20401 14.1897C7.49762 14.1606 7.85849 14.171 8.03116 14.0833C8.13077 14.0323 8.28373 13.9779 8.47075 13.9744C8.99175 13.9671 9.21119 13.8793 9.47744 13.7961C9.67713 13.7338 10.1051 13.7648 10.3248 13.7024C10.4713 13.6624 10.5777 13.6129 10.7242 13.5745C10.7841 13.5585 10.9109 13.5504 11.0111 13.5454C11.5586 13.5206 12.1129 13.5021 12.6604 13.4757C12.7472 13.4707 12.8271 13.4468 12.8937 13.4276C13.0335 13.386 13.1196 13.3286 13.293 13.3013C13.4663 13.2739 13.7135 13.2735 13.9272 13.2652C14.615 13.2401 14.6686 13.2463 14.981 13.1106C15.2335 13.0005 15.8558 13.0773 16.0615 12.9561C16.1809 12.8859 16.4006 12.8283 16.7947 12.8197C17.349 12.8075 17.8965 12.7763 18.4507 12.7547C18.9448 12.7347 18.9382 12.7347 19.4709 12.5859C19.7106 12.5187 20.0649 12.5276 20.3787 12.5144C20.7126 12.501 21.0196 12.4814 21.179 12.4017C21.3384 12.3235 21.632 12.2975 21.9726 12.2858C22.2865 12.2741 22.6407 12.2814 22.8872 12.2174C23.4866 12.0637 23.4799 12.0621 23.9006 12.0454C24.5617 12.0188 25.2227 11.9922 25.8838 11.964C26.3245 11.9457 26.7854 11.9417 27.1992 11.906C27.4995 11.88 27.6321 11.7907 27.8251 11.7284C28.3726 11.7036 28.9201 11.6787 29.4676 11.6555C30.2355 11.6223 31.0101 11.5923 31.7847 11.5607C32.118 11.4997 32.1633 11.3661 32.7244 11.3587C33.0584 11.355 33.3855 11.3337 33.7194 11.3204C34.2736 11.2971 34.8211 11.2675 35.3754 11.2554C35.7962 11.2467 35.8686 11.1607 36.0884 11.1063C36.1616 11.0871 36.2282 11.0599 36.315 11.055C37.1829 11.0089 38.078 10.9978 38.9256 10.9311C39.0124 10.9246 39.0922 10.8911 39.1119 10.8672C39.1252 10.8544 39.0113 10.8308 38.9377 10.8198C38.8507 10.8072 38.737 10.7947 38.6435 10.7981C35.8857 10.9095 33.128 11.0226 30.3701 11.1341C29.9829 11.1507 29.9828 11.1491 29.0429 11.3256C28.9629 11.3401 28.8695 11.3561 28.7693 11.3611C28.3287 11.3809 27.8812 11.3929 27.4472 11.4175C27.0934 11.4372 26.7993 11.4187 26.5448 11.3619C26.3639 11.3209 26.1766 11.3085 25.9495 11.3121C25.6957 11.3173 25.529 11.3351 25.3825 11.3783C25.1895 11.4375 25.0902 11.5139 24.6828 11.5306C22.8064 11.6023 20.9299 11.682 19.0602 11.7585C18.7994 11.7367 18.6721 11.7035 18.7385 11.6637C18.7783 11.6397 18.8581 11.6078 18.9382 11.6045C19.7061 11.5697 20.4807 11.5397 21.2486 11.5065C21.3554 11.5016 21.5024 11.5045 21.5623 11.4885C21.8554 11.4164 21.9611 11.3002 22.5155 11.2912C22.8361 11.2859 23.1631 11.2615 23.4702 11.2387C23.5569 11.2321 23.6367 11.1986 23.6565 11.1747C23.663 11.162 23.5558 11.1383 23.4755 11.1274C23.181 11.0818 22.8411 11.1381 22.5467 11.1068C22.4464 11.0958 22.3058 11.0802 22.2856 11.0612C22.272 11.0437 22.3852 11.0149 22.4652 10.9972C22.5385 10.9812 22.6385 10.9667 22.7386 10.9618C23.62 10.9236 24.5016 10.8839 25.3831 10.8537C25.7437 10.8419 25.997 10.8017 26.1565 10.7283C26.2761 10.674 26.4227 10.6452 26.6498 10.6368C28.1923 10.5752 29.7347 10.5073 31.284 10.4504C31.6713 10.437 31.8712 10.3842 32.0307 10.3156C32.157 10.2613 32.3038 10.242 32.5508 10.232C34.7611 10.1453 36.9579 10.0492 39.1682 9.96574C39.5756 9.9507 39.6951 9.88213 39.9015 9.82294C39.9747 9.80214 40.0211 9.77662 40.1144 9.76374C40.2078 9.75085 40.3281 9.75221 40.4416 9.74883C42.2045 9.6773 43.9674 9.60102 45.737 9.53426C46.151 9.51921 46.2301 9.43957 46.4433 9.38355C46.5165 9.36593 46.5831 9.33721 46.6699 9.33228C47.992 9.27586 49.3141 9.22261 50.6362 9.16778C51.5177 9.13122 52.3991 9.09466 53.2805 9.05969C53.7145 9.04301 53.7145 9.04142 54.3007 8.88934C54.3673 8.87174 54.4606 8.8509 54.5474 8.84598C57.0848 8.73968 59.6156 8.63818 62.153 8.53347C62.3667 8.52514 62.5199 8.48828 62.6261 8.43404C62.7324 8.3798 62.8857 8.34296 63.0927 8.33464C65.0759 8.25159 67.0591 8.17014 69.049 8.09185C69.4096 8.07849 69.663 8.03988 69.8225 7.96805C69.9421 7.91379 70.0887 7.88492 70.3158 7.87656C72.299 7.7967 74.2823 7.71205 76.2722 7.63535C76.6528 7.62036 76.8392 7.56598 77.0255 7.50206C77.092 7.47968 77.1451 7.44302 77.2252 7.4397C78.2134 7.39341 79.1949 7.34555 80.1899 7.31355C80.604 7.30009 80.7435 7.23307 80.9098 7.16919C81.0428 7.11808 81.1963 7.10032 81.4501 7.0935C82.0044 7.0782 82.5519 7.0502 83.0927 7.02221C83.1728 7.01729 83.2726 6.98214 83.279 6.95987C83.2919 6.91852 83.1378 6.89018 82.8838 6.87633C80.2395 6.98441 77.5886 7.09249 74.9443 7.20057C74.5103 7.21884 74.5103 7.21885 73.9242 7.37092C73.8576 7.38853 73.7642 7.40936 73.6707 7.4143C71.1333 7.51901 68.6026 7.62212 66.0652 7.72683C65.8515 7.73516 65.6983 7.772 65.592 7.82624C65.4858 7.88048 65.3324 7.91731 65.1254 7.92563C62.7015 8.02537 60.2776 8.1267 57.847 8.22168C57.4864 8.23505 57.233 8.27205 57.0735 8.34546C56.9539 8.39972 56.8073 8.42861 56.5803 8.43697C54.2631 8.53015 51.9527 8.62809 49.6288 8.7181C49.3951 8.72647 49.221 8.68068 49.2338 8.63774C49.2403 8.61547 49.3399 8.57875 49.42 8.57542C50.6286 8.52079 51.8306 8.46458 53.046 8.42265C53.4533 8.4092 53.5727 8.33904 53.7791 8.27985C53.8456 8.25907 53.8988 8.23195 53.9855 8.22066C54.0789 8.20778 54.1991 8.20916 54.3127 8.20577C57.1773 8.08776 60.042 7.96816 62.9134 7.85649C63.3274 7.83985 63.4065 7.7618 63.6197 7.70578C63.6929 7.68657 63.7595 7.65785 63.8463 7.65451C64.7276 7.61478 65.6091 7.5798 66.4905 7.54484C68.033 7.48166 69.5755 7.41848 71.1246 7.35528C71.572 7.33699 71.5721 7.33699 72.1448 7.18653C72.2114 7.16892 72.3048 7.14651 72.3916 7.14318C76.4715 6.97529 80.5515 6.8074 84.6315 6.6411C84.8452 6.63277 84.9983 6.59593 85.1046 6.54169C85.2109 6.48904 85.364 6.45061 85.571 6.4407C91.0866 6.21459 96.5956 5.98849 102.111 5.76556C102.472 5.75061 102.725 5.71676 102.885 5.64176C102.998 5.58751 103.151 5.55863 103.378 5.54868C109.441 5.30092 115.504 5.05317 121.574 4.80381C125.654 4.63751 129.734 4.46803 133.814 4.30491C134.188 4.28993 134.388 4.24029 134.574 4.17477C134.634 4.15241 134.694 4.11574 134.774 4.11242C135.648 4.0711 136.523 4.03297 137.398 3.99484C137.672 4.03727 137.947 4.07811 138.221 4.12054C138.427 4.05976 138.627 3.9974 138.834 3.93663C140.156 3.88815 141.458 3.81427 142.793 3.78962C142.88 3.78787 142.974 3.81791 143.068 3.83364C143.69 3.93267 144.044 3.92408 144.437 3.78985C144.577 3.74191 144.696 3.69877 144.91 3.69044C145.571 3.66063 146.239 3.64036 146.893 3.6058C147.247 3.58768 147.541 3.60304 147.796 3.65981C147.977 3.70082 148.164 3.71798 148.384 3.70804C149.6 3.65817 150.808 3.60989 152.024 3.55684C152.11 3.5535 152.19 3.52632 152.257 3.50713C152.396 3.46555 152.516 3.42083 152.649 3.37767C152.83 3.40437 153.031 3.42468 153.178 3.45939C153.366 3.50038 153.539 3.50006 153.793 3.48848C158.641 3.28741 163.495 3.09111 168.343 2.88846C168.757 2.87182 168.938 2.93826 169.219 2.97273C169.313 2.98528 169.407 3.001 169.507 3.004C169.614 3.00699 169.727 2.99725 169.834 2.99229C173.473 2.84268 177.113 2.69465 180.752 2.54504C181.233 2.5251 181.233 2.5251 181.949 2.62238C182.036 2.63494 182.15 2.64904 182.243 2.6441C183.899 2.57913 185.555 2.5094 187.204 2.44284C187.418 2.43451 187.599 2.45962 187.793 2.49583C188.175 2.56668 188.201 2.56664 188.48 2.46122C188.614 2.4117 188.753 2.38123 188.974 2.36653C189.214 2.3502 189.408 2.35464 189.595 2.38291C189.863 2.42217 190.058 2.48858 190.465 2.47036C192.228 2.39248 193.997 2.32731 195.753 2.24785C196.154 2.22964 196.368 2.2833 196.636 2.32256C196.73 2.3367 196.817 2.3588 196.917 2.36339C197.017 2.36798 197.138 2.35662 197.244 2.35166C199.448 2.26186 201.658 2.17365 203.855 2.0775C204.269 2.05927 204.45 2.12729 204.731 2.16176C204.825 2.17431 204.932 2.19638 205.019 2.19305C206.341 2.14139 207.67 2.08653 208.992 2.03169C209.466 2.01177 209.466 2.01336 210.189 2.10903C210.276 2.12159 210.389 2.1341 210.483 2.13076C212.025 2.06917 213.575 2.00597 215.117 1.94279C215.591 1.92287 215.591 1.92287 216.962 2.00307C217.062 2.00925 217.169 2.01861 217.269 2.01525C219.032 1.94372 220.802 1.87377 222.564 1.79748C222.918 1.78253 223.212 1.79472 223.467 1.85149C223.648 1.89249 223.835 1.90965 224.055 1.89972C226.039 1.81826 228.029 1.73997 230.005 1.65376C230.386 1.63718 230.633 1.67169 230.901 1.71731C230.988 1.73305 231.075 1.75516 231.175 1.76134C231.276 1.76751 231.389 1.76095 231.496 1.75599C233.479 1.67453 235.469 1.59783 237.446 1.51002C237.846 1.49182 238.061 1.54548 238.328 1.58474C238.422 1.59888 238.523 1.62731 238.603 1.62558C239.377 1.59716 240.152 1.57194 240.92 1.53081C241.334 1.50781 241.515 1.5806 241.796 1.61507C241.89 1.62603 241.997 1.64969 242.084 1.64636C243.74 1.58138 245.396 1.51324 247.045 1.4435C247.279 1.43355 247.453 1.44753 247.64 1.48852C247.888 1.54372 248.176 1.56546 248.536 1.54732C249.304 1.50938 250.079 1.48256 250.853 1.45096C251.307 1.43266 251.307 1.43267 252.698 1.51283C252.798 1.51901 252.905 1.52835 253.005 1.52499C254.327 1.47174 255.656 1.42008 256.972 1.36208C257.325 1.34554 257.62 1.35932 257.874 1.41609C258.055 1.4571 258.236 1.47427 258.463 1.46432C259.678 1.41445 260.887 1.36458 262.102 1.31471C262.543 1.29643 262.983 1.26542 263.424 1.26463C263.745 1.26565 263.979 1.34153 264.267 1.37916C264.347 1.39014 264.481 1.3772 264.588 1.37383C266.13 1.31065 267.679 1.25222 269.215 1.18111C269.616 1.1629 269.83 1.21656 270.098 1.25582C270.192 1.26996 270.292 1.2984 270.372 1.29666C270.927 1.27818 271.474 1.25335 272.028 1.23169C272.689 1.20506 273.357 1.18479 274.012 1.14864C274.546 1.11907 274.748 1.257 275.175 1.261C275.503 1.26518 275.836 1.23756 276.164 1.22426C276.825 1.19763 277.486 1.16783 278.147 1.14439C278.381 1.13602 278.561 1.11025 278.634 1.05289C278.647 1.04174 278.533 1.01811 278.459 1.00394C277.569 0.84339 277.569 0.843382 276.674 0.879963C276.12 0.903214 275.572 0.926458 275.018 0.94653C274.924 0.949877 274.817 0.937353 274.724 0.927983C274.456 0.901439 274.483 0.869601 274.709 0.811966C274.936 0.754331 275.108 0.684081 275.301 0.618557C275.576 0.659396 275.844 0.700231 276.118 0.74107C276.338 0.732725 276.559 0.722805 276.779 0.714461C277.881 0.67115 278.983 0.626245 280.084 0.586113C280.165 0.58279 280.265 0.614407 280.359 0.630136C280.627 0.675755 280.868 0.715053 281.255 0.696871C282.243 0.648994 283.238 0.613823 284.226 0.572305C284.66 0.554039 284.66 0.55404 285.423 0.65123C285.51 0.662201 285.624 0.674715 285.717 0.671368C286.712 0.633017 287.7 0.591504 288.695 0.551564C288.909 0.543232 289.116 0.563524 289.271 0.609347C289.331 0.628315 289.318 0.660126 289.575 0.920371C290.366 1.13038 290.907 1.10716 291.454 1.0871C291.688 1.07873 291.895 1.0704 292.048 1.03833C292.128 1.0207 292.228 0.995086 292.228 0.974421C292.228 0.958525 292.08 0.93335 291.987 0.930338C291.325 0.899734 290.698 0.967637 290.05 0.983108C289.749 0.990007 289.488 0.934837 289.434 0.844323C289.42 0.818913 289.4 0.791927 289.379 0.766528C289.359 0.74113 289.345 0.714132 289.325 0.688733C289.064 0.681253 288.911 0.710138 288.798 0.76439C288.705 0.809068 288.572 0.860177 288.392 0.884346C288.212 0.910104 287.965 0.905788 287.744 0.914133C287.531 0.922465 287.297 0.943548 287.097 0.932781C286.896 0.920424 286.735 0.874605 286.548 0.846327C286.461 0.832176 286.354 0.811711 286.267 0.815046C285.499 0.843451 284.738 0.871833 283.976 0.908174C283.576 0.92797 283.375 0.861575 283.12 0.8207C282.919 0.789268 282.719 0.797566 282.686 0.87075C282.602 1.04577 282.91 1.11833 283.591 1.08373C284.152 1.0541 284.659 1.04844 285.102 1.15574C285.162 1.16994 285.302 1.17604 285.389 1.17271C285.937 1.15265 286.477 1.12783 287.025 1.10777C287.125 1.10441 287.232 1.11057 287.326 1.11676C288.69 1.20015 288.69 1.20175 289.151 1.18184C289.371 1.17191 289.584 1.16358 289.562 0.921986C289.979 0.662118 290.647 0.643435 291.295 0.604119C291.715 0.579518 291.897 0.649141 292.171 0.685211C292.265 0.69776 292.365 0.723009 292.452 0.719674C293.888 0.664635 295.317 0.60642 296.746 0.545035C296.986 0.535065 297.16 0.544292 297.347 0.585286C297.588 0.637313 297.856 0.670222 298.237 0.650462C298.998 0.610942 299.772 0.58571 300.547 0.552525C300.941 0.53592 300.941 0.535904 301.737 0.633033C301.824 0.644004 301.938 0.656518 302.031 0.653171C302.806 0.624754 303.574 0.590001 304.342 0.560007C304.555 0.551675 304.749 0.573579 304.917 0.616199C305.084 0.65882 305.285 0.680712 305.492 0.672392C306.267 0.642386 307.035 0.609222 307.803 0.579228C307.896 0.575881 308.01 0.586804 308.097 0.597775C308.913 0.694868 308.913 0.694852 309.287 0.678283C309.834 0.653454 310.395 0.641331 310.936 0.608565C311.464 0.575824 311.739 0.667524 312.1 0.717744C313.088 0.679405 314.083 0.647421 315.065 0.601146C315.465 0.58135 315.68 0.63342 315.947 0.67427C316.041 0.688409 316.135 0.718447 316.222 0.716702C316.556 0.709743 316.883 0.691671 317.21 0.678366C317.537 0.665061 317.871 0.651745 318.199 0.638439C318.573 0.683867 318.822 0.791517 319.356 0.753995C319.676 0.731163 320.017 0.725782 320.344 0.712477C320.671 0.699171 321.005 0.685856 321.332 0.67255C321.552 0.664206 321.78 0.659022 321.993 0.644331C322.387 0.619778 322.582 0.697332 322.863 0.731799C322.956 0.742759 323.063 0.76163 323.15 0.758295C323.811 0.734851 324.479 0.714577 325.127 0.67685C325.627 0.647337 325.969 0.69442 326.324 0.760548C326.397 0.774723 326.524 0.782443 326.618 0.779095C327.392 0.750679 328.16 0.715906 328.928 0.685912C329.135 0.677592 329.336 0.702665 329.503 0.743696C329.678 0.786304 329.872 0.806637 330.085 0.798304C330.853 0.76831 331.628 0.735115 332.396 0.705121C332.489 0.701774 332.603 0.714289 332.69 0.72685C333.439 0.824064 333.439 0.825655 333.88 0.805787C333.987 0.800826 334.1 0.79743 334.207 0.792469C334.755 0.76923 335.323 0.760272 335.857 0.72116C336.471 0.677135 336.919 0.730381 337.354 0.82021C337.902 0.80015 338.463 0.788012 338.997 0.755259C339.397 0.730694 339.612 0.790713 339.88 0.829974C339.973 0.844113 340.074 0.872546 340.154 0.869223C340.929 0.840806 341.703 0.815578 342.464 0.774468C342.878 0.751469 343.06 0.822665 343.341 0.858723C343.434 0.871272 343.535 0.893359 343.621 0.890023C344.062 0.876514 344.503 0.856636 344.944 0.838358C345.458 0.816768 345.458 0.818356 346.14 0.9141C346.462 0.959624 346.782 0.922484 347.096 0.910792C347.43 0.897475 347.743 0.887376 348.011 0.952071C348.179 0.993102 348.38 1.01818 348.587 1.01145C349.028 0.996346 349.475 0.981242 349.909 0.956617C350.256 0.936917 350.557 0.949088 350.811 1.00745C350.992 1.04845 351.18 1.0688 351.4 1.05886C352.388 1.01893 353.383 0.97739 354.371 0.939051C354.458 0.935716 354.579 0.949812 354.659 0.963975C354.846 0.992252 355.027 1.02371 355.208 1.05518C355.642 1.0401 356.089 1.03295 356.517 1.00993C356.971 0.986854 357.385 0.978159 357.74 1.06495C357.814 1.0839 357.921 1.11071 358.008 1.10897C358.342 1.10201 358.669 1.08553 358.996 1.07222C359.323 1.05892 359.657 1.0456 359.984 1.0323C360.365 1.07135 360.607 1.18537 361.141 1.14785C361.462 1.12502 361.802 1.11964 362.13 1.10633C362.457 1.09303 362.791 1.07812 363.118 1.06641C363.225 1.06304 363.345 1.05487 363.439 1.06106C363.539 1.06724 363.626 1.08934 363.713 1.10508C363.981 1.1507 364.228 1.19636 364.609 1.16865C364.929 1.14582 365.27 1.14044 365.597 1.12554C366.045 1.10725 366.045 1.10726 366.787 1.20607C367.088 1.24686 367.428 1.1922 367.716 1.22666C367.91 1.25016 368.078 1.28959 368.265 1.31628C368.345 1.32726 368.472 1.33179 368.566 1.32845C369.006 1.31335 369.454 1.29824 369.888 1.27362C370.242 1.25391 370.536 1.27245 370.784 1.32923C370.965 1.37024 371.145 1.38741 371.372 1.37747C372.474 1.33098 373.576 1.29083 374.671 1.23958C375.045 1.22143 375.346 1.24792 375.553 1.30477C375.909 1.40269 376.408 1.28575 376.777 1.36457C377.004 1.41344 377.232 1.47027 377.646 1.44568C378.407 1.40298 379.182 1.37932 379.95 1.34932C380.224 1.39175 380.499 1.43419 380.78 1.4766C381.221 1.45833 381.661 1.44004 382.102 1.42335C382.429 1.41004 382.763 1.39514 383.09 1.38342C383.197 1.38005 383.311 1.37349 383.411 1.38125C383.511 1.38902 383.592 1.40955 383.685 1.42528C384.147 1.50234 384.147 1.50394 384.908 1.47078C385.236 1.45588 385.55 1.44578 385.824 1.50887C386.079 1.56723 386.379 1.57781 386.727 1.5597C387.381 1.52673 388.042 1.5017 388.71 1.47825C388.917 1.46993 389.111 1.4966 389.285 1.53762C389.546 1.60233 389.867 1.5954 390.194 1.57732C390.628 1.55429 391.055 1.53127 391.424 1.61963C391.498 1.63857 391.612 1.66538 391.692 1.66364C392.239 1.64994 392.794 1.63941 393.328 1.60825C393.862 1.57709 394.124 1.67517 394.492 1.7222C395.039 1.70055 395.593 1.67889 396.141 1.65724C396.248 1.65228 396.374 1.63775 396.468 1.64553C396.863 1.67821 397.091 1.79702 397.632 1.75948C397.946 1.73825 398.286 1.73129 398.614 1.72593C398.7 1.72419 398.814 1.75099 398.875 1.77155C398.908 1.78262 398.875 1.81288 398.835 1.82885C398.716 1.87357 398.569 1.91518 398.463 1.96147C398.449 1.96786 398.577 1.99623 398.65 2.00881C398.831 2.0371 399.038 2.03197 399.278 2.01882C399.485 2.00733 399.699 2.0292 399.847 2.07662C399.907 2.09559 399.888 2.12741 399.762 2.23256C399.763 2.31045 399.903 2.27522 399.949 2.22427C400.021 2.15101 399.881 2.12742 399.614 2.16764C399.427 2.19659 399.334 2.23809 399.382 2.27139C399.409 2.28883 399.536 2.31086 399.762 2.23256C400.349 2.13612 400.789 2.11785 401.23 2.09957C401.344 2.0946 401.477 2.07845 401.557 2.08785C401.845 2.12548 402.113 2.17111 402.394 2.21353C402.715 2.20341 403.015 2.17902 403.33 2.24045C403.771 2.32709 403.791 2.31911 404.219 2.30085C404.439 2.29092 404.66 2.28259 404.88 2.27424C405.1 2.2659 405.274 2.28942 405.468 2.32564C405.863 2.39964 405.897 2.39957 406.156 2.29737C406.309 2.2351 406.416 2.21425 406.61 2.24251C407.252 2.33833 407.259 2.34467 407.806 2.31507C408.26 2.29041 408.688 2.28328 409.023 2.37329C409.251 2.43647 409.324 2.42203 409.504 2.35494C409.983 2.17763 410.203 2.18041 411.107 2.30596C411.528 2.36561 411.962 2.29966 412.389 2.29094C412.75 2.28394 413.004 2.32162 413.032 2.42172C413.053 2.48368 413.113 2.52809 413.354 2.54833C413.448 2.55611 413.561 2.56703 413.655 2.56368C414.209 2.54361 414.757 2.52036 415.311 2.49711C415.591 2.48548 415.744 2.4105 415.69 2.31204C415.628 2.20723 415.735 2.16888 416.135 2.13795C416.375 2.12004 416.569 2.12288 416.763 2.15115C416.978 2.18255 416.918 2.21127 416.731 2.26884C416.285 2.40953 416.34 2.49526 416.916 2.5912C417.116 2.62422 417.277 2.65415 417.324 2.70334C417.351 2.72873 417.325 2.76216 417.385 2.78112C417.714 2.88704 418.169 2.95459 418.677 3.00454C419.165 2.96075 419.499 3.03167 419.874 3.08822C420.169 3.1322 420.516 3.09344 420.829 3.07698C421.183 3.05886 421.477 3.07104 421.732 3.1294C421.913 3.17041 422.1 3.18914 422.32 3.18079C422.761 3.16252 423.209 3.15059 423.643 3.12438C424.016 3.10145 424.297 3.13274 424.532 3.18637C424.827 3.25419 425.153 3.2075 425.461 3.21648C425.875 3.22687 426.084 3.36797 426.625 3.32885C426.945 3.30601 427.279 3.29747 427.613 3.29051C427.7 3.28876 427.807 3.3156 427.881 3.33454C428.236 3.42134 428.65 3.41582 429.104 3.38957C429.418 3.37152 429.725 3.35508 430.033 3.41493C430.542 3.51576 431.104 3.60378 431.639 3.69661C431.714 3.7696 431.661 3.85552 432.043 3.89775C432.243 3.91965 432.431 3.95271 432.585 3.98899C432.772 4.03158 432.946 4.0424 433.187 4.03084C433.621 4.0078 434.075 4.0022 434.502 3.97282C434.896 3.94668 435.144 3.99871 435.385 4.04755C435.579 4.08695 435.76 4.10569 435.993 4.07665C436.233 4.0492 436.407 4.06637 436.601 4.10894C436.876 4.16726 436.896 4.16088 437.805 4.17673C437.898 4.17815 438.012 4.20178 438.066 4.22235C438.093 4.23343 438.033 4.26535 437.986 4.28133C437.926 4.30051 437.833 4.32292 437.746 4.32785C436.758 4.37095 435.763 4.40931 434.775 4.45241C434.675 4.45736 434.568 4.46869 434.495 4.48472C434.415 4.50235 434.315 4.52636 434.315 4.54862C434.315 4.56451 434.449 4.58335 434.543 4.59431C434.837 4.63035 435.184 4.57409 435.472 4.6149C435.666 4.64158 435.826 4.67943 436.02 4.70452C436.101 4.7155 436.228 4.71369 436.328 4.71033C436.662 4.6986 436.989 4.68212 437.323 4.67198C437.416 4.67023 437.523 4.68594 437.61 4.6985C438.253 4.79272 438.253 4.79272 438.807 4.77106C439.028 4.76271 439.261 4.73845 439.468 4.74761C439.669 4.75679 439.843 4.7994 440.024 4.8261C440.399 4.88265 440.753 4.93765 440.781 5.0616C440.795 5.10926 441.016 5.15019 441.237 5.15297C441.45 5.15577 441.677 5.13789 441.898 5.12796C442.419 5.10794 442.419 5.10794 443.095 5.2037C443.282 5.23038 443.482 5.2332 443.723 5.21687C443.816 5.21034 443.93 5.21651 444.03 5.22427C444.358 5.24753 444.358 5.27773 444.145 5.33534C443.845 5.42013 443.872 5.42803 444.715 5.49805C445.036 5.5245 445.283 5.57493 445.551 5.61896C445.986 5.68971 445.98 5.68971 445.694 5.78402C445.627 5.8048 445.567 5.82717 445.501 5.84955C445.308 5.91189 445.155 5.97893 444.754 5.98601C444.313 5.99316 443.872 6.01939 443.432 6.03767C443.004 6.05593 442.891 6.09427 442.933 6.20229C442.981 6.33256 443.068 6.34671 443.836 6.34374C444.057 6.34334 444.25 6.35571 444.418 6.39833C444.338 6.44934 444.192 6.48935 443.978 6.49927C443.431 6.5241 442.877 6.54577 442.329 6.56742C441.888 6.5857 441.448 6.60397 441.007 6.62224C440.733 6.63386 440.56 6.71685 440.635 6.80891C440.676 6.8613 440.71 6.9137 440.744 6.96609C440.818 7.07088 440.959 7.09766 441.406 7.09208C441.52 7.09029 441.627 7.07737 441.734 7.08036C442.168 7.0907 442.377 7.22227 442.897 7.19431C443.331 7.17127 443.786 7.16569 444.213 7.13631C444.607 7.11017 444.828 7.16701 445.102 7.20944C445.196 7.22358 445.297 7.25359 445.377 7.25185C445.931 7.23337 446.485 7.2149 447.026 7.18373C447.28 7.17055 447.433 7.17981 447.634 7.2176C448.116 7.30894 448.13 7.30414 448.844 7.27425C449.365 7.25105 449.372 7.25422 450.041 7.34999C450.228 7.37668 450.429 7.37631 450.669 7.36316C450.983 7.3467 451.31 7.32068 451.638 7.34394C451.738 7.35011 451.865 7.36897 451.899 7.38957C451.919 7.40384 451.826 7.43899 451.746 7.45026C451.159 7.53397 450.471 7.52091 449.83 7.55544C449.629 7.56534 449.429 7.53549 449.261 7.49287C449.087 7.45026 448.9 7.43312 448.673 7.44148C448.232 7.45976 447.784 7.47168 447.35 7.4979C446.977 7.52082 446.716 7.48473 446.454 7.43592C446.367 7.42018 446.267 7.39015 446.18 7.39189C445.192 7.42546 444.197 7.45905 443.215 7.50533C442.821 7.52511 442.593 7.47466 442.326 7.43222C442.232 7.41808 442.138 7.38804 442.051 7.38979C441.717 7.39674 441.39 7.41482 441.056 7.42813C439.841 7.47801 438.632 7.52787 437.417 7.57456C437.337 7.57789 437.236 7.54468 437.143 7.53054C436.962 7.50225 436.775 7.47556 436.587 7.44887C436.253 7.46219 435.926 7.47867 435.592 7.48881C435.352 7.4956 435.138 7.51825 435.106 7.57872C435.086 7.6185 435.307 7.65465 435.541 7.65105C435.768 7.64747 435.995 7.62798 436.182 7.64831C437.112 7.74838 437.112 7.74997 437.693 7.72826C438.2 7.70827 438.147 7.69247 438.595 7.77909C438.789 7.8169 438.964 7.83885 439.184 7.82892C439.731 7.80568 440.286 7.78242 440.84 7.76235C440.927 7.75901 441.04 7.77471 441.127 7.78727C441.783 7.88148 441.783 7.88465 442.324 7.85983C443.032 7.82995 443.059 7.82195 443.534 7.91807C443.862 7.98424 444.162 7.9376 444.476 7.93386C444.838 7.99521 445.233 8.05014 445.561 8.1195C445.949 8.20146 446.356 8.18641 446.797 8.16177C447.124 8.1437 447.445 8.13677 447.713 8.20146C447.967 8.26141 448.275 8.26723 448.622 8.25071C448.936 8.23584 449.256 8.20505 449.584 8.23943C449.671 8.24881 449.805 8.27243 449.798 8.28675C449.792 8.30901 449.705 8.34097 449.618 8.35066C449.005 8.41694 448.33 8.41656 447.682 8.44792C447.595 8.45285 447.482 8.43556 447.395 8.423C447.207 8.39472 447.027 8.36167 446.846 8.33179C446.519 8.34192 446.185 8.34569 445.864 8.36534C445.617 8.38009 445.43 8.37885 445.249 8.34103C445.082 8.30636 444.901 8.26375 444.7 8.25298C444.5 8.24221 444.266 8.26648 444.046 8.27642C443.826 8.28635 443.572 8.28203 443.398 8.30777C443.225 8.33352 443.119 8.38936 443.006 8.43407C442.879 8.48358 442.706 8.4998 442.452 8.50502C442.218 8.51021 442.031 8.50418 441.857 8.45998C441.783 8.44104 441.683 8.42691 441.582 8.41437C441.489 8.40341 441.382 8.38611 441.295 8.38945C440.3 8.4278 439.312 8.46933 438.317 8.50927C437.822 8.52923 437.829 8.52921 436.799 8.43727C436.706 8.42949 436.592 8.41857 436.498 8.42191C435.944 8.44199 435.397 8.46523 434.842 8.48848C434.282 8.51174 434.288 8.50855 433.332 8.41012C433.158 8.39136 432.904 8.41725 432.697 8.41444C432.263 8.40728 432.047 8.27413 431.54 8.30048C431.106 8.32351 430.652 8.3291 430.218 8.35849C429.824 8.38463 429.596 8.32941 429.329 8.28697C429.235 8.27283 429.134 8.24122 429.054 8.24454C428.059 8.2813 427.071 8.32282 425.748 8.32996C425.421 8.33055 425.568 8.36367 425.782 8.37442C426.09 8.39135 426.189 8.35779 426.022 8.2945C425.901 8.25021 425.727 8.22825 425.587 8.23963C425.513 8.24612 425.42 8.2765 425.748 8.32996C426.096 8.38975 426.077 8.42316 426.137 8.44212C426.284 8.48796 426.492 8.50666 426.706 8.49992C427.039 8.48819 427.367 8.47171 427.701 8.46157C427.794 8.45823 427.908 8.46915 427.995 8.48171C428.731 8.57895 428.737 8.5853 429.519 8.54575C429.766 8.53417 429.946 8.53385 430.14 8.5637C430.408 8.60455 430.602 8.67414 431.01 8.65115C431.55 8.61998 432.105 8.60151 432.659 8.58303C432.746 8.57969 432.84 8.60814 432.94 8.62067C433.214 8.65833 433.416 8.72951 433.823 8.69857C434.136 8.67416 434.477 8.66718 434.811 8.66181C434.898 8.66006 435.032 8.68526 435.072 8.70585C435.153 8.74227 435.053 8.78538 434.826 8.81599C434.733 8.82888 434.606 8.82592 434.499 8.83088C434.058 8.84916 433.618 8.86902 433.177 8.88412C432.943 8.89249 432.723 8.91674 432.697 8.9756C432.677 9.01538 432.918 9.04991 433.145 9.04633C433.479 9.04096 433.813 9.02764 434.134 9.0064C434.701 8.97041 435.196 8.97905 435.658 9.07837C435.986 9.14773 435.966 9.12234 436.315 9.32837C436.403 9.38067 436.664 9.38497 436.891 9.38138C437.438 9.37245 437.692 9.39584 437.646 9.4452C437.587 9.50572 437.393 9.52513 437.146 9.53352C436.705 9.54703 436.265 9.5685 435.824 9.58678C435.717 9.59174 435.597 9.60149 435.497 9.59849C435.397 9.59549 435.303 9.57658 435.216 9.56243C435.028 9.53257 434.868 9.48675 434.667 9.47598C434.466 9.46521 434.233 9.48948 434.013 9.49941C433.792 9.50776 433.559 9.53202 433.358 9.52126C433.158 9.51049 432.99 9.46311 432.809 9.43482C432.722 9.42067 432.615 9.39859 432.528 9.40034C432.088 9.41385 431.647 9.43532 431.206 9.452C430.665 9.47364 430.665 9.47364 430.009 9.37626C429.822 9.34798 429.628 9.34993 429.381 9.36309C428.847 9.38948 428.84 9.38472 427.864 9.29427C427.77 9.2849 427.656 9.27398 427.563 9.27892C426.568 9.31727 425.58 9.35878 424.592 9.39871C423.743 9.43361 423.744 9.43363 423.278 9.59343C422.932 9.71169 422.925 9.7117 423.266 9.76513C423.541 9.80915 423.789 9.87387 424.09 9.89718C424.371 9.91893 424.717 9.84678 425.025 9.91935C425.179 9.95563 425.38 9.99502 425.574 10.001C425.881 10.0084 426.208 9.96173 426.503 10.0311C426.65 10.0659 426.871 10.102 427.058 10.1033C427.386 10.1059 427.72 10.0798 428.047 10.0681C428.147 10.0648 428.26 10.0646 428.354 10.0723C428.454 10.0817 428.541 10.1006 428.628 10.1164C428.896 10.1699 429.184 10.1948 429.531 10.1672C430.098 10.1217 430.606 10.143 431.048 10.2439C431.109 10.2581 431.256 10.2595 431.349 10.2529C431.589 10.2366 431.797 10.2347 431.977 10.2645C432.051 10.2771 432.158 10.2992 432.145 10.3135C432.125 10.3374 432.045 10.3693 431.959 10.3774C431.331 10.4326 430.657 10.4402 430.009 10.47C429.922 10.4733 429.815 10.4528 429.728 10.4387C429.541 10.4104 429.38 10.363 429.179 10.3522C428.979 10.3415 428.745 10.3625 428.525 10.3709C428.304 10.3792 428.071 10.4035 427.87 10.3943C427.67 10.3836 427.482 10.3441 427.321 10.3095C427.134 10.2701 426.953 10.2656 426.706 10.282C426.386 10.3032 426.052 10.307 425.725 10.3187C425.544 10.2888 425.363 10.2557 425.176 10.2275C425.089 10.2133 424.982 10.196 424.888 10.1978C424.448 10.2113 424.007 10.2312 423.566 10.2494C423.125 10.2677 423.125 10.2677 422.376 10.1705C422.289 10.1595 422.175 10.147 422.082 10.1504C421.527 10.1704 420.98 10.1953 420.426 10.2153C420.212 10.2237 420.018 10.2018 419.844 10.1592C419.676 10.1165 419.476 10.093 419.269 10.1014C418.387 10.1363 417.506 10.1697 416.624 10.211C416.27 10.2276 415.97 10.2138 415.728 10.157C415.447 10.0923 415.133 10.1088 414.806 10.1221C414.065 10.1552 414.058 10.1537 413.583 10.0734C413.489 10.0577 413.395 10.0277 413.309 10.0294C412.541 10.0546 411.766 10.0783 411.005 10.1178C410.604 10.1392 410.39 10.0839 410.122 10.0431C410.028 10.029 409.928 9.99893 409.848 10.0023C409.293 10.0207 408.739 10.0376 408.198 10.0704C407.658 10.1032 407.449 9.95571 407.041 9.95803C406.487 9.96062 405.939 9.99816 405.392 10.0214C404.951 10.0397 404.51 10.058 404.07 10.0762C403.629 10.0945 403.188 10.1096 402.748 10.1311C402.514 10.1426 402.34 10.1286 402.146 10.0892C401.898 10.0372 401.604 9.99641 401.336 9.94921C400.928 9.88158 400.928 9.88157 400.433 9.90154C400.327 9.9065 400.213 9.90988 400.106 9.91484C399.298 9.95126 399.298 9.94809 398.268 9.84979C398.221 9.84511 398.101 9.86282 398.055 9.87562C397.915 9.9172 397.789 9.96193 397.662 10.0051C397.482 9.97997 397.261 9.96606 397.14 9.92971C396.798 9.827 396.265 9.96943 395.917 9.86832C395.789 9.8304 395.569 9.79741 395.368 9.78823C395.161 9.77907 394.927 9.80174 394.714 9.81167C394.159 9.83651 394.159 9.83492 393.687 9.97725C393.447 10.0476 393.1 10.0355 392.786 10.052C392.459 10.0701 392.145 10.0802 391.87 10.0155C391.622 9.95711 391.321 9.94335 390.968 9.96306C390.534 9.98769 390.086 10.0028 389.645 10.0179C389.552 10.0212 389.438 10.0135 389.345 10.0041C388.321 9.91218 388.321 9.91059 387.827 9.93215C387.607 9.94208 387.38 9.94566 387.166 9.96035C386.806 9.98643 386.531 9.95354 386.27 9.90314C386.183 9.8874 386.083 9.85739 385.996 9.85914C385.555 9.86788 385.121 9.88296 384.687 9.89805C384.353 9.90978 384.019 9.91674 383.699 9.93957C383.165 9.97709 382.903 9.87422 382.535 9.82719C381.987 9.84884 381.433 9.86414 380.886 9.89374C380.632 9.90692 380.465 9.90245 380.271 9.86465C380.023 9.81741 379.795 9.76377 379.395 9.78833C378.86 9.82109 378.299 9.83322 377.752 9.85329C377.384 9.80467 377.115 9.70499 376.588 9.7425C376.268 9.76533 375.927 9.77071 375.6 9.78401C375.159 9.80229 374.718 9.81899 374.278 9.83886C373.804 9.85879 373.81 9.85401 373.081 9.76153C372.659 9.70665 372.226 9.76942 371.798 9.77973C371.464 9.78827 371.298 9.86169 371.38 9.95534C371.461 10.049 371.281 10.1224 370.974 10.1357C370.206 10.1673 369.432 10.2005 368.664 10.2289C368.57 10.2322 368.457 10.2213 368.37 10.2103C367.547 10.1116 367.547 10.1133 367.179 10.1282C366.632 10.153 366.071 10.1668 365.53 10.1979C365.156 10.2193 364.882 10.1864 364.641 10.1328C364.453 10.0918 364.28 10.0826 364.039 10.0925C361.395 10.2038 358.75 10.3071 356.113 10.4215C355.719 10.4381 355.491 10.3924 355.224 10.35C355.13 10.3359 355.043 10.3058 354.949 10.306C354.729 10.3064 354.508 10.3211 354.288 10.331C353.3 10.3709 352.312 10.4188 351.317 10.4492C350.896 10.4627 350.783 10.536 350.603 10.5968C350.464 10.6431 350.304 10.6625 350.057 10.6693C349.816 10.6761 349.642 10.6684 349.455 10.6274C349.214 10.5738 348.939 10.5409 348.566 10.5638C348.132 10.5901 347.691 10.602 347.243 10.6203C347.016 10.6286 346.843 10.6576 346.77 10.7149C346.757 10.7245 346.897 10.7481 346.978 10.7622C347.246 10.8094 347.5 10.8646 347.801 10.8975C348.109 10.9303 348.442 10.8915 348.763 10.8814C348.876 10.878 348.983 10.8683 349.09 10.8697C349.19 10.8711 349.311 10.8789 349.384 10.893C349.733 10.9639 350.101 11.0126 350.581 10.9688C350.995 10.9887 351.211 11.1203 351.738 11.0843C352.059 11.0631 352.393 11.053 352.727 11.0444C352.813 11.0427 352.907 11.0711 353.001 11.0852C353.269 11.1245 353.483 11.1877 353.884 11.16C354.311 11.1306 354.765 11.125 355.199 11.102C355.439 11.0888 355.613 11.0996 355.801 11.1406C356.042 11.1926 356.316 11.2319 356.69 11.2058C357.01 11.1829 357.351 11.1776 357.678 11.1627C358.106 11.1444 358.106 11.146 358.868 11.2432C358.955 11.2542 359.069 11.2667 359.163 11.2633C359.717 11.2433 360.264 11.2184 360.819 11.1984C361.032 11.19 361.24 11.2103 361.387 11.2562C361.448 11.2751 361.428 11.307 361.448 11.334C360.346 11.3789 359.245 11.4174 358.15 11.4718C357.736 11.4932 357.548 11.4284 357.273 11.3923C357.18 11.3798 357.079 11.3529 356.992 11.3563C356.218 11.3847 355.45 11.4147 354.682 11.451C354.442 11.4626 354.261 11.4565 354.08 11.4108C353.618 11.2892 353.058 11.357 352.537 11.3754C352.136 11.3888 352.01 11.4383 352.058 11.5432C352.119 11.6671 352.36 11.7048 352.975 11.6814C353.195 11.6731 353.415 11.6615 353.636 11.6548C353.849 11.648 354.043 11.6684 354.218 11.711C354.385 11.7536 354.586 11.7755 354.793 11.7688C355.233 11.7537 355.681 11.7386 356.108 11.7139C356.462 11.6942 356.756 11.7096 357.004 11.768C357.279 11.8326 357.599 11.8178 357.92 11.8029C358.668 11.7697 358.674 11.7713 359.143 11.85C359.236 11.8657 359.33 11.8957 359.417 11.894C360.185 11.8688 360.96 11.8467 361.714 11.8072C362.108 11.7874 362.336 11.8379 362.597 11.8787C362.691 11.8929 362.785 11.9245 362.871 11.9212C363.426 11.9027 363.98 11.8842 364.521 11.853C364.774 11.8383 364.928 11.8475 365.136 11.8853C365.631 11.9782 365.645 11.975 366.346 11.9435C366.559 11.9336 366.793 11.9157 366.994 11.9281C367.194 11.9404 367.355 11.9862 367.542 12.0145C367.629 12.0271 367.736 12.0444 367.83 12.041C368.271 12.0275 368.711 12.0076 369.152 11.9894C369.566 11.9711 369.566 11.9727 370.342 12.0699C370.657 12.1107 370.984 12.0751 371.298 12.0618C371.638 12.0469 371.945 12.0463 372.207 12.1079C372.468 12.1694 372.782 12.1656 373.116 12.1523C373.43 12.139 373.75 12.1035 374.071 12.1459C374.807 12.2431 374.807 12.2447 375.261 12.2248C375.922 12.1966 376.577 12.17 377.244 12.1449C377.331 12.1416 377.445 12.1605 377.532 12.173C377.719 12.2013 377.88 12.2487 378.081 12.2594C378.281 12.2718 378.515 12.2523 378.729 12.2424C379.416 12.2109 379.463 12.1997 379.925 12.3038C380.314 12.389 380.793 12.2641 381.155 12.362C381.363 12.4173 381.644 12.4613 382.031 12.4336C382.351 12.4107 382.685 12.4038 383.019 12.3905C383.547 12.3689 383.547 12.3705 384.216 12.4646C384.303 12.4772 384.417 12.4929 384.504 12.4895C384.944 12.476 385.392 12.4641 385.819 12.4347C386.32 12.4004 386.641 12.4603 387.016 12.5184C387.31 12.564 387.657 12.5252 387.971 12.5087C388.312 12.4922 388.619 12.4964 388.874 12.558C389.142 12.6211 389.455 12.6126 389.789 12.5993C390.103 12.5876 390.423 12.5504 390.745 12.5944C391.434 12.6917 391.434 12.6917 391.935 12.6717C392.375 12.6534 392.816 12.6336 393.257 12.6201C393.344 12.6167 393.451 12.6372 393.538 12.6513C393.725 12.6796 393.886 12.727 394.087 12.7378C394.287 12.7486 394.521 12.7275 394.741 12.7191C394.961 12.7108 395.195 12.6865 395.396 12.6957C395.596 12.7049 395.784 12.7443 395.944 12.779C396.132 12.82 396.306 12.8244 396.559 12.8081C396.88 12.7868 397.214 12.7815 397.541 12.7697C397.722 12.7996 397.909 12.8295 398.083 12.8626C398.264 12.8972 398.458 12.8937 398.705 12.8821C399.526 12.8425 399.533 12.8472 400.222 12.9446C400.536 12.9885 400.863 12.9514 401.177 12.9397C401.511 12.9263 401.825 12.9194 402.086 12.9825C402.341 13.0425 402.655 13.0499 402.989 13.0302C403.202 13.0171 403.429 13.0087 403.65 13.0036C403.75 13.0018 403.87 13.008 403.944 13.0205C404.299 13.0867 404.647 13.1465 405.134 13.1027C405.562 13.1146 405.777 13.2446 406.291 13.2182C406.725 13.1952 407.179 13.1896 407.607 13.1602C408.001 13.1341 408.282 13.1781 408.483 13.2333C408.845 13.3313 409.351 13.1968 409.713 13.2931C409.92 13.3484 410.188 13.3924 410.589 13.3679C411.029 13.3416 411.17 13.3748 411.298 13.4747C411.372 13.5318 411.36 13.5779 411.226 13.6227C411.093 13.669 410.946 13.6613 410.732 13.6092C410.484 13.5509 410.19 13.5403 409.836 13.5536C409.489 13.5669 409.274 13.4847 408.986 13.4534C408.699 13.4205 408.359 13.4768 408.058 13.4344C407.348 13.3355 407.348 13.3355 406.867 13.3555C406.54 13.3688 406.2 13.3758 405.879 13.3986C405.499 13.4263 405.251 13.3775 404.99 13.3334C404.896 13.3177 404.802 13.2876 404.722 13.2894C403.954 13.3146 403.179 13.3383 402.418 13.3794C402.018 13.4008 401.803 13.3439 401.536 13.3047C401.442 13.2905 401.341 13.2621 401.261 13.2654C400.6 13.2888 399.946 13.3186 399.285 13.3468C399.158 13.39 399.018 13.4316 398.899 13.4779C398.772 13.5258 398.599 13.5468 398.345 13.5457C397.924 13.5464 397.511 13.6139 397.089 13.5304C396.654 13.4454 396.62 13.4502 396.2 13.4716C395.666 13.4996 395.098 13.4943 394.597 13.5572C394.511 13.5684 394.417 13.5988 394.418 13.6211C394.411 13.6354 394.552 13.6558 394.639 13.6684C394.933 13.706 395.273 13.6497 395.568 13.6889C395.762 13.714 395.922 13.7519 396.116 13.7786C396.197 13.7895 396.317 13.7877 396.424 13.786C396.537 13.7842 396.644 13.7729 396.751 13.7743C396.851 13.7757 396.958 13.785 397.039 13.7992C397.407 13.8589 397.795 13.9139 398.123 13.9848C398.445 14.0542 398.745 14.0059 399.065 14.0022C400.349 14.1112 400.349 14.1127 401.211 14.0762C401.424 14.0679 401.645 14.058 401.865 14.0592C401.959 14.059 402.046 14.0874 402.14 14.1032C402.407 14.1504 402.662 14.1928 403.036 14.1667C403.356 14.1439 403.697 14.1385 404.024 14.1236C404.465 14.1053 404.465 14.1053 405.214 14.2041C405.401 14.2292 405.602 14.2257 405.842 14.2126C406.049 14.2011 406.263 14.2245 406.41 14.2704C406.471 14.2893 406.451 14.3212 406.472 14.3481C405.81 14.3748 405.143 14.3935 404.502 14.4328C404.088 14.4573 403.9 14.3893 403.626 14.3533C403.532 14.3407 403.432 14.3139 403.345 14.3172C402.69 14.3422 402.036 14.3704 401.382 14.4034C401.301 14.4067 401.202 14.4434 401.195 14.4657C401.182 14.5071 401.35 14.5465 401.59 14.5445C401.911 14.5423 402.225 14.5147 402.513 14.5794C402.754 14.6362 403.055 14.6611 403.408 14.635C403.622 14.6203 403.849 14.6199 404.063 14.6068C404.63 14.5676 405.145 14.5747 405.574 14.682C405.901 14.71 406.222 14.6824 406.536 14.6676C406.769 14.656 406.996 14.6445 407.164 14.6744C407.518 14.7373 407.867 14.8003 408.354 14.7565C408.882 14.8 409.284 14.8931 409.726 14.9686C409.933 15.0048 410.094 15.0252 410.334 15.0009C410.434 14.9912 410.554 14.991 410.661 14.986C410.882 14.9777 411.115 14.9534 411.316 14.9626C411.516 14.9733 411.684 15.0192 411.865 15.0474C411.952 15.0616 412.052 15.0853 412.139 15.0835C412.473 15.075 412.8 15.0585 413.127 15.0452C413.454 15.0335 413.781 15.0217 414.109 15.01C414.383 15.0509 414.664 15.0917 414.939 15.1325C415.379 15.1143 415.82 15.096 416.254 15.0793C416.742 15.0593 416.741 15.0609 417.444 15.1582C417.759 15.2022 418.092 15.173 418.393 15.1518C418.893 15.1175 419.228 15.1773 419.583 15.2402C419.657 15.2528 419.79 15.2605 419.877 15.254C420.224 15.2311 420.525 15.2481 420.78 15.3064C420.96 15.3474 421.141 15.3662 421.361 15.3579C422.129 15.3263 422.897 15.2931 423.665 15.2647C423.759 15.2613 423.866 15.2755 423.953 15.288C424.635 15.3838 424.642 15.3885 425.143 15.3622C425.59 15.3391 426.004 15.3288 426.359 15.4156C426.433 15.4346 426.547 15.4614 426.627 15.4597C427.175 15.4428 427.729 15.4243 428.27 15.3963C428.517 15.3831 428.69 15.3876 428.885 15.4238C429.132 15.4695 429.354 15.5247 429.761 15.5033C430.889 15.4425 430.896 15.452 432.233 15.5593C432.327 15.5671 432.454 15.5541 432.561 15.5476C432.787 15.5313 432.955 15.5532 433.156 15.5894C433.604 15.6713 433.617 15.6665 434.045 15.6482C434.372 15.6333 434.713 15.6295 435.033 15.6051C435.527 15.5693 435.855 15.6307 436.223 15.6888C436.518 15.7344 436.858 15.6956 437.172 15.6808C437.512 15.6643 437.82 15.6685 438.074 15.7284C438.248 15.7694 438.436 15.7914 438.656 15.783C439.424 15.753 440.192 15.7198 440.96 15.6898C441.053 15.6865 441.167 15.699 441.254 15.71C442.017 15.8072 442.017 15.8119 442.771 15.774C443.012 15.7625 443.212 15.7589 443.393 15.792C443.567 15.8235 443.754 15.8533 443.935 15.8832C444.262 15.8715 444.596 15.8677 444.917 15.8481C445.164 15.8333 445.337 15.8394 445.532 15.8724C445.786 15.9149 446.001 15.9892 446.401 15.9519C446.608 15.934 446.848 15.9384 447.055 15.9221C447.302 15.901 447.47 15.9134 447.664 15.9544C447.905 16.0032 448.152 16.0537 448.54 16.0275C448.967 15.9982 449.421 15.9926 449.855 15.9695C450.095 15.9564 450.263 15.9688 450.457 16.0098C450.698 16.0618 450.972 16.0947 451.346 16.0734C452.107 16.0323 452.114 16.0402 452.857 16.139C453.044 16.1641 453.245 16.1606 453.485 16.1474C453.692 16.1359 453.906 16.1594 454.053 16.2052C454.194 16.2558 454.181 16.2876 454.195 16.3146ZM394.496 2.08465C394.275 2.09299 394.055 2.10292 393.733 1.9652C393.712 1.94139 393.726 1.91276 393.679 1.89218C393.571 1.84945 393.404 1.81955 393.203 1.81514C392.842 1.80943 392.409 1.86425 392.416 1.90557C392.423 1.94053 392.537 1.97052 392.758 1.99874C392.851 2.0097 392.925 2.02864 393.012 2.0412C393.266 2.07731 393.468 2.1485 393.835 2.11127C393.801 2.06205 393.767 2.01284 393.835 2.11127C393.802 2.17174 393.903 2.21448 394.143 2.23154C394.21 2.23618 394.311 2.23282 394.364 2.22318C394.571 2.18784 394.603 2.1401 394.448 2.01479C394.422 2.03551 394.442 2.07202 394.502 2.08145C394.563 2.09088 394.71 2.08268 394.783 2.07142C394.97 2.04088 395.063 2.00097 395.016 1.96767C394.989 1.95023 394.861 1.9282 394.781 1.92835C394.641 1.9286 394.514 1.9638 394.496 2.08465ZM448.732 20.4227C448.244 20.4537 447.683 20.4436 447.196 20.5065C447.109 20.5178 447.023 20.5465 447.017 20.5688C447.01 20.5831 447.144 20.6036 447.224 20.6145C447.405 20.6397 447.605 20.6313 447.839 20.623C448.193 20.6112 448.401 20.684 448.675 20.72C448.762 20.731 448.876 20.7387 448.969 20.7354C449.51 20.7153 450.044 20.6937 450.585 20.6705C450.679 20.6656 450.779 20.6542 450.859 20.6398C451.125 20.5932 451.098 20.5631 450.837 20.5286C450.55 20.4909 450.322 20.4277 450.028 20.3981C449.606 20.3559 449.179 20.4139 448.732 20.4227ZM410.806 21.6513C410.479 21.6646 410.159 21.6779 409.831 21.6912C409.725 21.6961 409.611 21.6979 409.511 21.7045C409.304 21.716 409.151 21.7496 409.051 21.8023C409.205 21.8433 409.393 21.8668 409.6 21.8617C409.927 21.8516 410.247 21.8303 410.575 21.825C410.929 21.818 411.137 21.8891 411.411 21.9252C411.498 21.9362 411.605 21.9376 411.705 21.939C412.199 21.9444 412.499 21.8612 412.404 21.7454C412.336 21.6549 412.082 21.6013 411.775 21.613C411.454 21.6247 411.127 21.638 410.806 21.6513ZM450.989 18.069C451.069 18.0419 451.155 18.0227 451.195 17.9987C451.314 17.9175 451.267 17.8571 451.046 17.7939C450.778 17.7165 450.451 17.7696 450.15 17.7781C450.077 17.7798 449.997 17.8133 449.957 17.834C449.931 17.8484 449.931 17.8786 449.971 17.8865C450.299 17.9495 450.647 18.0077 450.989 18.069ZM392.98 13.4774C392.659 13.4907 392.332 13.5008 392.012 13.5189C391.931 13.5238 391.858 13.5541 391.812 13.5749C391.725 13.6132 391.819 13.6655 392.093 13.6697C392.407 13.6755 392.734 13.6479 393.062 13.6346C393.476 13.618 393.722 13.5587 393.568 13.5081C393.42 13.4591 393.22 13.4499 392.98 13.4774ZM41.2814 10.7123C41.495 10.7039 41.7154 10.6972 41.929 10.6857C42.1293 10.6742 42.2827 10.6389 42.3823 10.5863C42.2148 10.5453 42.0274 10.5233 41.8204 10.5285C41.4931 10.5386 41.1726 10.5519 40.8522 10.5684C40.6519 10.5783 40.4586 10.6136 40.4125 10.6677C40.3662 10.7091 40.8139 10.7322 41.2814 10.7123ZM364.685 9.88629C364.772 9.90045 364.859 9.92891 364.946 9.92875C365.159 9.92837 365.38 9.91843 365.58 9.90217C365.667 9.89565 365.733 9.86692 365.773 9.8446C365.8 9.83024 365.793 9.80483 365.753 9.79218C365.558 9.71623 364.783 9.74464 364.657 9.8323C364.644 9.84822 364.678 9.86882 364.685 9.88629ZM343.505 1.21929C343.525 1.24469 343.532 1.2701 343.559 1.29549C343.613 1.34308 343.761 1.3778 343.975 1.40126C344.141 1.36122 344.228 1.31656 344.221 1.26888C344.214 1.24346 344.193 1.21804 344.166 1.19266C344.112 1.14507 343.965 1.11037 343.751 1.08691C343.584 1.12536 343.505 1.17001 343.505 1.21929ZM466.472 21.8278C466.412 21.8486 466.352 21.8694 466.286 21.8886C466.467 21.9344 466.634 21.9484 466.761 21.9227C466.841 21.9067 466.887 21.8827 466.947 21.862C466.766 21.8162 466.605 21.8038 466.472 21.8278ZM462.319 22.0515C462.406 22.0657 462.487 22.0846 462.581 22.094C462.734 22.1096 462.874 22.0823 462.98 22.0249C462.893 22.0107 462.813 21.9918 462.719 21.9824C462.566 21.9668 462.426 21.9941 462.319 22.0515ZM464.948 21.7559C464.902 21.7941 464.996 21.8257 465.243 21.8523C465.303 21.8315 465.383 21.8123 465.423 21.79C465.489 21.7533 465.375 21.7201 465.134 21.6951C465.068 21.7143 465.008 21.7351 464.948 21.7559ZM450.825 20.0676C450.779 20.1058 450.873 20.1374 451.12 20.164C451.18 20.1432 451.26 20.124 451.3 20.1017C451.366 20.065 451.252 20.0318 451.012 20.0068C450.945 20.026 450.885 20.0468 450.825 20.0676ZM431.48 8.85379C431.42 8.87457 431.36 8.89534 431.293 8.91454C431.474 8.96031 431.641 8.97431 431.768 8.94865C431.848 8.93261 431.894 8.90868 431.954 8.88791C431.773 8.84213 431.613 8.82971 431.48 8.85379ZM413.004 2.91934C413.165 2.93018 413.298 2.9077 413.411 2.84867C413.324 2.83452 413.244 2.81559 413.15 2.80622C412.996 2.7906 412.856 2.81788 412.75 2.8753C412.837 2.89104 412.924 2.90518 413.004 2.91934ZM403.226 2.56334C403.167 2.58412 403.107 2.60489 403.04 2.62409C403.221 2.66986 403.388 2.68386 403.515 2.6582C403.595 2.64216 403.641 2.61823 403.701 2.59746C403.52 2.55168 403.36 2.54085 403.226 2.56334ZM336.932 1.22951C336.872 1.25028 336.812 1.27106 336.745 1.29025C336.926 1.33603 337.093 1.35003 337.22 1.32437C337.3 1.30833 337.346 1.2844 337.406 1.26362C337.225 1.21785 337.065 1.20701 336.932 1.22951ZM7.07024 14.7559C6.98322 14.7417 6.89629 14.7276 6.81593 14.7118C6.6227 14.7551 6.56306 14.7949 6.67031 14.8249C6.73734 14.8439 6.8376 14.8549 6.92461 14.869C7.12453 14.8257 7.17082 14.7875 7.07024 14.7559Z" fill="#F5F5DC"/>
</svg>
